<?xml version="1.0" encoding="UTF-8"?>
<svg width="12px" height="67px" viewBox="0 0 12 67" version="1.1" xmlns="http://www.w3.org/2000/svg" xmlns:xlink="http://www.w3.org/1999/xlink">
    <!-- Generator: Sketch 39.1 (31720) - http://www.bohemiancoding.com/sketch -->
    <title>06-03-2017</title>
    <desc>Created with Sketch.</desc>
    <defs></defs>
    <g id="Page-1" stroke="none" stroke-width="1" fill="none" fill-rule="evenodd">
        <g id="Desktop-Copy-61" transform="translate(-941.000000, -328.000000)" fill="#FFFFFF">
            <path d="M916.552,356.952 C916.178665,356.952 915.888001,357.063999 915.68,357.288 C915.471999,357.512001 915.32,357.831998 915.224,358.248 C915.128,358.664002 915.072,359.170664 915.056,359.768 C915.04,360.365336 915.032,361.03733 915.032,361.784 C915.032,362.253336 915.034667,362.735998 915.04,363.232 C915.045333,363.728002 915.090666,364.181331 915.176,364.592 C915.261334,365.002669 915.410666,365.341332 915.624,365.608 C915.837334,365.874668 916.146665,366.008 916.552,366.008 C916.957335,366.008 917.263999,365.874668 917.472,365.608 C917.680001,365.341332 917.829333,365.002669 917.92,364.592 C918.010667,364.181331 918.058667,363.728002 918.064,363.232 C918.069333,362.735998 918.072,362.253336 918.072,361.784 C918.072,361.03733 918.064,360.365336 918.048,359.768 C918.032,359.170664 917.976,358.664002 917.88,358.248 C917.784,357.831998 917.632001,357.512001 917.424,357.288 C917.215999,357.063999 916.925335,356.952 916.552,356.952 L916.552,356.952 Z M916.552,355.72 C917.309337,355.72 917.890665,355.879998 918.296,356.2 C918.701335,356.520002 918.997332,356.949331 919.184,357.488 C919.370668,358.026669 919.477333,358.642663 919.504,359.336 C919.530667,360.029337 919.544,360.74933 919.544,361.496 C919.544,362.221337 919.528,362.927997 919.496,363.616 C919.464,364.304003 919.357334,364.917331 919.176,365.456 C918.994666,365.994669 918.698669,366.426665 918.288,366.752 C917.877331,367.077335 917.29867,367.24 916.552,367.24 C916.050664,367.24 915.629335,367.165334 915.288,367.016 C914.946665,366.866666 914.664001,366.658668 914.44,366.392 C914.215999,366.125332 914.045334,365.810668 913.928,365.448 C913.810666,365.085332 913.725334,364.693335 913.672,364.272 C913.618666,363.850665 913.586667,363.402669 913.576,362.928 C913.565333,362.453331 913.56,361.976002 913.56,361.496 C913.56,360.74933 913.573333,360.029337 913.6,359.336 C913.626667,358.642663 913.730666,358.026669 913.912,357.488 C914.093334,356.949331 914.389331,356.520002 914.8,356.2 C915.210669,355.879998 915.794663,355.72 916.552,355.72 L916.552,355.72 Z M922.184,363.4 C922.184,363.677335 922.2,363.967998 922.232,364.272 C922.264,364.576002 922.333333,364.855999 922.44,365.112 C922.546667,365.368001 922.703999,365.581332 922.912,365.752 C923.120001,365.922668 923.399998,366.008 923.752,366.008 C924.050668,366.008 924.293332,365.933334 924.48,365.784 C924.666668,365.634666 924.810666,365.432001 924.912,365.176 C925.013334,364.919999 925.08,364.624002 925.112,364.288 C925.144,363.951998 925.16,363.602668 925.16,363.24 C925.16,362.983999 925.141334,362.725335 925.104,362.464 C925.066666,362.202665 924.994667,361.962668 924.888,361.744 C924.781333,361.525332 924.629334,361.346667 924.432,361.208 C924.234666,361.069333 923.976002,361 923.656,361 C923.335998,361 923.077334,361.077333 922.88,361.232 C922.682666,361.386667 922.533334,361.583999 922.432,361.824 C922.330666,362.064001 922.264,362.325332 922.232,362.608 C922.2,362.890668 922.184,363.154665 922.184,363.4 L922.184,363.4 Z M923.672,367.24 C923.170664,367.24 922.749335,367.165334 922.408,367.016 C922.066665,366.866666 921.784001,366.658668 921.56,366.392 C921.335999,366.125332 921.165334,365.810668 921.048,365.448 C920.930666,365.085332 920.845334,364.693335 920.792,364.272 C920.738666,363.850665 920.706667,363.402669 920.696,362.928 C920.685333,362.453331 920.68,361.976002 920.68,361.496 C920.68,360.74933 920.693333,360.029337 920.72,359.336 C920.746667,358.642663 920.850666,358.026669 921.032,357.488 C921.213334,356.949331 921.509331,356.520002 921.92,356.2 C922.330669,355.879998 922.914663,355.72 923.672,355.72 C924.088002,355.72 924.469332,355.781333 924.816,355.904 C925.162668,356.026667 925.455999,356.205332 925.696,356.44 C925.936001,356.674668 926.119999,356.959998 926.248,357.296 C926.376001,357.632002 926.434667,358.007998 926.424,358.424 L924.952,358.424 C924.952,358.231999 924.925334,358.040001 924.872,357.848 C924.818666,357.655999 924.738667,357.480001 924.632,357.32 C924.525333,357.159999 924.392001,357.032 924.232,356.936 C924.071999,356.84 923.880001,356.792 923.656,356.792 C923.357332,356.792 923.109334,356.861333 922.912,357 C922.714666,357.138667 922.560001,357.367998 922.448,357.688 C922.335999,358.008002 922.258667,358.423997 922.216,358.936 C922.173333,359.448003 922.152,360.071996 922.152,360.808 L922.184,360.808 C922.365334,360.487998 922.615998,360.234668 922.936,360.048 C923.256002,359.861332 923.607998,359.768 923.992,359.768 C924.344002,359.768 924.679998,359.826666 925,359.944 C925.320002,360.061334 925.599999,360.261332 925.84,360.544 C926.080001,360.826668 926.271999,361.207998 926.416,361.688 C926.560001,362.168002 926.632,362.770663 926.632,363.496 C926.632,363.997336 926.578667,364.471998 926.472,364.92 C926.365333,365.368002 926.194668,365.765332 925.96,366.112 C925.725332,366.458668 925.421335,366.733332 925.048,366.936 C924.674665,367.138668 924.216003,367.24 923.672,367.24 L923.672,367.24 Z M928.104,362.024 L931.624,362.024 L931.624,363.256 L928.104,363.256 L928.104,362.024 Z M936.088,356.952 C935.714665,356.952 935.424001,357.063999 935.216,357.288 C935.007999,357.512001 934.856,357.831998 934.76,358.248 C934.664,358.664002 934.608,359.170664 934.592,359.768 C934.576,360.365336 934.568,361.03733 934.568,361.784 C934.568,362.253336 934.570667,362.735998 934.576,363.232 C934.581333,363.728002 934.626666,364.181331 934.712,364.592 C934.797334,365.002669 934.946666,365.341332 935.16,365.608 C935.373334,365.874668 935.682665,366.008 936.088,366.008 C936.493335,366.008 936.799999,365.874668 937.008,365.608 C937.216001,365.341332 937.365333,365.002669 937.456,364.592 C937.546667,364.181331 937.594667,363.728002 937.6,363.232 C937.605333,362.735998 937.608,362.253336 937.608,361.784 C937.608,361.03733 937.6,360.365336 937.584,359.768 C937.568,359.170664 937.512,358.664002 937.416,358.248 C937.32,357.831998 937.168001,357.512001 936.96,357.288 C936.751999,357.063999 936.461335,356.952 936.088,356.952 L936.088,356.952 Z M936.088,355.72 C936.845337,355.72 937.426665,355.879998 937.832,356.2 C938.237335,356.520002 938.533332,356.949331 938.72,357.488 C938.906668,358.026669 939.013333,358.642663 939.04,359.336 C939.066667,360.029337 939.08,360.74933 939.08,361.496 C939.08,362.221337 939.064,362.927997 939.032,363.616 C939,364.304003 938.893334,364.917331 938.712,365.456 C938.530666,365.994669 938.234669,366.426665 937.824,366.752 C937.413331,367.077335 936.83467,367.24 936.088,367.24 C935.586664,367.24 935.165335,367.165334 934.824,367.016 C934.482665,366.866666 934.200001,366.658668 933.976,366.392 C933.751999,366.125332 933.581334,365.810668 933.464,365.448 C933.346666,365.085332 933.261334,364.693335 933.208,364.272 C933.154666,363.850665 933.122667,363.402669 933.112,362.928 C933.101333,362.453331 933.096,361.976002 933.096,361.496 C933.096,360.74933 933.109333,360.029337 933.136,359.336 C933.162667,358.642663 933.266666,358.026669 933.448,357.488 C933.629334,356.949331 933.925331,356.520002 934.336,356.2 C934.746669,355.879998 935.330663,355.72 936.088,355.72 L936.088,355.72 Z M942.344,360.536 C942.674668,360.568 942.978665,360.554667 943.256,360.496 C943.533335,360.437333 943.773332,360.336001 943.976,360.192 C944.178668,360.047999 944.335999,359.850668 944.448,359.6 C944.560001,359.349332 944.616,359.048002 944.616,358.696 C944.616,358.183997 944.496001,357.765335 944.256,357.44 C944.015999,357.114665 943.624003,356.952 943.08,356.952 C942.770665,356.952 942.525334,357.005333 942.344,357.112 C942.162666,357.218667 942.021334,357.354666 941.92,357.52 C941.818666,357.685334 941.754667,357.877332 941.728,358.096 C941.701333,358.314668 941.688,358.535999 941.688,358.76 L940.216,358.76 C940.162666,357.810662 940.367998,357.066669 940.832,356.528 C941.296002,355.989331 942.045328,355.72 943.08,355.72 C944.029338,355.72 944.767997,355.957331 945.296,356.432 C945.824003,356.906669 946.088,357.629328 946.088,358.6 C946.088,359.122669 946.002668,359.543998 945.832,359.864 C945.661332,360.184002 945.461334,360.434666 945.232,360.616 C945.002666,360.797334 944.762668,360.925333 944.512,361 C944.261332,361.074667 944.056001,361.133333 943.896,361.176 L943.896,361.208 C944.770671,361.325334 945.373332,361.618664 945.704,362.088 C946.034668,362.557336 946.2,363.207996 946.2,364.04 C946.2,365.128005 945.917336,365.933331 945.352,366.456 C944.786664,366.978669 943.970672,367.24 942.904,367.24 C942.391997,367.24 941.962668,367.173334 941.616,367.04 C941.269332,366.906666 940.989334,366.736001 940.776,366.528 C940.562666,366.319999 940.405334,366.088001 940.304,365.832 C940.202666,365.575999 940.133334,365.325335 940.096,365.08 C940.058666,364.834665 940.04,364.610668 940.04,364.408 L940.04,363.944 L941.512,363.944 C941.512,364.221335 941.530666,364.485332 941.568,364.736 C941.605334,364.986668 941.677333,365.205332 941.784,365.392 C941.890667,365.578668 942.042666,365.727999 942.24,365.84 C942.437334,365.952001 942.701332,366.008 943.032,366.008 C943.352002,366.008 943.621332,365.96 943.84,365.864 C944.058668,365.768 944.234666,365.632001 944.368,365.456 C944.501334,365.279999 944.594666,365.069335 944.648,364.824 C944.701334,364.578665 944.728,364.306668 944.728,364.008 C944.728,363.559998 944.685334,363.194668 944.6,362.912 C944.514666,362.629332 944.376001,362.408001 944.184,362.248 C943.991999,362.087999 943.744002,361.978667 943.44,361.92 C943.135998,361.861333 942.770669,361.832 942.344,361.832 L942.344,360.536 Z M947.64,362.024 L951.16,362.024 L951.16,363.256 L947.64,363.256 L947.64,362.024 Z M952.76,367 L952.76,365.72 C953.570671,364.589328 954.245331,363.661337 954.784,362.936 C955.322669,362.210663 955.754665,361.594669 956.08,361.088 C956.405335,360.581331 956.634666,360.130669 956.768,359.736 C956.901334,359.341331 956.968,358.904002 956.968,358.424 C956.968,357.975998 956.858668,357.618668 956.64,357.352 C956.421332,357.085332 956.072002,356.952 955.592,356.952 C955.314665,356.952 955.090668,357.005333 954.92,357.112 C954.749332,357.218667 954.616,357.354666 954.52,357.52 C954.424,357.685334 954.362667,357.877332 954.336,358.096 C954.309333,358.314668 954.296,358.535999 954.296,358.76 L952.792,358.76 C952.728,357.831995 952.922664,357.093336 953.376,356.544 C953.829336,355.994664 954.530662,355.72 955.48,355.72 C956.482672,355.72 957.226664,355.954664 957.712,356.424 C958.197336,356.893336 958.44,357.629328 958.44,358.632 C958.44,359.048002 958.405334,359.423998 958.336,359.76 C958.266666,360.096002 958.160001,360.421332 958.016,360.736 C957.871999,361.050668 957.688001,361.367998 957.464,361.688 C957.239999,362.008002 956.976002,362.362665 956.672,362.752 C956.367998,363.141335 956.021335,363.575998 955.632,364.056 C955.242665,364.536002 954.808002,365.090664 954.328,365.72 L958.728,365.72 L958.728,367 L952.76,367 Z M962.728,356.952 C962.354665,356.952 962.064001,357.063999 961.856,357.288 C961.647999,357.512001 961.496,357.831998 961.4,358.248 C961.304,358.664002 961.248,359.170664 961.232,359.768 C961.216,360.365336 961.208,361.03733 961.208,361.784 C961.208,362.253336 961.210667,362.735998 961.216,363.232 C961.221333,363.728002 961.266666,364.181331 961.352,364.592 C961.437334,365.002669 961.586666,365.341332 961.8,365.608 C962.013334,365.874668 962.322665,366.008 962.728,366.008 C963.133335,366.008 963.439999,365.874668 963.648,365.608 C963.856001,365.341332 964.005333,365.002669 964.096,364.592 C964.186667,364.181331 964.234667,363.728002 964.24,363.232 C964.245333,362.735998 964.248,362.253336 964.248,361.784 C964.248,361.03733 964.24,360.365336 964.224,359.768 C964.208,359.170664 964.152,358.664002 964.056,358.248 C963.96,357.831998 963.808001,357.512001 963.6,357.288 C963.391999,357.063999 963.101335,356.952 962.728,356.952 L962.728,356.952 Z M962.728,355.72 C963.485337,355.72 964.066665,355.879998 964.472,356.2 C964.877335,356.520002 965.173332,356.949331 965.36,357.488 C965.546668,358.026669 965.653333,358.642663 965.68,359.336 C965.706667,360.029337 965.72,360.74933 965.72,361.496 C965.72,362.221337 965.704,362.927997 965.672,363.616 C965.64,364.304003 965.533334,364.917331 965.352,365.456 C965.170666,365.994669 964.874669,366.426665 964.464,366.752 C964.053331,367.077335 963.47467,367.24 962.728,367.24 C962.226664,367.24 961.805335,367.165334 961.464,367.016 C961.122665,366.866666 960.840001,366.658668 960.616,366.392 C960.391999,366.125332 960.221334,365.810668 960.104,365.448 C959.986666,365.085332 959.901334,364.693335 959.848,364.272 C959.794666,363.850665 959.762667,363.402669 959.752,362.928 C959.741333,362.453331 959.736,361.976002 959.736,361.496 C959.736,360.74933 959.749333,360.029337 959.776,359.336 C959.802667,358.642663 959.906666,358.026669 960.088,357.488 C960.269334,356.949331 960.565331,356.520002 960.976,356.2 C961.386669,355.879998 961.970663,355.72 962.728,355.72 L962.728,355.72 Z M970.904,367 L969.432,367 L969.432,357.512 L967.768,358.632 L967.768,357.224 C967.864,357.181333 967.991999,357.106667 968.152,357 C968.312001,356.893333 968.485332,356.773334 968.672,356.64 C968.858668,356.506666 969.037332,356.373334 969.208,356.24 C969.378668,356.106666 969.522666,355.992 969.64,355.896 L970.904,355.896 L970.904,367 Z M973.864,355.896 L979.608,355.896 L979.608,357.176 L976.648,367 L974.984,367 L978.088,357.176 L973.864,357.176 L973.864,355.896 Z" id="06-03-2017" transform="translate(947.024000, 361.480000) rotate(-270.000000) translate(-947.024000, -361.480000) "></path>
        </g>
    </g>
</svg>