<?xml version="1.0" encoding="UTF-8"?>
<svg width="453px" height="121px" viewBox="0 0 453 121" version="1.1" xmlns="http://www.w3.org/2000/svg" xmlns:xlink="http://www.w3.org/1999/xlink">
    <!-- Generator: Sketch 39.1 (31720) - http://www.bohemiancoding.com/sketch -->
    <title>K9 KILLA P PRYNCE MI</title>
    <desc>Created with Sketch.</desc>
    <defs></defs>
    <g id="Page-1" stroke="none" stroke-width="1" fill="none" fill-rule="evenodd">
        <g id="Desktop-Copy-45" transform="translate(-286.000000, -310.000000)" stroke="#FFFFFF">
            <path d="M479.934961,334 L479.934961,323.677 L495.647806,334 L511.663653,334 L492.314778,321.414 L511.057648,310.936 L495.777664,310.936 L479.934961,320.05 L479.934961,310.936 L467.641716,310.936 L467.641716,334 L479.934961,334 Z M544.514018,318.5 C544.514018,319.585 543.215436,320.825 535.986662,320.825 C528.757888,320.825 527.589164,319.585 527.589164,318.5 L527.589164,318.438 C527.589164,317.322 528.757888,316.113 535.986662,316.113 C543.128864,316.113 544.514018,317.353 544.514018,318.438 L544.514018,318.5 Z M537.544961,334.465 C555.205679,334.465 558.105846,327.614 558.105846,322.747 L558.105846,322.003 C558.105846,316.702 554.772818,310.502 536.809097,310.502 L534.861224,310.502 C517.330364,310.502 514.819772,314.78 514.819772,318.376 L514.819772,318.655 C514.819772,322.53 518.888663,325.909 532.26406,325.909 L532.826779,325.909 C541.700424,325.909 544.773735,324.173 545.639456,323.708 L545.639456,323.832 C545.639456,325.444 544.38416,328.854 536.246378,328.854 C529.926612,328.854 528.887746,327.366 528.671316,326.994 L516.248212,326.994 L516.248212,327.149 C516.248212,330.063 519.970815,334.465 535.683659,334.465 L537.544961,334.465 Z M395.168598,366 L395.168598,355.677 L410.881442,366 L426.89729,366 L407.548415,353.414 L426.291285,342.936 L411.011301,342.936 L395.168598,352.05 L395.168598,342.936 L382.875353,342.936 L382.875353,366 L395.168598,366 Z M443.601949,342.936 L431.351991,342.936 L431.351991,366 L443.601949,366 L443.601949,342.936 Z M450.956817,342.936 L450.956817,366 L485.585676,366 L485.585676,359.397 L463.250062,359.397 L463.250062,342.936 L450.956817,342.936 Z M492.031536,342.936 L492.031536,366 L526.660395,366 L526.660395,359.397 L504.324781,359.397 L504.324781,342.936 L492.031536,342.936 Z M560.246624,356.514 L549.554964,356.514 L554.835865,348.578 L560.246624,356.514 Z M566.696249,366 L580.158218,366 L563.319935,342.936 L546.784655,342.936 L530.85538,366 L543.321769,366 L545.789075,362.28 L564.185657,362.28 L566.696249,366 Z M627.938514,358.777 C639.712326,358.777 643.218498,355.243 643.218498,351.058 L643.218498,350.562 C643.218498,346.315 639.842184,342.936 627.938514,342.936 L601.101148,342.936 L601.101148,366 L613.394393,366 L613.394393,358.777 L627.938514,358.777 Z M613.394393,348.702 L626.466787,348.702 C629.366954,348.702 630.535678,349.477 630.535678,350.81 L630.535678,350.903 C630.535678,352.174 629.280382,353.011 626.466787,353.011 L613.394393,353.011 L613.394393,348.702 Z M313.581878,390.777 C325.35569,390.777 328.861862,387.243 328.861862,383.058 L328.861862,382.562 C328.861862,378.315 325.485548,374.936 313.581878,374.936 L286.744512,374.936 L286.744512,398 L299.037757,398 L299.037757,390.777 L313.581878,390.777 Z M299.037757,380.702 L312.110152,380.702 C315.010319,380.702 316.179043,381.477 316.179043,382.81 L316.179043,382.903 C316.179043,384.174 314.923746,385.011 312.110152,385.011 L299.037757,385.011 L299.037757,380.702 Z M347.124821,380.547 L361.236081,380.547 C364.006389,380.547 364.958683,381.415 364.958683,382.5 L364.958683,382.531 C364.958683,383.647 363.963103,384.515 361.236081,384.515 L347.124821,384.515 L347.124821,380.547 Z M347.124821,390.095 L358.898633,390.095 C363.746673,390.095 365.43483,391.459 365.43483,394.094 L365.43483,396.791 C365.43483,397.442 365.521402,397.752 365.824404,398 L378.377366,398 L378.377366,397.845 C378.074363,397.442 377.771361,396.853 377.771361,395.241 L377.771361,391.831 C377.771361,388.855 375.13091,386.995 371.148591,386.344 C373.572612,385.941 377.641502,384.546 377.641502,381.198 L377.641502,380.857 C377.641502,377.106 373.486039,374.936 364.092961,374.936 L334.831576,374.936 L334.831576,398 L347.124821,398 L347.124821,390.095 Z M396.770182,398 L409.063427,398 L409.063427,389.382 L426.291285,374.936 L412.829316,374.936 L403.263093,382.903 L393.870015,374.936 L379.15275,374.936 L396.770182,389.32 L396.770182,398 Z M430.702699,374.936 L430.702699,398 L442.909372,398 L442.909372,384.019 L463.080683,398 L475.373927,398 L475.373927,374.936 L463.167255,374.936 L463.167255,388.049 L444.467671,374.936 L430.702699,374.936 Z M506.103275,398.434 C525.495436,398.434 528.525461,391.924 528.525461,388.917 L528.525461,388.421 L515.799356,388.421 C515.626211,388.948 514.673918,392.203 505.194268,392.203 C496.537053,392.203 494.372749,388.948 494.372749,386.468 L494.372749,386.096 C494.372749,383.523 496.277336,380.702 505.150981,380.702 C514.500773,380.702 515.496353,383.616 515.75607,384.236 L528.525461,384.236 L528.525461,383.833 C528.525461,380.857 525.66858,374.502 506.103275,374.502 L504.415118,374.502 C484.33038,374.502 481.646643,381.539 481.646643,385.941 L481.646643,386.84 C481.646643,391.211 484.633383,398.434 504.415118,398.434 L506.103275,398.434 Z M534.668319,374.936 L534.668319,398 L570.639046,398 L570.639046,392.234 L546.78842,392.234 L546.78842,389.072 L569.816611,389.072 L569.816611,383.461 L546.78842,383.461 L546.78842,380.578 L570.292758,380.578 L570.292758,374.936 L534.668319,374.936 Z M593.74628,398 L605.736523,398 L605.736523,383.616 L616.990902,398 L623.267383,398 L634.565048,383.616 L634.565048,398 L646.728434,398 L646.728434,374.936 L630.539443,374.936 L620.497074,387.894 L610.627849,374.936 L593.74628,374.936 L593.74628,398 Z M666.333261,374.936 L654.083302,374.936 L654.083302,398 L666.333261,398 L666.333261,374.936 Z M673.688129,374.936 L673.688129,398 L685.894802,398 L685.894802,384.019 L706.066112,398 L718.359357,398 L718.359357,374.936 L706.152684,374.936 L706.152684,388.049 L687.4531,374.936 L673.688129,374.936 Z M737.964184,374.936 L725.714225,374.936 L725.714225,398 L737.964184,398 L737.964184,374.936 Z M340.956555,430.434 C357.88141,430.434 360.911435,426.466 360.911435,422.591 L360.911435,422.157 C360.911435,417.507 356.149967,415.461 343.900008,415.213 L338.099674,415.12 C332.039624,415.027 331.08733,414.283 331.08733,413.353 L331.08733,413.322 C331.08733,412.423 331.736621,411.617 338.186246,411.617 L338.619107,411.617 C345.588165,411.617 346.280742,413.229 346.4106,414.066 L359.785997,414.066 L359.785997,413.818 C359.785997,410.16 356.149967,406.533 340.220692,406.533 L336.368231,406.533 C321.347964,406.533 317.841792,409.819 317.841792,413.57 L317.841792,413.849 C317.841792,417.414 321.174819,420.545 333.641209,420.793 L339.614687,420.917 C346.367314,421.072 347.18975,421.816 347.18975,422.994 L347.18975,423.025 C347.18975,424.141 346.19417,425.195 339.311684,425.195 L338.92211,425.195 C331.909766,425.195 331.000758,423.18 330.8709,421.94 L317.365645,421.94 L317.365645,422.25 C317.365645,425.257 319.226946,430.434 337.017522,430.434 L340.956555,430.434 Z M366.881148,406.936 L366.881148,430 L401.510007,430 L401.510007,423.397 L379.174393,423.397 L379.174393,406.936 L366.881148,406.936 Z M429.295902,406.502 C408.432015,406.502 405.791564,413.601 405.791564,417.941 L405.791564,418.871 C405.791564,423.18 408.432015,430.434 429.295902,430.434 L431.243775,430.434 C452.064377,430.434 454.704827,423.18 454.704827,418.871 L454.704827,417.941 C454.704827,413.601 452.021091,406.502 431.243775,406.502 L429.295902,406.502 Z M441.978722,418.592 C441.978722,421.072 439.771132,424.203 430.248196,424.203 C420.725259,424.203 418.51767,420.948 418.51767,418.53 L418.51767,418.158 C418.51767,415.709 420.552115,412.702 430.248196,412.702 C439.771132,412.702 441.978722,415.709 441.978722,418.158 L441.978722,418.592 Z M483.919162,430 L490.412073,415.43 L497.121415,430 L511.362533,430 L523.915494,406.936 L511.319247,406.936 L504.220331,421.909 L497.684134,406.936 L483.83259,406.936 L477.382965,422.157 L470.067619,406.936 L456.389219,406.936 L468.942181,430 L483.919162,430 Z M557.887533,430 L570.180778,430 L570.180778,413.229 L584.075607,413.229 L584.075607,406.936 L543.992703,406.936 L543.992703,413.229 L557.887533,413.229 L557.887533,430 Z M590.478182,430 L602.771427,430 L602.771427,421.227 L622.899451,421.227 L622.899451,430 L635.14941,430 L635.14941,406.936 L622.899451,406.936 L622.899451,415.089 L602.771427,415.089 L602.771427,406.936 L590.478182,406.936 L590.478182,430 Z M669.125213,420.514 L658.433553,420.514 L663.714454,412.578 L669.125213,420.514 Z M675.574838,430 L689.036807,430 L672.198524,406.936 L655.663244,406.936 L639.733969,430 L652.200358,430 L654.667664,426.28 L673.064246,426.28 L675.574838,430 Z M705.871325,406.936 L693.621366,406.936 L693.621366,430 L705.871325,430 L705.871325,406.936 Z" id="K9-KILLA-P-PRYNCE-MI"></path>
        </g>
    </g>
</svg>