<?xml version="1.0" standalone="no"?>
<!DOCTYPE svg PUBLIC "-//W3C//DTD SVG 1.1//EN" "http://www.w3.org/Graphics/SVG/1.1/DTD/svg11.dtd" >
<svg xmlns="http://www.w3.org/2000/svg" width="100%" height="100%">
<metadata>
Created by FontXChange 20110222 at Sat Dec 30 15:43:57 2017
 By jasecoop
Copyright (c) 2007 by HypeForType: Canada Type. All rights reserved.
</metadata>
<defs>
<font id="Miedi" horiz-adv-x="230" >
  <font-face 
    font-family="Miedi"
    font-weight="400"
    font-stretch="normal"
    units-per-em="1000"
    panose-1="2 0 5 7 8 0 0 2 0 4"
    ascent="800"
    descent="-200"
    x-height="700"
    cap-height="700"
    bbox="-120 -251 2137 940"
    underline-thickness="50"
    underline-position="-50"
    unicode-range="U+0020-FB02"
  />
<missing-glyph horiz-adv-x="450" 
 />
    <glyph glyph-name=".notdef" horiz-adv-x="450" 
 />
    <glyph glyph-name=".null" horiz-adv-x="0" 
 />
    <glyph glyph-name="CR" horiz-adv-x="450" 
 />
    <glyph glyph-name="space" unicode=" " horiz-adv-x="450" 
 />
    <glyph glyph-name="E" unicode="E" horiz-adv-x="1070" 
d="M1045 620h-885v-230h823v-80h-823v-230h885v-80h-975v700h975v-80z" />
    <glyph glyph-name="F" unicode="F" horiz-adv-x="999" 
d="M989 620h-829v-260h767v-80h-767v-280h-90v700h919v-80z" />
    <glyph glyph-name="G" unicode="G" horiz-adv-x="1173" 
d="M729 632h-304c-161 0 -305 -83 -305 -283s144 -282 305 -282h354c106 0 174 10 243 199h-479v84h575v-350h-67l-13 124c-32 -88 -107 -134 -234 -134h-384c-280 0 -390 168 -390 358c0 189 110 362 390 362h314c204 0 314 -90 362 -210h-99c-53 91 -156 132 -268 132z
" />
    <glyph glyph-name="H" unicode="H" horiz-adv-x="1224" 
d="M1064 0v314h-904v-314h-90v700h90v-306h904v306h90v-700h-90z" />
    <glyph glyph-name="I" unicode="I" 
d="M70 0v700h90v-700h-90z" />
    <glyph glyph-name="J" unicode="J" horiz-adv-x="1012" 
d="M567 -10h-161c-235 0 -349 103 -381 260h92c37 -140 161 -183 294 -183h151c161 0 305 62 305 282v351h90v-352c0 -210 -110 -358 -390 -358z" />
    <glyph glyph-name="K" unicode="K" horiz-adv-x="805" 
d="M638 700h154l-571 -318l619 -382h-162l-528 331v-331h-80v700h80v-275z" />
    <glyph glyph-name="L" unicode="L" horiz-adv-x="1015" 
d="M160 80h845v-80h-935v700h90v-620z" />
    <glyph glyph-name="M" unicode="M" horiz-adv-x="1277" 
d="M160 0h-90v700h116l454 -574l446 574h121v-700h-90v587l-455 -587h-41l-461 586v-586z" />
    <glyph glyph-name="N" unicode="N" horiz-adv-x="1080" 
d="M1010 700v-700h-110l-740 604v-604h-90v701h116l734 -599v598h90z" />
    <glyph glyph-name="O" unicode="O" horiz-adv-x="1196" 
d="M776 -10h-356c-280 0 -390 168 -390 358c0 189 110 362 390 362h356c280 0 390 -173 390 -362c0 -190 -110 -358 -390 -358zM771 632h-346c-161 0 -305 -83 -305 -283s144 -282 305 -282h346c161 0 305 82 305 282s-144 283 -305 283z" />
    <glyph glyph-name="P" unicode="P" horiz-adv-x="1082" 
d="M70 0v701h668c229 0 324 -89 324 -263c0 -152 -93 -258 -322 -258h-580v-180h-90zM160 620v-360h604c71 0 208 16 208 179c0 164 -137 181 -208 181h-604z" />
    <glyph glyph-name="Q" unicode="Q" horiz-adv-x="1196" 
d="M776 -10h-356c-280 0 -390 168 -390 358c0 189 110 362 390 362h356c280 0 390 -173 390 -362c0 -125 -47 -238 -157 -303l160 -170h-104l-130 137c-45 -15 -98 -22 -159 -22zM691 273h104l154 -164c75 43 127 120 127 240c0 200 -144 283 -305 283h-346
c-161 0 -305 -83 -305 -283s144 -282 305 -282h346c35 0 69 4 102 12z" />
    <glyph glyph-name="R" unicode="R" horiz-adv-x="1096" 
d="M941 337c88 -27 126 -89 127 -168c0 -104 12 -134 28 -169h-90c-23 51 -26 100 -26 151c0 89 -78 139 -162 139h-658v-290h-90v701h666c229 0 322 -41 322 -205c0 -65 -30 -127 -117 -159zM160 620v-250h602c71 0 208 12 208 124c0 123 -137 126 -208 126h-602z" />
    <glyph glyph-name="S" unicode="S" horiz-adv-x="1081" 
d="M307 79h479c107 0 176 24 176 116c0 93 -68 115 -175 115h-468c-156 0 -278 31 -278 196c0 167 123 194 279 194h435c203 0 256 -90 283 -210h-99c-32 92 -78 131 -189 131h-439c-107 0 -176 -24 -176 -116c0 -94 68 -114 175 -114h468c156 0 278 -32 278 -197
c0 -167 -123 -194 -279 -194h-475c-202 0 -255 90 -282 210h99c32 -92 77 -131 188 -131z" />
    <glyph glyph-name="T" unicode="T" horiz-adv-x="1023" 
d="M1013 620h-456v-620h-90v620h-457v80h1003v-80z" />
    <glyph glyph-name="U" unicode="U" horiz-adv-x="1191" 
d="M746 -10h-301c-280 0 -390 148 -390 358v352h90v-351c0 -220 144 -282 305 -282h291c161 0 305 62 305 282v351h90v-352c0 -210 -110 -358 -390 -358z" />
    <glyph glyph-name="V" unicode="V" horiz-adv-x="903" 
d="M943 700l-431 -700h-121l-431 700h96l399 -625l382 625h106z" />
    <glyph glyph-name="W" unicode="W" horiz-adv-x="1296" 
d="M373 75l222 625h106l222 -625l277 625h96l-309 -700h-121l-218 583l-218 -583h-121l-309 700h96z" />
    <glyph glyph-name="X" unicode="X" horiz-adv-x="863" 
d="M91 700l340 -296l341 296h126l-403 -351l403 -349h-128l-339 294l-338 -294h-128l403 349l-403 351h126z" />
    <glyph glyph-name="Y" unicode="Y" horiz-adv-x="900" 
d="M405 0v231l-445 469h121l369 -387l369 387h121l-445 -469v-231h-90z" />
    <glyph glyph-name="Z" unicode="Z" horiz-adv-x="1043" 
d="M1001 633l-815 -553h837v-80h-1003v73l808 547h-785v80h958v-67z" />
    <glyph glyph-name="dagger" unicode="&#x2020;" horiz-adv-x="836" 
d="M50 425v89h323v186h90v-186h323v-89h-323v-676h-90v676h-323z" />
    <glyph glyph-name="daggerdbl" unicode="&#x2021;" horiz-adv-x="836" 
d="M50 425v89h323v186h90v-186h323v-89h-323v-336h323v-89h-323v-250h-90v250h-323v89h323v336h-323z" />
    <glyph glyph-name="OE" unicode="&#x152;" horiz-adv-x="2076" 
d="M2051 620h-885v-230h823v-80h-823v-230h885v-80h-975v98c-64 -67 -159 -108 -300 -108h-356c-280 0 -390 168 -390 358c0 189 110 362 390 362h356c141 0 236 -42 300 -110v100h975v-80zM771 632h-346c-161 0 -305 -83 -305 -283s144 -282 305 -282h346
c161 0 305 82 305 282s-144 283 -305 283z" />
    <glyph glyph-name="oe" unicode="&#x153;" horiz-adv-x="2076" 
d="M2051 620h-885v-230h823v-80h-823v-230h885v-80h-975v98c-64 -67 -159 -108 -300 -108h-356c-280 0 -390 168 -390 358c0 189 110 362 390 362h356c141 0 236 -42 300 -110v100h975v-80zM771 632h-346c-161 0 -305 -83 -305 -283s144 -282 305 -282h346
c161 0 305 82 305 282s-144 283 -305 283z" />
    <glyph glyph-name="a" unicode="a" horiz-adv-x="963" 
d="M542 700l451 -700h-106l-100 155h-617l-104 -155h-96l451 700h121zM485 625l-265 -395h519z" />
    <glyph glyph-name="b" unicode="b" horiz-adv-x="1135" 
d="M70 0v700h777c147 0 223 -72 223 -185c0 -62 -43 -132 -97 -156c92 -24 122 -100 122 -152c0 -137 -60 -207 -219 -207h-806zM160 309v-229h721c108 0 120 87 120 115c0 27 -12 114 -120 114h-721zM160 619v-229h696c108 0 120 87 120 115c0 27 -12 114 -120 114h-696z
" />
    <glyph glyph-name="c" unicode="c" horiz-adv-x="1131" 
d="M729 632h-304c-161 0 -305 -83 -305 -283s144 -282 305 -282h304c116 0 223 43 274 142h98c-46 -126 -158 -219 -367 -219h-314c-280 0 -390 168 -390 358c0 189 110 362 390 362h314c204 0 314 -90 362 -210h-99c-53 91 -156 132 -268 132z" />
    <glyph glyph-name="d" unicode="d" horiz-adv-x="1181" 
d="M70 0v700h691c280 0 390 -163 390 -352c0 -190 -110 -348 -390 -348h-691zM756 622h-596v-545h596c161 0 305 72 305 272s-144 273 -305 273z" />
    <glyph glyph-name="e" unicode="e" horiz-adv-x="1070" 
d="M1045 620h-885v-230h823v-80h-823v-230h885v-80h-975v700h975v-80z" />
    <glyph glyph-name="f" unicode="f" horiz-adv-x="999" 
d="M989 620h-829v-260h767v-80h-767v-280h-90v700h919v-80z" />
    <glyph glyph-name="g" unicode="g" horiz-adv-x="1173" 
d="M729 632h-304c-161 0 -305 -83 -305 -283s144 -282 305 -282h354c106 0 174 10 243 199h-479v84h575v-350h-67l-13 124c-32 -88 -107 -134 -234 -134h-384c-280 0 -390 168 -390 358c0 189 110 362 390 362h314c204 0 314 -90 362 -210h-99c-53 91 -156 132 -268 132z
" />
    <glyph glyph-name="h" unicode="h" horiz-adv-x="1224" 
d="M1064 0v314h-904v-314h-90v700h90v-306h904v306h90v-700h-90z" />
    <glyph glyph-name="i" unicode="i" 
d="M70 0v700h90v-700h-90z" />
    <glyph glyph-name="j" unicode="j" horiz-adv-x="1012" 
d="M567 -10h-161c-235 0 -349 103 -381 260h92c37 -140 161 -183 294 -183h151c161 0 305 62 305 282v351h90v-352c0 -210 -110 -358 -390 -358z" />
    <glyph glyph-name="k" unicode="k" horiz-adv-x="805" 
d="M638 700h154l-571 -318l619 -382h-162l-528 331v-331h-80v700h80v-275z" />
    <glyph glyph-name="l" unicode="l" horiz-adv-x="1015" 
d="M160 80h845v-80h-935v700h90v-620z" />
    <glyph glyph-name="m" unicode="m" horiz-adv-x="1277" 
d="M160 0h-90v700h116l454 -574l446 574h121v-700h-90v587l-455 -587h-41l-461 586v-586z" />
    <glyph glyph-name="n" unicode="n" horiz-adv-x="1080" 
d="M1010 700v-700h-110l-740 604v-604h-90v701h116l734 -599v598h90z" />
    <glyph glyph-name="o" unicode="o" horiz-adv-x="1196" 
d="M776 -10h-356c-280 0 -390 168 -390 358c0 189 110 362 390 362h356c280 0 390 -173 390 -362c0 -190 -110 -358 -390 -358zM771 632h-346c-161 0 -305 -83 -305 -283s144 -282 305 -282h346c161 0 305 82 305 282s-144 283 -305 283z" />
    <glyph glyph-name="p" unicode="p" horiz-adv-x="1082" 
d="M70 0v701h668c229 0 324 -89 324 -263c0 -152 -93 -258 -322 -258h-580v-180h-90zM160 620v-360h604c71 0 208 16 208 179c0 164 -137 181 -208 181h-604z" />
    <glyph glyph-name="q" unicode="q" horiz-adv-x="1196" 
d="M776 -10h-356c-280 0 -390 168 -390 358c0 189 110 362 390 362h356c280 0 390 -173 390 -362c0 -125 -47 -238 -157 -303l160 -170h-104l-130 137c-45 -15 -98 -22 -159 -22zM691 273h104l154 -164c75 43 127 120 127 240c0 200 -144 283 -305 283h-346
c-161 0 -305 -83 -305 -283s144 -282 305 -282h346c35 0 69 4 102 12z" />
    <glyph glyph-name="r" unicode="r" horiz-adv-x="1096" 
d="M941 337c88 -27 126 -89 127 -168c0 -104 12 -134 28 -169h-90c-23 51 -26 100 -26 151c0 89 -78 139 -162 139h-658v-290h-90v701h666c229 0 322 -41 322 -205c0 -65 -30 -127 -117 -159zM160 620v-250h602c71 0 208 12 208 124c0 123 -137 126 -208 126h-602z" />
    <glyph glyph-name="s" unicode="s" horiz-adv-x="1081" 
d="M307 79h479c107 0 176 24 176 116c0 93 -68 115 -175 115h-468c-156 0 -278 31 -278 196c0 167 123 194 279 194h435c203 0 256 -90 283 -210h-99c-32 92 -78 131 -189 131h-439c-107 0 -176 -24 -176 -116c0 -94 68 -114 175 -114h468c156 0 278 -32 278 -197
c0 -167 -123 -194 -279 -194h-475c-202 0 -255 90 -282 210h99c32 -92 77 -131 188 -131z" />
    <glyph glyph-name="t" unicode="t" horiz-adv-x="1023" 
d="M1013 620h-456v-620h-90v620h-457v80h1003v-80z" />
    <glyph glyph-name="u" unicode="u" horiz-adv-x="1191" 
d="M746 -10h-301c-280 0 -390 148 -390 358v352h90v-351c0 -220 144 -282 305 -282h291c161 0 305 62 305 282v351h90v-352c0 -210 -110 -358 -390 -358z" />
    <glyph glyph-name="v" unicode="v" horiz-adv-x="903" 
d="M943 700l-431 -700h-121l-431 700h96l399 -625l382 625h106z" />
    <glyph glyph-name="w" unicode="w" horiz-adv-x="1296" 
d="M373 75l222 625h106l222 -625l277 625h96l-309 -700h-121l-218 583l-218 -583h-121l-309 700h96z" />
    <glyph glyph-name="x" unicode="x" horiz-adv-x="863" 
d="M91 700l340 -296l341 296h126l-403 -351l403 -349h-128l-339 294l-338 -294h-128l403 349l-403 351h126z" />
    <glyph glyph-name="y" unicode="y" horiz-adv-x="900" 
d="M405 0v231l-445 469h121l369 -387l369 387h121l-445 -469v-231h-90z" />
    <glyph glyph-name="z" unicode="z" horiz-adv-x="1043" 
d="M1001 633l-815 -553h837v-80h-1003v73l808 547h-785v80h958v-67z" />
    <glyph glyph-name="fi" unicode="&#xfb01;" horiz-adv-x="1229" 
d="M989 620h-829v-260h767v-80h-767v-280h-90v700h919v-80zM1069 0v700h90v-700h-90z" />
    <glyph glyph-name="fl" unicode="&#xfb02;" horiz-adv-x="2014" 
d="M989 620h-829v-260h767v-80h-767v-280h-90v700h919v-80zM1159 80h845v-80h-935v700h90v-620z" />
    <glyph glyph-name="breve" unicode="&#x2d8;" horiz-adv-x="582" 
d="M400 857h62c-13 -78 -98 -107 -171 -107c-78 0 -155 28 -171 107h62c12 -32 44 -43 109 -43c67 0 94 14 109 43z" />
    <glyph glyph-name="dotaccent" unicode="&#x2d9;" horiz-adv-x="192" 
d="M50 750v82h92v-82h-92z" />
    <glyph glyph-name="ring" unicode="&#x2da;" horiz-adv-x="376" 
d="M86 838c0 56 46 102 102 102s102 -46 102 -102s-46 -102 -102 -102s-102 46 -102 102zM131 838c0 -32 25 -57 57 -57s57 25 57 57s-25 57 -57 57s-57 -25 -57 -57z" />
    <glyph glyph-name="hungarumlaut" unicode="&#x2dd;" horiz-adv-x="533" 
d="M324 894l-153 -144h-81l91 144h143zM523 894l-153 -144h-81l91 144h143z" />
    <glyph glyph-name="ogonek" unicode="&#x2db;" horiz-adv-x="382" 
d="M270 3h42c-77 -35 -110 -64 -110 -101c0 -27 17 -43 66 -43c15 0 38 3 59 11l5 -22c-25 -11 -72 -21 -115 -21c-51 0 -97 15 -97 55c0 55 58 100 150 121z" />
    <glyph glyph-name="caron" unicode="&#x2c7;" horiz-adv-x="468" 
d="M201 750l-151 144h120l68 -76l68 76h112l-140 -144h-77z" />
    <glyph glyph-name="dotlessi" unicode="&#x131;" 
d="M70 0v700h90v-700h-90z" />
    <glyph glyph-name="fraction" unicode="&#x2044;" horiz-adv-x="280" 
d="M383 700l-387 -700h-68l387 700h68z" />
    <glyph glyph-name="Lslash" unicode="&#x141;" horiz-adv-x="1015" 
d="M0 247v69l70 18v366h90v-342l240 64v-69l-240 -64v-209h845v-80h-935v265z" />
    <glyph glyph-name="lslash" unicode="&#x142;" horiz-adv-x="1015" 
d="M0 247v69l70 18v366h90v-342l240 64v-69l-240 -64v-209h845v-80h-935v265z" />
    <glyph glyph-name="D" unicode="D" horiz-adv-x="1181" 
d="M70 0v700h691c280 0 390 -163 390 -352c0 -190 -110 -348 -390 -348h-691zM756 622h-596v-545h596c161 0 305 72 305 272s-144 273 -305 273z" />
    <glyph glyph-name="exclam" unicode="!" horiz-adv-x="242" 
d="M90 150l-20 550h102l-20 -550h-62zM75 0v80h90v-80h-90z" />
    <glyph glyph-name="quotedbl" unicode="&#x22;" horiz-adv-x="250" 
d="M30 452l-20 348h88l-20 -348h-48zM172 452l-20 348h88l-20 -348h-48z" />
    <glyph glyph-name="numbersign" unicode="#" horiz-adv-x="659" 
d="M279 700l-27 -192h221l27 192h79l-27 -192h93v-66h-103l-25 -183h99v-66h-108l-27 -193h-79l27 193h-221l-27 -193h-79l27 193h-104v66h113l25 183h-109v66h119l27 192h79zM242 442l-25 -183h221l25 183h-221z" />
    <glyph glyph-name="dollar" unicode="$" horiz-adv-x="1084" 
d="M566 800v-100h189c203 0 256 -90 283 -210h-99c-32 92 -78 131 -189 131h-184v-230h212c156 0 278 -32 278 -197c0 -167 -123 -194 -279 -194h-211v-100h-50v100h-214c-202 0 -255 90 -282 210h99c32 -92 77 -131 188 -131h209v231h-197c-156 0 -278 31 -278 196
c0 167 123 194 279 194h196v100h50zM787 310h-221v-231h220c107 0 176 24 176 116c0 93 -68 115 -175 115zM135 505c0 -94 68 -114 175 -114h206v230h-205c-107 0 -176 -24 -176 -116z" />
    <glyph glyph-name="percent" unicode="%" horiz-adv-x="1105" 
d="M481 495c0 -140 -93 -215 -216 -215c-121 0 -215 94 -215 215c0 120 94 216 215 216c123 0 216 -93 216 -216zM265 347c82 0 149 47 149 148c0 82 -65 149 -149 149c-83 0 -148 -65 -148 -149c0 -83 65 -148 148 -148zM786 700l-387 -700h-68l387 700h68zM1055 205
c0 -140 -93 -215 -216 -215c-121 0 -215 94 -215 215c0 120 94 216 215 216c123 0 216 -93 216 -216zM839 57c82 0 149 47 149 148c0 82 -65 149 -149 149c-83 0 -148 -65 -148 -149c0 -83 65 -148 148 -148z" />
    <glyph glyph-name="ampersand" unicode="&#x26;" horiz-adv-x="986" 
d="M708 490h-99c-11 92 -78 142 -191 142h-156c-57 0 -125 -23 -125 -115c0 -83 69 -118 145 -118h696v-76h-33c2 -19 3 -38 3 -55c0 -216 -131 -278 -320 -278h-341c-169 0 -249 110 -249 207c0 52 20 148 112 172c-54 24 -97 94 -97 156c0 112 67 185 233 185h137
c202 0 264 -100 285 -220zM120 195c0 -84 69 -127 145 -127h401c101 0 194 33 194 212c0 13 -1 28 -2 43h-593c-76 0 -145 -47 -145 -128z" />
    <glyph glyph-name="quotesingle" unicode="'" horiz-adv-x="108" 
d="M30 452l-20 348h88l-20 -348h-48z" />
    <glyph glyph-name="parenleft" unicode="(" horiz-adv-x="282" 
d="M227 799h55c-78 -110 -152 -332 -152 -500s75 -390 152 -499h-55c-106 98 -187 315 -187 499s81 402 187 500z" />
    <glyph glyph-name="parenright" unicode=")" horiz-adv-x="282" 
d="M0 799h55c106 -98 187 -316 187 -500s-81 -401 -187 -499h-55c77 109 152 331 152 499s-74 390 -152 500z" />
    <glyph glyph-name="asterisk" unicode="*" horiz-adv-x="330" 
d="M33 656l111 -43l-10 107h62l-10 -107l114 42l20 -64l-119 -27l85 -106l-59 -34l-64 108l-68 -106l-55 37l87 101l-117 30z" />
    <glyph glyph-name="plus" unicode="+" horiz-adv-x="601" 
d="M59 393h196v197h90v-197h197v-90h-197v-196h-90v196h-196v90z" />
    <glyph glyph-name="comma" unicode="," 
d="M70 0v80h90v-83c0 -71 -18 -95 -90 -95v27c39 0 54 8 54 57v14h-54z" />
    <glyph glyph-name="hyphen" unicode="-" horiz-adv-x="481" 
d="M59 304v90h363v-90h-363z" />
    <glyph glyph-name="period" unicode="." 
d="M70 0v80h90v-80h-90z" />
    <glyph glyph-name="slash" unicode="/" horiz-adv-x="505" 
d="M0 -100l424 900h80l-424 -900h-80z" />
    <glyph glyph-name="zero" unicode="0" horiz-adv-x="993" 
d="M956 485v-267c0 -172 -73 -223 -217 -223h-484c-144 0 -217 51 -217 223v267c0 167 76 220 217 220h484c141 0 217 -53 217 -220zM128 509v-320c0 -91 39 -114 133 -114h472c94 0 133 23 133 114v320c0 87 -42 115 -133 115h-472c-91 0 -133 -28 -133 -115z" />
    <glyph glyph-name="one" unicode="1" horiz-adv-x="501" 
d="M284 0v562c-67 -62 -188 -67 -219 -67v72c27 0 168 28 249 133h60v-700h-90z" />
    <glyph glyph-name="two" unicode="2" horiz-adv-x="980" 
d="M30 0v50c0 380 815 245 815 438c0 117 -107 134 -351 134h-95c-211 0 -231 -38 -258 -134h-91c21 122 76 212 294 212h246c284 0 342 -119 342 -212c0 -282 -812 -138 -812 -408h819v-80h-909z" />
    <glyph glyph-name="three" unicode="3" horiz-adv-x="988" 
d="M151 490h-99c27 120 80 210 282 210h368c165 0 233 -63 233 -175c0 -62 -43 -132 -97 -156c92 -24 112 -119 112 -172c0 -97 -80 -197 -249 -197h-379c-202 0 -255 90 -282 210h99c13 -92 75 -132 188 -132h396c76 0 145 34 145 117c0 81 -69 128 -145 128h-356v76h339
c76 0 145 35 145 118c0 91 -68 105 -125 105h-387c-113 0 -175 -40 -188 -132z" />
    <glyph glyph-name="four" unicode="4" horiz-adv-x="908" 
d="M874 198h-119v-198h-90v198h-624v77l624 425h90v-422h119v-80zM168 278h497v328z" />
    <glyph glyph-name="five" unicode="5" horiz-adv-x="982" 
d="M688 377h-413c-54 0 -124 -18 -145 -94h-87l55 417h809v-78h-748l-28 -219c33 45 72 52 100 52h463c141 0 245 -57 245 -225v-7c0 -172 -101 -228 -245 -228h-404c-144 0 -247 50 -247 213v7h91v-4c0 -110 86 -138 151 -138h403c85 0 161 33 161 153
c0 122 -81 151 -161 151z" />
    <glyph glyph-name="six" unicode="6" horiz-adv-x="1004" 
d="M688 622h-408c-94 0 -141 -41 -141 -122v-107c33 45 72 52 100 52h471c141 0 245 -53 245 -220v-7c0 -172 -101 -223 -245 -223h-414c-144 0 -247 51 -247 223v268c0 168 107 214 247 214h377c205 0 260 -87 276 -211h-90c-13 101 -74 133 -171 133zM704 367h-413
c-64 0 -151 -23 -151 -146c0 -121 86 -148 151 -148h413c85 0 161 27 161 148c0 123 -81 146 -161 146z" />
    <glyph glyph-name="seven" unicode="7" horiz-adv-x="757" 
d="M29 620v80h699v-100c-264 -146 -442 -416 -466 -600h-90c11 121 157 434 458 620h-601z" />
    <glyph glyph-name="eight" unicode="8" horiz-adv-x="980" 
d="M703 -10h-426c-169 0 -239 110 -239 207c0 52 20 148 112 172c-54 24 -97 94 -97 156c0 102 57 185 223 185h428c165 0 223 -73 223 -185c0 -62 -43 -132 -97 -156c92 -24 112 -119 112 -172c0 -97 -70 -207 -239 -207zM715 323h-450c-76 0 -145 -47 -145 -128
c0 -84 69 -124 145 -124h450c76 0 145 40 145 124c0 81 -69 128 -145 128zM718 631h-456c-57 0 -125 -23 -125 -114c0 -83 69 -118 145 -118h416c76 0 145 35 145 118c0 91 -68 114 -125 114z" />
    <glyph glyph-name="nine" unicode="9" horiz-adv-x="1004" 
d="M316 73h408c94 0 141 41 141 122v107c-33 -45 -72 -52 -100 -52h-471c-141 0 -245 51 -245 220v7c0 172 101 223 245 223h414c144 0 247 -51 247 -223v-268c0 -168 -107 -214 -247 -214h-377c-205 0 -260 87 -276 211h90c11 -101 76 -133 171 -133zM300 328h413
c64 0 151 23 151 146c0 119 -86 148 -151 148h-413c-85 0 -161 -29 -161 -148c0 -123 81 -146 161 -146z" />
    <glyph glyph-name="colon" unicode=":" 
d="M70 0v80h90v-80h-90zM70 360v80h90v-80h-90z" />
    <glyph glyph-name="semicolon" unicode=";" 
d="M70 360v80h90v-80h-90zM70 0v80h90v-83c0 -71 -18 -95 -90 -95v27c39 0 54 8 54 57v14h-54z" />
    <glyph glyph-name="less" unicode="&#x3c;" horiz-adv-x="541" 
d="M408 0l-383 332v33l385 335h131l-403 -351l403 -349h-133z" />
    <glyph glyph-name="equal" unicode="=" horiz-adv-x="681" 
d="M59 440v90h563v-90h-563zM59 171v90h563v-90h-563z" />
    <glyph glyph-name="greater" unicode="&#x3e;" horiz-adv-x="541" 
d="M516 332l-383 -332h-133l403 349l-403 351h131l385 -335v-33z" />
    <glyph glyph-name="question" unicode="?" horiz-adv-x="955" 
d="M411 168h-90c37 261 506 167 506 350c0 88 -92 104 -336 104h-112c-210 0 -230 -38 -257 -134h-92c21 122 76 212 294 212h263c284 0 327 -110 327 -182c0 -253 -492 -167 -503 -350zM322 0v80h90v-80h-90z" />
    <glyph glyph-name="at" unicode="@" horiz-adv-x="1195" 
d="M30 348c0 192 103 362 387 362h358c280 0 390 -173 390 -362c0 -190 -110 -358 -390 -358h-358c-284 0 -387 166 -387 358zM945 131l-307 476h-82l-306 -476h65l70 105h420l68 -105h72zM419 287l180 269l173 -269h-353z" />
    <glyph glyph-name="bracketleft" unicode="[" horiz-adv-x="330" 
d="M160 -100h140v-100h-230v1000h230v-100h-140v-800z" />
    <glyph glyph-name="backslash" unicode="\" horiz-adv-x="505" 
d="M80 800l424 -900h-80l-424 900h80z" />
    <glyph glyph-name="bracketright" unicode="]" horiz-adv-x="330" 
d="M30 -100h140v800h-140v100h230v-1000h-230v100z" />
    <glyph glyph-name="asciicircum" unicode="^" horiz-adv-x="1082" 
d="M70 0v701h668c229 0 324 -89 324 -263c0 -152 -93 -258 -322 -258h-580v-180h-90z" />
    <glyph glyph-name="underscore" unicode="_" horiz-adv-x="563" 
d="M0 -46v90h563v-90h-563z" />
    <glyph glyph-name="grave" unicode="`" horiz-adv-x="372" 
d="M211 750l-153 144h143l91 -144h-81z" />
    <glyph glyph-name="braceleft" unicode="{" horiz-adv-x="301" 
d="M20 282v38c52 0 80 14 80 94v245c0 91 58 141 143 141h38v-79h-33c-43 0 -58 -23 -58 -62v-246c0 -77 -18 -104 -78 -113c60 -7 78 -34 78 -111v-247c0 -39 15 -62 58 -62h33v-80h-38c-85 0 -143 50 -143 141v247c0 80 -28 94 -80 94z" />
    <glyph glyph-name="bar" unicode="|" 
d="M70 -200v1000h90v-1000h-90z" />
    <glyph glyph-name="braceright" unicode="}" horiz-adv-x="301" 
d="M281 320v-38c-52 0 -80 -14 -80 -94v-247c0 -91 -58 -141 -143 -141h-38v80h33c43 0 58 23 58 62v247c0 77 18 104 78 111c-60 9 -78 36 -78 113v246c0 39 -15 62 -58 62h-33v79h38c85 0 143 -50 143 -141v-245c0 -80 28 -94 80 -94z" />
    <glyph glyph-name="asciitilde" unicode="~" horiz-adv-x="1096" 
d="M941 337c88 -27 126 -89 127 -168c0 -104 12 -134 28 -169h-90c-23 51 -26 100 -26 151c0 89 -78 139 -162 139h-658v-290h-90v701h666c229 0 322 -41 322 -205c0 -65 -30 -127 -117 -159z" />
    <glyph glyph-name="Euro" unicode="&#x20ac;" horiz-adv-x="1191" 
d="M789 632h-304c-126 0 -239 -50 -285 -166h708l-20 -68h-705c-2 -16 -3 -32 -3 -49c0 -16 1 -30 2 -45h682l-20 -67h-646c42 -119 161 -170 287 -170h304c116 0 223 43 274 142h98c-46 -126 -158 -219 -367 -219h-314c-224 0 -339 107 -376 247h-134l20 67h102
c-3 15 -2 29 -2 44c0 16 1 33 3 50h-83l20 68h75c40 139 155 244 375 244h314c204 0 314 -90 362 -210h-99c-53 91 -156 132 -268 132z" />
    <glyph glyph-name="quotesinglbase" unicode="&#x201a;" 
d="M70 0v80h90v-83c0 -71 -18 -95 -90 -95v27c39 0 54 8 54 57v14h-54z" />
    <glyph glyph-name="florin" unicode="&#x192;" horiz-adv-x="1135" 
d="M70 0v700h777c147 0 223 -72 223 -185c0 -62 -43 -132 -97 -156c92 -24 122 -100 122 -152c0 -137 -60 -207 -219 -207h-806z" />
    <glyph glyph-name="quotedblbase" unicode="&#x201e;" horiz-adv-x="370" 
d="M70 0v80h90v-83c0 -71 -18 -95 -90 -95v27c39 0 54 8 54 57v14h-54zM210 0v80h90v-83c0 -71 -18 -95 -90 -95v27c39 0 54 8 54 57v14h-54z" />
    <glyph glyph-name="circumflex" unicode="&#x2c6;" horiz-adv-x="468" 
d="M267 894l151 -144h-120l-68 76l-68 -76h-112l140 144h77z" />
    <glyph glyph-name="perthousand" unicode="&#x2030;" horiz-adv-x="1586" 
d="M481 495c0 -140 -93 -215 -216 -215c-121 0 -215 94 -215 215c0 120 94 216 215 216c123 0 216 -93 216 -216zM265 347c82 0 149 47 149 148c0 82 -65 149 -149 149c-83 0 -148 -65 -148 -149c0 -83 65 -148 148 -148zM786 700l-387 -700h-68l387 700h68zM1055 205
c0 -140 -93 -215 -216 -215c-121 0 -215 94 -215 215c0 120 94 216 215 216c123 0 216 -93 216 -216zM839 57c82 0 149 47 149 148c0 82 -65 149 -149 149c-83 0 -148 -65 -148 -149c0 -83 65 -148 148 -148zM1536 205c0 -140 -93 -215 -216 -215c-121 0 -215 94 -215 215
c0 120 94 216 215 216c123 0 216 -93 216 -216zM1320 57c82 0 149 47 149 148c0 82 -65 149 -149 149c-83 0 -148 -65 -148 -149c0 -83 65 -148 148 -148z" />
    <glyph glyph-name="Scaron" unicode="&#x160;" horiz-adv-x="1081" 
d="M307 79h479c107 0 176 24 176 116c0 93 -68 115 -175 115h-468c-156 0 -278 31 -278 196c0 167 123 194 279 194h435c203 0 256 -90 283 -210h-99c-32 92 -78 131 -189 131h-439c-107 0 -176 -24 -176 -116c0 -94 68 -114 175 -114h468c156 0 278 -32 278 -197
c0 -167 -123 -194 -279 -194h-475c-202 0 -255 90 -282 210h99c32 -92 77 -131 188 -131zM517 750l-151 144h120l68 -76l68 76h112l-140 -144h-77z" />
    <glyph glyph-name="guilsinglleft" unicode="&#x2039;" horiz-adv-x="336" 
d="M50 321v58l236 161v-98l-125 -92l125 -92v-98z" />
    <glyph glyph-name="quoteleft" unicode="&#x2018;" 
d="M160 602v-80h-90v83c0 71 18 95 90 95v-27c-39 0 -54 -8 -54 -57v-14h54z" />
    <glyph glyph-name="quoteright" unicode="&#x2019;" 
d="M70 620v80h90v-83c0 -71 -18 -95 -90 -95v27c39 0 54 8 54 57v14h-54z" />
    <glyph glyph-name="quotedblleft" unicode="&#x201c;" horiz-adv-x="370" 
d="M300 602v-80h-90v83c0 71 18 95 90 95v-27c-39 0 -54 -8 -54 -57v-14h54zM160 602v-80h-90v83c0 71 18 95 90 95v-27c-39 0 -54 -8 -54 -57v-14h54z" />
    <glyph glyph-name="quotedblright" unicode="&#x201d;" horiz-adv-x="370" 
d="M70 620v80h90v-83c0 -71 -18 -95 -90 -95v27c39 0 54 8 54 57v14h-54zM210 620v80h90v-83c0 -71 -18 -95 -90 -95v27c39 0 54 8 54 57v14h-54z" />
    <glyph glyph-name="bullet" unicode="&#x2022;" horiz-adv-x="456" 
d="M50 350c0 99 79 178 178 178s178 -79 178 -178s-79 -178 -178 -178s-178 79 -178 178z" />
    <glyph glyph-name="endash" unicode="&#x2013;" horiz-adv-x="681" 
d="M59 304v90h563v-90h-563z" />
    <glyph glyph-name="emdash" unicode="&#x2014;" horiz-adv-x="1061" 
d="M59 304v90h943v-90h-943z" />
    <glyph glyph-name="tilde" unicode="&#x2dc;" horiz-adv-x="528" 
d="M422 883h56c-13 -101 -54 -114 -101 -114c-52 0 -192 48 -216 48c-32 0 -42 -11 -50 -47h-61c19 104 79 113 117 113c33 0 178 -48 212 -48c19 0 34 5 43 48z" />
    <glyph glyph-name="trademark" unicode="&#x2122;" horiz-adv-x="1461" 
d="M654 719h-277v-369h-90v369h-277v80h644v-80zM770 350h-77v449h104l260 -352l255 352h109v-449h-78v365l-260 -365h-49l-264 363v-363z" />
    <glyph glyph-name="guilsinglright" unicode="&#x203a;" horiz-adv-x="336" 
d="M286 379v-58l-236 -161v98l125 92l-125 92v98z" />
    <glyph glyph-name="Ydieresis" unicode="&#x178;" horiz-adv-x="900" 
d="M405 0v231l-445 469h121l369 -387l369 387h121l-445 -469v-231h-90zM299 750v82h92v-82h-92zM509 750v82h92v-82h-92z" />
    <glyph glyph-name="uni00A0" unicode="&#xa0;" horiz-adv-x="300" 
 />
    <glyph glyph-name="exclamdown" unicode="&#xa1;" horiz-adv-x="242" 
d="M152 450l20 -550h-102l20 550h62zM167 600v-80h-90v80h90z" />
    <glyph glyph-name="cent" unicode="&#xa2;" horiz-adv-x="1131" 
d="M729 632h-130v-565h130c116 0 223 43 274 142h98c-46 -126 -158 -219 -367 -219h-135v-90h-50v90h-129c-280 0 -390 168 -390 358c0 189 110 362 390 362h129v90h50v-90h135c204 0 314 -90 362 -210h-99c-53 91 -156 132 -268 132zM120 349c0 -200 144 -282 305 -282h124
v565h-124c-161 0 -305 -83 -305 -283z" />
    <glyph glyph-name="sterling" unicode="&#xa3;" horiz-adv-x="1035" 
d="M28 310v80h60c-17 33 -28 72 -28 123c0 134 211 205 432 205c220 0 447 -71 487 -219h-84c-37 90 -235 143 -421 143c-166 0 -317 -43 -317 -141c0 -47 11 -76 27 -111h493v-80h-474c4 -17 5 -33 5 -49c0 -68 -26 -138 -71 -182c71 19 140 26 208 26
c142 0 281 -47 428 -47c62 0 169 37 213 71l29 -66c-68 -47 -138 -78 -234 -78c-206 0 -295 44 -426 44c-133 0 -195 -11 -244 -44l-63 100c34 23 75 104 75 180c0 15 -1 30 -5 45h-90z" />
    <glyph glyph-name="currency" unicode="&#xa4;" horiz-adv-x="1191" 
d="M789 632h-304c-126 0 -239 -50 -285 -166h708l-20 -68h-705c-2 -16 -3 -32 -3 -49c0 -16 1 -30 2 -45h682l-20 -67h-646c42 -119 161 -170 287 -170h304c116 0 223 43 274 142h98c-46 -126 -158 -219 -367 -219h-314c-224 0 -339 107 -376 247h-134l20 67h102
c-3 15 -2 29 -2 44c0 16 1 33 3 50h-83l20 68h75c40 139 155 244 375 244h314c204 0 314 -90 362 -210h-99c-53 91 -156 132 -268 132z" />
    <glyph glyph-name="yen" unicode="&#xa5;" horiz-adv-x="900" 
d="M20 94v69h385v68l-59 62h-326v69h260l-320 338h121l369 -387l369 387h121l-321 -338h261v-69h-326l-59 -62v-68h385v-69h-385v-94h-90v94h-385z" />
    <glyph glyph-name="brokenbar" unicode="&#xa6;" 
d="M70 -200v400h90v-400h-90zM160 800v-400h-90v400h90z" />
    <glyph glyph-name="section" unicode="&#xa7;" horiz-adv-x="1196" 
d="M776 -10h-356c-280 0 -390 168 -390 358c0 189 110 362 390 362h356c280 0 390 -173 390 -362c0 -190 -110 -358 -390 -358z" />
    <glyph glyph-name="dieresis" unicode="&#xa8;" horiz-adv-x="402" 
d="M50 750v82h92v-82h-92zM260 750v82h92v-82h-92z" />
    <glyph glyph-name="copyright" unicode="&#xa9;" horiz-adv-x="1195" 
d="M30 348c0 192 103 362 387 362h358c280 0 390 -173 390 -362c0 -190 -110 -358 -390 -358h-358c-284 0 -387 166 -387 358zM500 529h196c72 0 137 -25 172 -84h64c-31 77 -104 135 -233 135h-202c-180 0 -251 -111 -251 -233s71 -230 251 -230h202c133 0 207 59 236 140
h-63c-33 -64 -100 -91 -176 -91h-196c-104 0 -196 53 -196 181s92 182 196 182z" />
    <glyph glyph-name="ordfeminine" unicode="&#xaa;" horiz-adv-x="963" 
d="M542 700l451 -700h-106l-100 155h-617l-104 -155h-96l451 700h121z" />
    <glyph glyph-name="guillemotleft" unicode="&#xab;" horiz-adv-x="613" 
d="M327 321v58l236 161v-98l-125 -92l125 -92v-98zM50 321v58l236 161v-98l-125 -92l125 -92v-98z" />
    <glyph glyph-name="logicalnot" unicode="&#xac;" horiz-adv-x="999" 
d="M927 90h-90v330h-767v80h857v-410z" />
    <glyph glyph-name="minus" unicode="&#x2212;" horiz-adv-x="601" 
d="M59 393h483v-90h-483v90z" />
    <glyph glyph-name="registered" unicode="&#xae;" horiz-adv-x="1195" 
d="M30 348c0 192 103 362 387 362h358c280 0 390 -173 390 -362c0 -190 -110 -358 -390 -358h-358c-284 0 -387 166 -387 358zM851 340c57 21 77 62 77 105c0 108 -61 135 -212 135h-439v-462h59v191h434c55 0 107 -32 107 -91c0 -35 2 -67 17 -100h59
c-10 24 -18 42 -18 111c-1 52 -27 94 -84 111zM336 362v165h397c47 0 137 -2 137 -83c0 -74 -90 -82 -137 -82h-397z" />
    <glyph glyph-name="macron" unicode="&#xaf;" horiz-adv-x="670" 
d="M100 749v72h470v-72h-470z" />
    <glyph glyph-name="degree" unicode="&#xb0;" horiz-adv-x="1181" 
d="M70 0v700h691c280 0 390 -163 390 -352c0 -190 -110 -348 -390 -348h-691z" />
    <glyph glyph-name="plusminus" unicode="&#xb1;" horiz-adv-x="681" 
d="M59 74v90h563v-90h-563zM59 512h236v158h90v-158h237v-90h-237v-155h-90v155h-236v90z" />
    <glyph glyph-name="acute" unicode="&#xb4;" horiz-adv-x="372" 
d="M358 894l-153 -144h-81l91 144h143z" />
    <glyph glyph-name="mu" unicode="&#xb5;" horiz-adv-x="1814" 
d="M1759 530h10c-8 -31 -22 -67 -58 -67c-27 0 -52 18 -60 61c-28 -53 -44 -62 -65 -62c-51 0 -72 83 -72 128c0 59 83 165 134 165c15 0 25 -10 32 -29l7 26c11 -5 20 -10 33 -10c19 0 30 12 42 20c-8 -48 -48 -233 -48 -268c0 -11 3 -17 8 -17c16 0 26 26 37 53zM1485 572
h11c-5 -18 -27 -108 -77 -108c-27 0 -55 18 -64 61c-30 -54 -43 -63 -65 -63c-51 0 -72 83 -72 128c0 59 83 165 134 165c13 0 23 -8 30 -24c14 68 27 131 29 138c11 -5 21 -10 33 -10c19 0 30 12 43 20c-8 -47 -69 -348 -69 -385c0 -9 2 -17 9 -17c25 0 50 65 58 95z
M1492 485h2c-9 -59 -55 -84 -96 -91c-1 -35 -41 -68 -89 -68c-35 0 -80 14 -80 62c0 25 25 55 53 56v-4c-21 -4 -43 -22 -43 -45c0 -43 36 -51 72 -51c34 0 77 9 80 50c-2 -1 -4 -1 -7 -1c-31 0 -55 13 -55 34c0 11 14 20 23 20c21 0 40 -20 45 -41c41 5 84 38 95 79z
M1195 530h10c-8 -31 -22 -67 -58 -67c-27 0 -52 18 -60 61c-28 -53 -44 -62 -65 -62c-51 0 -72 83 -72 128c0 59 83 165 134 165c15 0 25 -10 32 -29l7 26c11 -5 20 -10 33 -10c19 0 30 12 42 20c-8 -48 -48 -233 -48 -268c0 -11 3 -17 8 -17c16 0 26 26 37 53zM1794 174
l-75 -36l40 -32l-143 -27l9 -51l-88 71c-20 -47 -47 -89 -82 -124c17 -6 34 -9 53 -9c51 0 76 19 92 52h4c-8 -41 -53 -64 -91 -64c-24 0 -46 4 -67 12c-45 -45 -98 -75 -143 -75c-43 0 -74 33 -74 121c-1 -1 -4 -1 -7 -1c-48 0 -97 45 -97 138c0 52 81 155 161 155
c27 0 50 -19 50 -67c0 -61 -73 -106 -128 -111c-8 -45 -12 -82 -12 -83c0 -15 11 -22 26 -22c3 0 5 0 7 1v1c0 45 34 122 85 122c12 0 17 -13 17 -25c0 -43 -50 -102 -94 -107c0 -79 31 -110 72 -110c37 0 84 27 125 68c-47 23 -80 63 -80 122c0 38 24 86 67 94v-4
c-41 -12 -60 -54 -60 -94c0 -49 34 -89 81 -109c32 35 61 80 76 129l-114 35l50 20l-67 136l54 -16l-12 80l52 -59l31 45l31 -98l42 135l21 -35l79 46v-89h49l-104 -103l103 29l-17 -53zM1179 444l10 -5c-8 -44 -62 -84 -118 -84h-11c-11 -11 -29 -16 -48 -16
c-39 0 -80 17 -99 54l1 1c23 -27 52 -50 95 -50c16 0 32 4 43 13c-41 8 -128 34 -128 104c0 11 1 25 10 34l4 -4c-3 -10 -5 -19 -5 -27c0 -62 80 -90 130 -93c2 5 3 10 3 17c0 31 -29 55 -62 55c-13 0 -28 -3 -40 -10l-4 1c11 11 27 15 42 15c34 0 71 -24 71 -60
c0 -7 -1 -13 -3 -18h4c43 0 95 21 105 73zM1101 42c0 -52 -35 -117 -94 -117c-23 0 -40 12 -40 35c0 15 13 28 28 28c4 0 7 0 9 -1v-4c-12 0 -29 -8 -29 -23c0 -17 14 -27 29 -27c52 0 89 69 89 113c0 17 -6 32 -14 45c-19 -41 -48 -80 -88 -80c-31 0 -39 26 -39 53
c0 52 38 73 56 78c8 48 15 117 15 139c0 3 -4 10 -12 10c-12 0 -43 -23 -43 -79c0 -42 -60 -324 -64 -340c-11 5 -20 10 -33 10c-19 0 -30 -12 -42 -20c8 47 73 375 73 412c0 89 -100 39 -100 224c0 71 46 150 46 223c0 15 -3 22 -9 22c-15 0 -42 -30 -61 -77
c-5 -38 -35 -191 -38 -205c-11 5 -20 11 -33 11c-19 0 -27 -4 -39 -12c8 49 42 227 42 264c0 9 -2 17 -9 17c-16 0 -26 -26 -37 -53h-10c10 31 23 66 64 66c37 0 54 -26 59 -57c16 22 35 58 69 58c42 0 63 -59 63 -115c0 -96 -50 -161 -50 -236c0 -107 89 -56 105 -149
c24 41 39 49 59 49c51 0 75 -87 75 -127c0 -23 -5 -50 -16 -77c11 -16 19 -35 19 -58zM626 530h9c-8 -31 -22 -67 -58 -67c-27 0 -52 18 -60 61c-27 -53 -44 -62 -65 -62c-51 0 -71 83 -71 128c0 59 83 165 134 165c14 0 24 -10 31 -29l7 26c11 -5 21 -10 33 -10
c19 0 30 12 43 20c-8 -47 -49 -233 -49 -268c0 -11 3 -17 9 -17c16 0 26 26 37 53zM792 316l-6 1v3c-7 39 -32 49 -47 49c-25 0 -47 -29 -100 -29c-24 0 -34 13 -34 25c0 24 28 32 44 32l58 -6c15 0 32 4 32 23c0 20 -18 30 -37 30c-13 0 -29 -6 -29 -18c0 -9 5 -13 16 -13
c8 0 15 2 21 6l2 -7c-7 -3 -14 -6 -22 -6c-13 0 -25 7 -25 19c0 16 23 25 38 25c23 0 43 -12 43 -35s-23 -30 -38 -30l-59 7c-15 0 -38 -7 -38 -27c0 -13 15 -18 26 -18c32 0 71 33 95 33c35 0 60 -27 60 -64zM359 591c0 -43 -24 -83 -61 -110c11 -11 16 -25 16 -43
c0 -35 -24 -57 -55 -70c1 -1 1 -3 1 -5c0 -27 -28 -45 -51 -45h-5l3 5c13 0 43 13 43 36c0 3 0 5 -1 6c-16 -7 -33 -8 -49 -8c-25 0 -86 9 -86 43c0 23 35 30 52 30c29 0 73 -21 89 -48c25 11 46 30 46 58c0 15 -4 27 -11 36c-21 -13 -44 -21 -71 -21
c-77 0 -137 59 -137 156c0 13 4 31 13 54c-23 16 -33 42 -33 73c0 60 42 130 102 130c4 0 9 -1 16 -2v-6c-3 1 -7 1 -12 1c-55 0 -98 -65 -98 -121c0 -27 9 -49 30 -64c43 96 148 230 209 230c35 0 40 -40 40 -68c0 -75 -77 -149 -149 -176c0 -1 -1 -1 -1 -4
c-13 -46 -28 -109 -28 -147c0 -43 42 -47 46 -47c22 0 43 7 63 22c-13 9 -29 12 -44 12c-12 0 -32 -4 -35 -7v4c7 7 25 11 33 11c20 0 37 -5 52 -14c32 27 53 71 53 114c0 25 -6 57 -35 57c-48 0 -78 -52 -78 -95c0 -12 4 -37 23 -37c27 0 40 42 40 65c0 4 -2 9 -3 16h8
c3 -7 2 -13 2 -16c0 -28 -20 -73 -47 -73c-25 0 -30 28 -30 48c0 43 32 100 82 100c36 0 58 -37 58 -80zM820 -25c0 -27 -14 -47 -30 -60h-9c19 15 32 32 32 56c0 19 -4 45 -37 53c3 -16 6 -35 6 -67c0 -70 -73 -99 -132 -99c-40 0 -85 25 -85 68c0 45 43 54 59 54
c7 0 13 0 16 -1c11 20 29 39 57 51v3c-3 11 -3 22 -3 30c-15 -29 -37 -52 -70 -52s-57 39 -57 90c0 49 45 122 45 159c0 23 -4 29 -11 29c-21 0 -40 -31 -42 -38c0 -33 -19 -55 -44 -67c0 -123 -50 -180 -146 -180c-51 0 -102 21 -102 82c0 35 22 70 55 70
c23 0 32 -20 32 -37c0 -33 -19 -68 -52 -68c-7 0 -14 3 -21 6c5 -20 26 -36 43 -36c56 0 81 88 97 163c-21 9 -36 22 -45 40c-8 -3 -14 -5 -18 -5c-47 0 -71 25 -71 75c0 73 60 147 138 147c80 0 95 -32 127 -32c7 0 13 1 20 2v-5c-45 -11 -90 -43 -117 -80
c-4 32 -28 53 -63 53c-50 0 -95 -49 -95 -100c0 -35 19 -53 58 -53c7 0 13 1 18 4c-5 9 -7 21 -7 35c0 37 25 61 41 61c15 0 22 -12 22 -25c0 -28 -23 -58 -46 -73c8 -17 23 -28 40 -35c11 45 24 92 59 133c12 14 55 55 88 60v-7c-48 -24 -59 -86 -59 -138
c0 -15 1 -30 3 -47c23 11 40 31 40 58c0 19 -6 38 -15 47v2c11 -7 16 -23 19 -38c8 16 29 41 62 41c41 0 60 -46 60 -95c0 -33 -45 -108 -45 -157c0 -14 4 -21 12 -21c52 0 74 186 94 270c11 -5 21 -10 33 -10c19 0 30 12 43 20c-13 -68 -49 -192 -44 -256l1 -17
c27 -7 46 -28 46 -63zM517 -4c0 -51 -39 -87 -86 -95c-13 -24 -47 -35 -72 -35c-37 0 -97 18 -97 62c0 19 12 36 33 36c4 0 8 1 15 -2c-57 51 -106 72 -182 72c-31 0 -61 -3 -108 -10c41 15 68 21 93 30c60 22 115 82 115 130c0 60 -44 90 -100 90c-36 0 -90 -6 -90 -51
c0 -23 29 -35 54 -35s46 18 66 35v-9c-13 -19 -39 -40 -66 -40c-33 0 -64 18 -64 49c0 51 56 61 95 61c75 0 116 -41 116 -105c0 -55 -71 -110 -90 -124l18 -4c65 -13 109 -36 157 -97h-2v-2c-8 3 -14 4 -21 4c-24 0 -32 -13 -32 -28c0 -40 61 -55 90 -55c23 0 47 11 59 26
h-4c-22 0 -72 12 -72 47c0 20 14 28 33 28c31 0 62 -24 62 -52c0 -3 -1 -6 -2 -10c36 8 77 34 77 84c0 15 -1 22 -6 38h4c3 -5 7 -23 7 -38zM1671 689c0 44 -7 56 -18 56c-24 0 -30 -46 -33 -65c-5 -28 -31 -161 -31 -194c0 -4 0 -11 8 -11c19 0 37 26 52 90
c3 31 13 81 22 124zM1375 699c-1 36 -10 46 -18 46c-24 0 -30 -46 -33 -65c-5 -28 -31 -161 -31 -194c0 -4 0 -11 8 -11c35 0 45 52 74 224zM1386 406h4c-4 19 -16 33 -35 33c-8 0 -15 -2 -15 -13c0 -16 23 -20 46 -20zM1107 689c0 44 -7 56 -18 56c-24 0 -30 -46 -33 -65
c-5 -28 -31 -161 -31 -194c0 -4 0 -11 8 -11c19 0 37 26 52 90c3 31 13 81 22 124zM1291 272c0 15 -3 22 -10 22c-33 0 -58 -86 -71 -158c52 8 81 96 81 136zM1320 123c0 7 -1 14 -9 14c-40 0 -75 -69 -75 -112v-2c32 0 84 60 84 100zM538 689c0 44 -9 56 -18 56
c-19 0 -30 -49 -33 -65c-5 -28 -31 -161 -31 -194c0 -4 0 -11 8 -11c17 0 36 26 51 90c3 31 12 81 23 124zM1007 131c-29 -3 -49 -41 -49 -73c0 -12 5 -34 24 -34c18 0 20 74 25 107zM326 868c0 13 -2 25 -17 25s-25 -12 -48 -60c0 -4 -42 -109 -58 -159
c67 29 123 114 123 194zM422 299c0 11 -3 20 -15 20c-26 0 -32 -36 -32 -55c0 -13 2 -22 5 -29c21 15 42 41 42 64zM673 -72c0 15 -14 24 -29 31c-1 -4 -1 -9 -1 -13c0 -13 4 -30 15 -30c12 0 15 7 15 12zM724 -72c0 28 -18 66 -25 91c-23 -7 -40 -20 -51 -43
c27 -9 37 -33 37 -45c0 -9 -6 -25 -25 -25c-16 0 -28 21 -28 38c0 7 -1 11 2 18c-7 1 -11 1 -16 1c-25 0 -42 -15 -42 -40c0 -37 37 -57 72 -57c31 0 76 22 76 62zM245 378c-15 27 -52 45 -79 45c-12 0 -40 -3 -40 -23c0 -27 43 -31 68 -31c17 0 34 3 51 9zM428 -76
c0 24 -28 42 -49 42c-15 0 -27 -8 -27 -25c0 -25 37 -33 57 -33c13 0 19 1 19 16z" />
    <glyph glyph-name="mu" unicode="&#x3bc;" horiz-adv-x="1814" 
d="M1759 530h10c-8 -31 -22 -67 -58 -67c-27 0 -52 18 -60 61c-28 -53 -44 -62 -65 -62c-51 0 -72 83 -72 128c0 59 83 165 134 165c15 0 25 -10 32 -29l7 26c11 -5 20 -10 33 -10c19 0 30 12 42 20c-8 -48 -48 -233 -48 -268c0 -11 3 -17 8 -17c16 0 26 26 37 53zM1485 572
h11c-5 -18 -27 -108 -77 -108c-27 0 -55 18 -64 61c-30 -54 -43 -63 -65 -63c-51 0 -72 83 -72 128c0 59 83 165 134 165c13 0 23 -8 30 -24c14 68 27 131 29 138c11 -5 21 -10 33 -10c19 0 30 12 43 20c-8 -47 -69 -348 -69 -385c0 -9 2 -17 9 -17c25 0 50 65 58 95z
M1492 485h2c-9 -59 -55 -84 -96 -91c-1 -35 -41 -68 -89 -68c-35 0 -80 14 -80 62c0 25 25 55 53 56v-4c-21 -4 -43 -22 -43 -45c0 -43 36 -51 72 -51c34 0 77 9 80 50c-2 -1 -4 -1 -7 -1c-31 0 -55 13 -55 34c0 11 14 20 23 20c21 0 40 -20 45 -41c41 5 84 38 95 79z
M1195 530h10c-8 -31 -22 -67 -58 -67c-27 0 -52 18 -60 61c-28 -53 -44 -62 -65 -62c-51 0 -72 83 -72 128c0 59 83 165 134 165c15 0 25 -10 32 -29l7 26c11 -5 20 -10 33 -10c19 0 30 12 42 20c-8 -48 -48 -233 -48 -268c0 -11 3 -17 8 -17c16 0 26 26 37 53zM1794 174
l-75 -36l40 -32l-143 -27l9 -51l-88 71c-20 -47 -47 -89 -82 -124c17 -6 34 -9 53 -9c51 0 76 19 92 52h4c-8 -41 -53 -64 -91 -64c-24 0 -46 4 -67 12c-45 -45 -98 -75 -143 -75c-43 0 -74 33 -74 121c-1 -1 -4 -1 -7 -1c-48 0 -97 45 -97 138c0 52 81 155 161 155
c27 0 50 -19 50 -67c0 -61 -73 -106 -128 -111c-8 -45 -12 -82 -12 -83c0 -15 11 -22 26 -22c3 0 5 0 7 1v1c0 45 34 122 85 122c12 0 17 -13 17 -25c0 -43 -50 -102 -94 -107c0 -79 31 -110 72 -110c37 0 84 27 125 68c-47 23 -80 63 -80 122c0 38 24 86 67 94v-4
c-41 -12 -60 -54 -60 -94c0 -49 34 -89 81 -109c32 35 61 80 76 129l-114 35l50 20l-67 136l54 -16l-12 80l52 -59l31 45l31 -98l42 135l21 -35l79 46v-89h49l-104 -103l103 29l-17 -53zM1179 444l10 -5c-8 -44 -62 -84 -118 -84h-11c-11 -11 -29 -16 -48 -16
c-39 0 -80 17 -99 54l1 1c23 -27 52 -50 95 -50c16 0 32 4 43 13c-41 8 -128 34 -128 104c0 11 1 25 10 34l4 -4c-3 -10 -5 -19 -5 -27c0 -62 80 -90 130 -93c2 5 3 10 3 17c0 31 -29 55 -62 55c-13 0 -28 -3 -40 -10l-4 1c11 11 27 15 42 15c34 0 71 -24 71 -60
c0 -7 -1 -13 -3 -18h4c43 0 95 21 105 73zM1101 42c0 -52 -35 -117 -94 -117c-23 0 -40 12 -40 35c0 15 13 28 28 28c4 0 7 0 9 -1v-4c-12 0 -29 -8 -29 -23c0 -17 14 -27 29 -27c52 0 89 69 89 113c0 17 -6 32 -14 45c-19 -41 -48 -80 -88 -80c-31 0 -39 26 -39 53
c0 52 38 73 56 78c8 48 15 117 15 139c0 3 -4 10 -12 10c-12 0 -43 -23 -43 -79c0 -42 -60 -324 -64 -340c-11 5 -20 10 -33 10c-19 0 -30 -12 -42 -20c8 47 73 375 73 412c0 89 -100 39 -100 224c0 71 46 150 46 223c0 15 -3 22 -9 22c-15 0 -42 -30 -61 -77
c-5 -38 -35 -191 -38 -205c-11 5 -20 11 -33 11c-19 0 -27 -4 -39 -12c8 49 42 227 42 264c0 9 -2 17 -9 17c-16 0 -26 -26 -37 -53h-10c10 31 23 66 64 66c37 0 54 -26 59 -57c16 22 35 58 69 58c42 0 63 -59 63 -115c0 -96 -50 -161 -50 -236c0 -107 89 -56 105 -149
c24 41 39 49 59 49c51 0 75 -87 75 -127c0 -23 -5 -50 -16 -77c11 -16 19 -35 19 -58zM626 530h9c-8 -31 -22 -67 -58 -67c-27 0 -52 18 -60 61c-27 -53 -44 -62 -65 -62c-51 0 -71 83 -71 128c0 59 83 165 134 165c14 0 24 -10 31 -29l7 26c11 -5 21 -10 33 -10
c19 0 30 12 43 20c-8 -47 -49 -233 -49 -268c0 -11 3 -17 9 -17c16 0 26 26 37 53zM792 316l-6 1v3c-7 39 -32 49 -47 49c-25 0 -47 -29 -100 -29c-24 0 -34 13 -34 25c0 24 28 32 44 32l58 -6c15 0 32 4 32 23c0 20 -18 30 -37 30c-13 0 -29 -6 -29 -18c0 -9 5 -13 16 -13
c8 0 15 2 21 6l2 -7c-7 -3 -14 -6 -22 -6c-13 0 -25 7 -25 19c0 16 23 25 38 25c23 0 43 -12 43 -35s-23 -30 -38 -30l-59 7c-15 0 -38 -7 -38 -27c0 -13 15 -18 26 -18c32 0 71 33 95 33c35 0 60 -27 60 -64zM359 591c0 -43 -24 -83 -61 -110c11 -11 16 -25 16 -43
c0 -35 -24 -57 -55 -70c1 -1 1 -3 1 -5c0 -27 -28 -45 -51 -45h-5l3 5c13 0 43 13 43 36c0 3 0 5 -1 6c-16 -7 -33 -8 -49 -8c-25 0 -86 9 -86 43c0 23 35 30 52 30c29 0 73 -21 89 -48c25 11 46 30 46 58c0 15 -4 27 -11 36c-21 -13 -44 -21 -71 -21
c-77 0 -137 59 -137 156c0 13 4 31 13 54c-23 16 -33 42 -33 73c0 60 42 130 102 130c4 0 9 -1 16 -2v-6c-3 1 -7 1 -12 1c-55 0 -98 -65 -98 -121c0 -27 9 -49 30 -64c43 96 148 230 209 230c35 0 40 -40 40 -68c0 -75 -77 -149 -149 -176c0 -1 -1 -1 -1 -4
c-13 -46 -28 -109 -28 -147c0 -43 42 -47 46 -47c22 0 43 7 63 22c-13 9 -29 12 -44 12c-12 0 -32 -4 -35 -7v4c7 7 25 11 33 11c20 0 37 -5 52 -14c32 27 53 71 53 114c0 25 -6 57 -35 57c-48 0 -78 -52 -78 -95c0 -12 4 -37 23 -37c27 0 40 42 40 65c0 4 -2 9 -3 16h8
c3 -7 2 -13 2 -16c0 -28 -20 -73 -47 -73c-25 0 -30 28 -30 48c0 43 32 100 82 100c36 0 58 -37 58 -80zM820 -25c0 -27 -14 -47 -30 -60h-9c19 15 32 32 32 56c0 19 -4 45 -37 53c3 -16 6 -35 6 -67c0 -70 -73 -99 -132 -99c-40 0 -85 25 -85 68c0 45 43 54 59 54
c7 0 13 0 16 -1c11 20 29 39 57 51v3c-3 11 -3 22 -3 30c-15 -29 -37 -52 -70 -52s-57 39 -57 90c0 49 45 122 45 159c0 23 -4 29 -11 29c-21 0 -40 -31 -42 -38c0 -33 -19 -55 -44 -67c0 -123 -50 -180 -146 -180c-51 0 -102 21 -102 82c0 35 22 70 55 70
c23 0 32 -20 32 -37c0 -33 -19 -68 -52 -68c-7 0 -14 3 -21 6c5 -20 26 -36 43 -36c56 0 81 88 97 163c-21 9 -36 22 -45 40c-8 -3 -14 -5 -18 -5c-47 0 -71 25 -71 75c0 73 60 147 138 147c80 0 95 -32 127 -32c7 0 13 1 20 2v-5c-45 -11 -90 -43 -117 -80
c-4 32 -28 53 -63 53c-50 0 -95 -49 -95 -100c0 -35 19 -53 58 -53c7 0 13 1 18 4c-5 9 -7 21 -7 35c0 37 25 61 41 61c15 0 22 -12 22 -25c0 -28 -23 -58 -46 -73c8 -17 23 -28 40 -35c11 45 24 92 59 133c12 14 55 55 88 60v-7c-48 -24 -59 -86 -59 -138
c0 -15 1 -30 3 -47c23 11 40 31 40 58c0 19 -6 38 -15 47v2c11 -7 16 -23 19 -38c8 16 29 41 62 41c41 0 60 -46 60 -95c0 -33 -45 -108 -45 -157c0 -14 4 -21 12 -21c52 0 74 186 94 270c11 -5 21 -10 33 -10c19 0 30 12 43 20c-13 -68 -49 -192 -44 -256l1 -17
c27 -7 46 -28 46 -63zM517 -4c0 -51 -39 -87 -86 -95c-13 -24 -47 -35 -72 -35c-37 0 -97 18 -97 62c0 19 12 36 33 36c4 0 8 1 15 -2c-57 51 -106 72 -182 72c-31 0 -61 -3 -108 -10c41 15 68 21 93 30c60 22 115 82 115 130c0 60 -44 90 -100 90c-36 0 -90 -6 -90 -51
c0 -23 29 -35 54 -35s46 18 66 35v-9c-13 -19 -39 -40 -66 -40c-33 0 -64 18 -64 49c0 51 56 61 95 61c75 0 116 -41 116 -105c0 -55 -71 -110 -90 -124l18 -4c65 -13 109 -36 157 -97h-2v-2c-8 3 -14 4 -21 4c-24 0 -32 -13 -32 -28c0 -40 61 -55 90 -55c23 0 47 11 59 26
h-4c-22 0 -72 12 -72 47c0 20 14 28 33 28c31 0 62 -24 62 -52c0 -3 -1 -6 -2 -10c36 8 77 34 77 84c0 15 -1 22 -6 38h4c3 -5 7 -23 7 -38zM1671 689c0 44 -7 56 -18 56c-24 0 -30 -46 -33 -65c-5 -28 -31 -161 -31 -194c0 -4 0 -11 8 -11c19 0 37 26 52 90
c3 31 13 81 22 124zM1375 699c-1 36 -10 46 -18 46c-24 0 -30 -46 -33 -65c-5 -28 -31 -161 -31 -194c0 -4 0 -11 8 -11c35 0 45 52 74 224zM1386 406h4c-4 19 -16 33 -35 33c-8 0 -15 -2 -15 -13c0 -16 23 -20 46 -20zM1107 689c0 44 -7 56 -18 56c-24 0 -30 -46 -33 -65
c-5 -28 -31 -161 -31 -194c0 -4 0 -11 8 -11c19 0 37 26 52 90c3 31 13 81 22 124zM1291 272c0 15 -3 22 -10 22c-33 0 -58 -86 -71 -158c52 8 81 96 81 136zM1320 123c0 7 -1 14 -9 14c-40 0 -75 -69 -75 -112v-2c32 0 84 60 84 100zM538 689c0 44 -9 56 -18 56
c-19 0 -30 -49 -33 -65c-5 -28 -31 -161 -31 -194c0 -4 0 -11 8 -11c17 0 36 26 51 90c3 31 12 81 23 124zM1007 131c-29 -3 -49 -41 -49 -73c0 -12 5 -34 24 -34c18 0 20 74 25 107zM326 868c0 13 -2 25 -17 25s-25 -12 -48 -60c0 -4 -42 -109 -58 -159
c67 29 123 114 123 194zM422 299c0 11 -3 20 -15 20c-26 0 -32 -36 -32 -55c0 -13 2 -22 5 -29c21 15 42 41 42 64zM673 -72c0 15 -14 24 -29 31c-1 -4 -1 -9 -1 -13c0 -13 4 -30 15 -30c12 0 15 7 15 12zM724 -72c0 28 -18 66 -25 91c-23 -7 -40 -20 -51 -43
c27 -9 37 -33 37 -45c0 -9 -6 -25 -25 -25c-16 0 -28 21 -28 38c0 7 -1 11 2 18c-7 1 -11 1 -16 1c-25 0 -42 -15 -42 -40c0 -37 37 -57 72 -57c31 0 76 22 76 62zM245 378c-15 27 -52 45 -79 45c-12 0 -40 -3 -40 -23c0 -27 43 -31 68 -31c17 0 34 3 51 9zM428 -76
c0 24 -28 42 -49 42c-15 0 -27 -8 -27 -25c0 -25 37 -33 57 -33c13 0 19 1 19 16z" />
    <glyph glyph-name="paragraph" unicode="&#xb6;" horiz-adv-x="752" 
d="M682 701v-901h-90v809h-98v-809h-90v480h-12c-229 0 -322 80 -322 208c0 148 95 213 324 213h288z" />
    <glyph glyph-name="periodcentered" unicode="&#xb7;" 
d="M70 360v80h90v-80h-90z" />
    <glyph glyph-name="cedilla" unicode="&#xb8;" horiz-adv-x="406" 
d="M57 -139l9 21c25 -7 51 -11 83 -11c49 0 102 9 102 40c0 20 -20 31 -45 31c-27 0 -57 -11 -78 -32l-11 7l60 85h36l-35 -44c19 7 38 9 57 9c48 0 101 -14 101 -67c0 -50 -53 -64 -114 -64c-67 0 -141 17 -165 25z" />
    <glyph glyph-name="onesuperior" unicode="&#xb9;" horiz-adv-x="1195" 
d="M30 348c0 192 103 362 387 362h358c280 0 390 -173 390 -362c0 -190 -110 -358 -390 -358h-358c-284 0 -387 166 -387 358zM316 563v-464h60v119h384c152 0 213 70 213 171c0 115 -62 174 -214 174h-443zM376 271v238h400c47 0 138 -11 138 -119s-91 -119 -138 -119h-400
z" />
    <glyph glyph-name="ordmasculine" unicode="&#xba;" horiz-adv-x="1196" 
d="M776 -10h-356c-280 0 -390 168 -390 358c0 189 110 362 390 362h356c280 0 390 -173 390 -362c0 -125 -47 -238 -157 -303l160 -170h-104l-130 137c-45 -15 -98 -22 -159 -22z" />
    <glyph glyph-name="guillemotright" unicode="&#xbb;" horiz-adv-x="613" 
d="M563 379v-58l-236 -161v98l125 92l-125 92v98zM286 379v-58l-236 -161v98l125 92l-125 92v98z" />
    <glyph glyph-name="questiondown" unicode="&#xbf;" horiz-adv-x="955" 
d="M544 432h90c-37 -260 -506 -167 -506 -350c0 -88 92 -104 336 -104h112c211 0 223 38 250 134h99c-21 -122 -76 -212 -294 -212h-263c-284 0 -327 110 -327 182c0 253 492 167 503 350zM633 600v-80h-90v80h90z" />
    <glyph glyph-name="Agrave" unicode="&#xc0;" horiz-adv-x="963" 
d="M542 700l451 -700h-106l-100 155h-617l-104 -155h-96l451 700h121zM485 625l-265 -395h519zM477 750l-153 144h143l91 -144h-81z" />
    <glyph glyph-name="Aacute" unicode="&#xc1;" horiz-adv-x="963" 
d="M542 700l451 -700h-106l-100 155h-617l-104 -155h-96l451 700h121zM485 625l-265 -395h519zM660 894l-153 -144h-81l91 144h143z" />
    <glyph glyph-name="Acircumflex" unicode="&#xc2;" horiz-adv-x="963" 
d="M542 700l451 -700h-106l-100 155h-617l-104 -155h-96l451 700h121zM485 625l-265 -395h519zM518 894l151 -144h-120l-68 76l-68 -76h-112l140 144h77z" />
    <glyph glyph-name="Atilde" unicode="&#xc3;" horiz-adv-x="963" 
d="M542 700l451 -700h-106l-100 155h-617l-104 -155h-96l451 700h121zM485 625l-265 -395h519zM642 883h56c-13 -101 -54 -114 -101 -114c-52 0 -192 48 -216 48c-32 0 -42 -11 -50 -47h-61c19 104 79 113 117 113c33 0 178 -48 212 -48c19 0 34 5 43 48z" />
    <glyph glyph-name="Adieresis" unicode="&#xc4;" horiz-adv-x="963" 
d="M542 700l451 -700h-106l-100 155h-617l-104 -155h-96l451 700h121zM485 625l-265 -395h519zM334 750v82h92v-82h-92zM544 750v82h92v-82h-92z" />
    <glyph glyph-name="Aring" unicode="&#xc5;" horiz-adv-x="963" 
d="M542 700l451 -700h-106l-100 155h-617l-104 -155h-96l451 700h121zM485 625l-265 -395h519zM383 838c0 56 46 102 102 102s102 -46 102 -102s-46 -102 -102 -102s-102 46 -102 102zM428 838c0 -32 25 -57 57 -57s57 25 57 57s-25 57 -57 57s-57 -25 -57 -57z" />
    <glyph glyph-name="AE" unicode="&#xc6;" horiz-adv-x="1623" 
d="M623 205h-424l-132 -205h-97l451 700h1177v-80h-885v-230h823v-80h-823v-230h885v-80h-975v205zM467 620l-216 -335h372v335h-156z" />
    <glyph glyph-name="Ccedilla" unicode="&#xc7;" horiz-adv-x="1131" 
d="M454 -144l9 21c25 -7 51 -11 83 -11c49 0 102 9 102 40c0 20 -20 31 -45 31c-27 0 -57 -11 -78 -32l-11 7l55 78h-149c-280 0 -390 168 -390 358c0 189 110 362 390 362h314c204 0 314 -90 362 -210h-99c-53 91 -156 132 -268 132h-304c-161 0 -305 -83 -305 -283
s144 -282 305 -282h304c116 0 223 43 274 142h98c-46 -126 -158 -219 -367 -219h-130l-29 -37c19 7 38 9 57 9c48 0 101 -14 101 -67c0 -50 -53 -64 -114 -64c-67 0 -141 17 -165 25z" />
    <glyph glyph-name="Egrave" unicode="&#xc8;" horiz-adv-x="1070" 
d="M1045 620h-885v-230h823v-80h-823v-230h885v-80h-975v700h975v-80zM581 750l-153 144h143l91 -144h-81z" />
    <glyph glyph-name="Eacute" unicode="&#xc9;" horiz-adv-x="1070" 
d="M1045 620h-885v-230h823v-80h-823v-230h885v-80h-975v700h975v-80zM749 894l-153 -144h-81l91 144h143z" />
    <glyph glyph-name="Ecircumflex" unicode="&#xca;" horiz-adv-x="1070" 
d="M1045 620h-885v-230h823v-80h-823v-230h885v-80h-975v700h975v-80zM612 894l151 -144h-120l-68 76l-68 -76h-112l140 144h77z" />
    <glyph glyph-name="Edieresis" unicode="&#xcb;" horiz-adv-x="1070" 
d="M1045 620h-885v-230h823v-80h-823v-230h885v-80h-975v700h975v-80zM429 750v82h92v-82h-92zM639 750v82h92v-82h-92z" />
    <glyph glyph-name="Igrave" unicode="&#xcc;" 
d="M70 0v700h90v-700h-90zM90 750l-153 144h143l91 -144h-81z" />
    <glyph glyph-name="Iacute" unicode="&#xcd;" 
d="M70 0v700h90v-700h-90zM289 894l-153 -144h-81l91 144h143z" />
    <glyph glyph-name="Icircumflex" unicode="&#xce;" 
d="M70 0v700h90v-700h-90zM148 894l151 -144h-120l-68 76l-68 -76h-112l140 144h77z" />
    <glyph glyph-name="Idieresis" unicode="&#xcf;" 
d="M70 0v700h90v-700h-90zM-36 750v82h92v-82h-92zM174 750v82h92v-82h-92z" />
    <glyph glyph-name="Eth" unicode="&#xd0;" horiz-adv-x="1181" 
d="M0 304v90h70v306h691c280 0 390 -163 390 -352c0 -190 -110 -348 -390 -348h-691v304h-70zM756 622h-596v-228h447v-90h-447v-227h596c161 0 305 72 305 272s-144 273 -305 273z" />
    <glyph glyph-name="Ntilde" unicode="&#xd1;" horiz-adv-x="1080" 
d="M1010 700v-700h-110l-740 604v-604h-90v701h116l734 -599v598h90zM730 883h56c-13 -101 -54 -114 -101 -114c-52 0 -192 48 -216 48c-32 0 -42 -11 -50 -47h-61c19 104 79 113 117 113c33 0 178 -48 212 -48c19 0 34 5 43 48z" />
    <glyph glyph-name="Ograve" unicode="&#xd2;" horiz-adv-x="1196" 
d="M776 -10h-356c-280 0 -390 168 -390 358c0 189 110 362 390 362h356c280 0 390 -173 390 -362c0 -190 -110 -358 -390 -358zM771 632h-346c-161 0 -305 -83 -305 -283s144 -282 305 -282h346c161 0 305 82 305 282s-144 283 -305 283zM596 750l-153 144h143l91 -144h-81z
" />
    <glyph glyph-name="Oacute" unicode="&#xd3;" horiz-adv-x="1196" 
d="M776 -10h-356c-280 0 -390 168 -390 358c0 189 110 362 390 362h356c280 0 390 -173 390 -362c0 -190 -110 -358 -390 -358zM771 632h-346c-161 0 -305 -83 -305 -283s144 -282 305 -282h346c161 0 305 82 305 282s-144 283 -305 283zM791 894l-153 -144h-81l91 144h143z
" />
    <glyph glyph-name="Ocircumflex" unicode="&#xd4;" horiz-adv-x="1196" 
d="M776 -10h-356c-280 0 -390 168 -390 358c0 189 110 362 390 362h356c280 0 390 -173 390 -362c0 -190 -110 -358 -390 -358zM771 632h-346c-161 0 -305 -83 -305 -283s144 -282 305 -282h346c161 0 305 82 305 282s-144 283 -305 283zM640 894l151 -144h-120l-68 76
l-68 -76h-112l140 144h77z" />
    <glyph glyph-name="Otilde" unicode="&#xd5;" horiz-adv-x="1196" 
d="M776 -10h-356c-280 0 -390 168 -390 358c0 189 110 362 390 362h356c280 0 390 -173 390 -362c0 -190 -110 -358 -390 -358zM771 632h-346c-161 0 -305 -83 -305 -283s144 -282 305 -282h346c161 0 305 82 305 282s-144 283 -305 283zM756 883h56
c-13 -101 -54 -114 -101 -114c-52 0 -192 48 -216 48c-32 0 -42 -11 -50 -47h-61c19 104 79 113 117 113c33 0 178 -48 212 -48c19 0 34 5 43 48z" />
    <glyph glyph-name="Odieresis" unicode="&#xd6;" horiz-adv-x="1196" 
d="M776 -10h-356c-280 0 -390 168 -390 358c0 189 110 362 390 362h356c280 0 390 -173 390 -362c0 -190 -110 -358 -390 -358zM771 632h-346c-161 0 -305 -83 -305 -283s144 -282 305 -282h346c161 0 305 82 305 282s-144 283 -305 283zM447 750v82h92v-82h-92zM657 750v82
h92v-82h-92z" />
    <glyph glyph-name="multiply" unicode="&#xd7;" horiz-adv-x="523" 
d="M122 550l139 -138l139 139l64 -64l-139 -139l139 -139l-64 -64l-139 139l-139 -138l-63 63l138 139l-138 139z" />
    <glyph glyph-name="Oslash" unicode="&#xd8;" horiz-adv-x="1196" 
d="M347 -100l43 91c-258 11 -360 174 -360 357c0 189 110 362 390 362h308l43 90h80l-43 -91c256 -13 358 -180 358 -361c0 -190 -110 -358 -390 -358h-307l-42 -90h-80zM120 349c0 -200 143 -282 306 -282l266 565h-267c-161 0 -305 -83 -305 -283zM1076 349
c0 198 -144 283 -304 283l-266 -565h265c161 0 305 82 305 282z" />
    <glyph glyph-name="Ugrave" unicode="&#xd9;" horiz-adv-x="1191" 
d="M746 -10h-301c-280 0 -390 148 -390 358v352h90v-351c0 -220 144 -282 305 -282h291c161 0 305 62 305 282v351h90v-352c0 -210 -110 -358 -390 -358zM588 750l-153 144h143l91 -144h-81z" />
    <glyph glyph-name="Uacute" unicode="&#xda;" horiz-adv-x="1191" 
d="M746 -10h-301c-280 0 -390 148 -390 358v352h90v-351c0 -220 144 -282 305 -282h291c161 0 305 62 305 282v351h90v-352c0 -210 -110 -358 -390 -358zM781 894l-153 -144h-81l91 144h143z" />
    <glyph glyph-name="Ucircumflex" unicode="&#xdb;" horiz-adv-x="1191" 
d="M746 -10h-301c-280 0 -390 148 -390 358v352h90v-351c0 -220 144 -282 305 -282h291c161 0 305 62 305 282v351h90v-352c0 -210 -110 -358 -390 -358zM628 894l151 -144h-120l-68 76l-68 -76h-112l140 144h77z" />
    <glyph glyph-name="Udieresis" unicode="&#xdc;" horiz-adv-x="1191" 
d="M746 -10h-301c-280 0 -390 148 -390 358v352h90v-351c0 -220 144 -282 305 -282h291c161 0 305 62 305 282v351h90v-352c0 -210 -110 -358 -390 -358zM444 750v82h92v-82h-92zM654 750v82h92v-82h-92z" />
    <glyph glyph-name="Yacute" unicode="&#xdd;" horiz-adv-x="900" 
d="M405 0v231l-445 469h121l369 -387l369 387h121l-445 -469v-231h-90zM642 894l-153 -144h-81l91 144h143z" />
    <glyph glyph-name="Thorn" unicode="&#xde;" horiz-adv-x="1082" 
d="M70 0v701h90v-87h578c229 0 324 -89 324 -263c0 -152 -93 -258 -322 -258h-580v-93h-90zM764 533h-604v-360h604c71 0 208 16 208 179c0 164 -137 181 -208 181z" />
    <glyph glyph-name="germandbls" unicode="&#xdf;" horiz-adv-x="2162" 
d="M307 79h479c108 0 176 33 176 116c0 84 -67 115 -175 115h-468c-156 0 -278 31 -278 196c0 167 123 194 279 194h435c203 0 256 -90 283 -210h-99c-32 92 -78 131 -189 131h-439c-108 0 -176 -33 -176 -116c0 -84 67 -114 175 -114h468c156 0 278 -32 278 -197
c0 -167 -123 -194 -279 -194h-475c-202 0 -255 90 -282 210h99c32 -92 77 -131 188 -131zM1388 79h479c108 0 176 33 176 116c0 84 -67 115 -175 115h-468c-156 0 -278 31 -278 196c0 167 123 194 279 194h435c203 0 256 -90 283 -210h-99c-32 92 -78 131 -189 131h-439
c-108 0 -176 -33 -176 -116c0 -84 67 -114 175 -114h468c156 0 278 -32 278 -197c0 -167 -123 -194 -279 -194h-475c-202 0 -255 90 -282 210h99c32 -92 77 -131 188 -131z" />
    <glyph glyph-name="agrave" unicode="&#xe0;" horiz-adv-x="963" 
d="M542 700l451 -700h-106l-100 155h-617l-104 -155h-96l451 700h121zM485 625l-265 -395h519zM477 750l-153 144h143l91 -144h-81z" />
    <glyph glyph-name="aacute" unicode="&#xe1;" horiz-adv-x="963" 
d="M542 700l451 -700h-106l-100 155h-617l-104 -155h-96l451 700h121zM485 625l-265 -395h519zM660 894l-153 -144h-81l91 144h143z" />
    <glyph glyph-name="acircumflex" unicode="&#xe2;" horiz-adv-x="963" 
d="M542 700l451 -700h-106l-100 155h-617l-104 -155h-96l451 700h121zM485 625l-265 -395h519zM518 894l151 -144h-120l-68 76l-68 -76h-112l140 144h77z" />
    <glyph glyph-name="atilde" unicode="&#xe3;" horiz-adv-x="963" 
d="M542 700l451 -700h-106l-100 155h-617l-104 -155h-96l451 700h121zM485 625l-265 -395h519zM642 883h56c-13 -101 -54 -114 -101 -114c-52 0 -192 48 -216 48c-32 0 -42 -11 -50 -47h-61c19 104 79 113 117 113c33 0 178 -48 212 -48c19 0 34 5 43 48z" />
    <glyph glyph-name="adieresis" unicode="&#xe4;" horiz-adv-x="963" 
d="M542 700l451 -700h-106l-100 155h-617l-104 -155h-96l451 700h121zM485 625l-265 -395h519zM334 750v82h92v-82h-92zM544 750v82h92v-82h-92z" />
    <glyph glyph-name="aring" unicode="&#xe5;" horiz-adv-x="963" 
d="M542 700l451 -700h-106l-100 155h-617l-104 -155h-96l451 700h121zM485 625l-265 -395h519zM383 838c0 56 46 102 102 102s102 -46 102 -102s-46 -102 -102 -102s-102 46 -102 102zM428 838c0 -32 25 -57 57 -57s57 25 57 57s-25 57 -57 57s-57 -25 -57 -57z" />
    <glyph glyph-name="ae" unicode="&#xe6;" horiz-adv-x="1623" 
d="M623 205h-424l-132 -205h-97l451 700h1177v-80h-885v-230h823v-80h-823v-230h885v-80h-975v205zM467 620l-216 -335h372v335h-156z" />
    <glyph glyph-name="ccedilla" unicode="&#xe7;" horiz-adv-x="1131" 
d="M454 -144l9 21c25 -7 51 -11 83 -11c49 0 102 9 102 40c0 20 -20 31 -45 31c-27 0 -57 -11 -78 -32l-11 7l55 78h-149c-280 0 -390 168 -390 358c0 189 110 362 390 362h314c204 0 314 -90 362 -210h-99c-53 91 -156 132 -268 132h-304c-161 0 -305 -83 -305 -283
s144 -282 305 -282h304c116 0 223 43 274 142h98c-46 -126 -158 -219 -367 -219h-130l-29 -37c19 7 38 9 57 9c48 0 101 -14 101 -67c0 -50 -53 -64 -114 -64c-67 0 -141 17 -165 25z" />
    <glyph glyph-name="egrave" unicode="&#xe8;" horiz-adv-x="1070" 
d="M1045 620h-885v-230h823v-80h-823v-230h885v-80h-975v700h975v-80zM581 750l-153 144h143l91 -144h-81z" />
    <glyph glyph-name="eacute" unicode="&#xe9;" horiz-adv-x="1070" 
d="M1045 620h-885v-230h823v-80h-823v-230h885v-80h-975v700h975v-80zM749 894l-153 -144h-81l91 144h143z" />
    <glyph glyph-name="ecircumflex" unicode="&#xea;" horiz-adv-x="1070" 
d="M1045 620h-885v-230h823v-80h-823v-230h885v-80h-975v700h975v-80zM612 894l151 -144h-120l-68 76l-68 -76h-112l140 144h77z" />
    <glyph glyph-name="edieresis" unicode="&#xeb;" horiz-adv-x="1070" 
d="M1045 620h-885v-230h823v-80h-823v-230h885v-80h-975v700h975v-80zM429 750v82h92v-82h-92zM639 750v82h92v-82h-92z" />
    <glyph glyph-name="igrave" unicode="&#xec;" 
d="M70 0v700h90v-700h-90zM90 750l-153 144h143l91 -144h-81z" />
    <glyph glyph-name="iacute" unicode="&#xed;" 
d="M70 0v700h90v-700h-90zM289 894l-153 -144h-81l91 144h143z" />
    <glyph glyph-name="icircumflex" unicode="&#xee;" 
d="M70 0v700h90v-700h-90zM148 894l151 -144h-120l-68 76l-68 -76h-112l140 144h77z" />
    <glyph glyph-name="idieresis" unicode="&#xef;" 
d="M70 0v700h90v-700h-90zM-36 750v82h92v-82h-92zM174 750v82h92v-82h-92z" />
    <glyph glyph-name="eth" unicode="&#xf0;" horiz-adv-x="1181" 
d="M0 304v90h70v306h691c280 0 390 -163 390 -352c0 -190 -110 -348 -390 -348h-691v304h-70zM756 622h-596v-228h447v-90h-447v-227h596c161 0 305 72 305 272s-144 273 -305 273z" />
    <glyph glyph-name="ntilde" unicode="&#xf1;" horiz-adv-x="1080" 
d="M1010 700v-700h-110l-740 604v-604h-90v701h116l734 -599v598h90zM730 883h56c-13 -101 -54 -114 -101 -114c-52 0 -192 48 -216 48c-32 0 -42 -11 -50 -47h-61c19 104 79 113 117 113c33 0 178 -48 212 -48c19 0 34 5 43 48z" />
    <glyph glyph-name="ograve" unicode="&#xf2;" horiz-adv-x="1196" 
d="M776 -10h-356c-280 0 -390 168 -390 358c0 189 110 362 390 362h356c280 0 390 -173 390 -362c0 -190 -110 -358 -390 -358zM771 632h-346c-161 0 -305 -83 -305 -283s144 -282 305 -282h346c161 0 305 82 305 282s-144 283 -305 283zM596 750l-153 144h143l91 -144h-81z
" />
    <glyph glyph-name="oacute" unicode="&#xf3;" horiz-adv-x="1196" 
d="M776 -10h-356c-280 0 -390 168 -390 358c0 189 110 362 390 362h356c280 0 390 -173 390 -362c0 -190 -110 -358 -390 -358zM771 632h-346c-161 0 -305 -83 -305 -283s144 -282 305 -282h346c161 0 305 82 305 282s-144 283 -305 283zM791 894l-153 -144h-81l91 144h143z
" />
    <glyph glyph-name="ocircumflex" unicode="&#xf4;" horiz-adv-x="1196" 
d="M776 -10h-356c-280 0 -390 168 -390 358c0 189 110 362 390 362h356c280 0 390 -173 390 -362c0 -190 -110 -358 -390 -358zM771 632h-346c-161 0 -305 -83 -305 -283s144 -282 305 -282h346c161 0 305 82 305 282s-144 283 -305 283zM640 894l151 -144h-120l-68 76
l-68 -76h-112l140 144h77z" />
    <glyph glyph-name="otilde" unicode="&#xf5;" horiz-adv-x="1196" 
d="M776 -10h-356c-280 0 -390 168 -390 358c0 189 110 362 390 362h356c280 0 390 -173 390 -362c0 -190 -110 -358 -390 -358zM771 632h-346c-161 0 -305 -83 -305 -283s144 -282 305 -282h346c161 0 305 82 305 282s-144 283 -305 283zM756 883h56
c-13 -101 -54 -114 -101 -114c-52 0 -192 48 -216 48c-32 0 -42 -11 -50 -47h-61c19 104 79 113 117 113c33 0 178 -48 212 -48c19 0 34 5 43 48z" />
    <glyph glyph-name="odieresis" unicode="&#xf6;" horiz-adv-x="1196" 
d="M776 -10h-356c-280 0 -390 168 -390 358c0 189 110 362 390 362h356c280 0 390 -173 390 -362c0 -190 -110 -358 -390 -358zM771 632h-346c-161 0 -305 -83 -305 -283s144 -282 305 -282h346c161 0 305 82 305 282s-144 283 -305 283zM447 750v82h92v-82h-92zM657 750v82
h92v-82h-92z" />
    <glyph glyph-name="oslash" unicode="&#xf8;" horiz-adv-x="1196" 
d="M347 -100l43 91c-258 11 -360 174 -360 357c0 189 110 362 390 362h308l43 90h80l-43 -91c256 -13 358 -180 358 -361c0 -190 -110 -358 -390 -358h-307l-42 -90h-80zM120 349c0 -200 143 -282 306 -282l266 565h-267c-161 0 -305 -83 -305 -283zM1076 349
c0 198 -144 283 -304 283l-266 -565h265c161 0 305 82 305 282z" />
    <glyph glyph-name="ugrave" unicode="&#xf9;" horiz-adv-x="1191" 
d="M746 -10h-301c-280 0 -390 148 -390 358v352h90v-351c0 -220 144 -282 305 -282h291c161 0 305 62 305 282v351h90v-352c0 -210 -110 -358 -390 -358zM588 750l-153 144h143l91 -144h-81z" />
    <glyph glyph-name="uacute" unicode="&#xfa;" horiz-adv-x="1191" 
d="M746 -10h-301c-280 0 -390 148 -390 358v352h90v-351c0 -220 144 -282 305 -282h291c161 0 305 62 305 282v351h90v-352c0 -210 -110 -358 -390 -358zM781 894l-153 -144h-81l91 144h143z" />
    <glyph glyph-name="ucircumflex" unicode="&#xfb;" horiz-adv-x="1191" 
d="M746 -10h-301c-280 0 -390 148 -390 358v352h90v-351c0 -220 144 -282 305 -282h291c161 0 305 62 305 282v351h90v-352c0 -210 -110 -358 -390 -358zM628 894l151 -144h-120l-68 76l-68 -76h-112l140 144h77z" />
    <glyph glyph-name="udieresis" unicode="&#xfc;" horiz-adv-x="1191" 
d="M746 -10h-301c-280 0 -390 148 -390 358v352h90v-351c0 -220 144 -282 305 -282h291c161 0 305 62 305 282v351h90v-352c0 -210 -110 -358 -390 -358zM444 750v82h92v-82h-92zM654 750v82h92v-82h-92z" />
    <glyph glyph-name="yacute" unicode="&#xfd;" horiz-adv-x="900" 
d="M405 0v231l-445 469h121l369 -387l369 387h121l-445 -469v-231h-90zM642 894l-153 -144h-81l91 144h143z" />
    <glyph glyph-name="thorn" unicode="&#xfe;" horiz-adv-x="1082" 
d="M70 0v701h90v-87h578c229 0 324 -89 324 -263c0 -152 -93 -258 -322 -258h-580v-93h-90zM764 533h-604v-360h604c71 0 208 16 208 179c0 164 -137 181 -208 181z" />
    <glyph glyph-name="ydieresis" unicode="&#xff;" horiz-adv-x="900" 
d="M405 0v231l-445 469h121l369 -387l369 387h121l-445 -469v-231h-90zM299 750v82h92v-82h-92zM509 750v82h92v-82h-92z" />
    <glyph glyph-name="A" unicode="A" horiz-adv-x="963" 
d="M542 700l451 -700h-106l-100 155h-617l-104 -155h-96l451 700h121zM485 625l-265 -395h519z" />
    <glyph glyph-name="Abreve" unicode="&#x102;" horiz-adv-x="963" 
d="M542 700l451 -700h-106l-100 155h-617l-104 -155h-96l451 700h121zM485 625l-265 -395h519zM590 857h62c-13 -78 -98 -107 -171 -107c-78 0 -155 28 -171 107h62c12 -32 44 -43 109 -43c67 0 94 14 109 43z" />
    <glyph glyph-name="Amacron" unicode="&#x100;" horiz-adv-x="963" 
d="M542 700l451 -700h-106l-100 155h-617l-104 -155h-96l451 700h121zM485 625l-265 -395h519zM246 749v72h470v-72h-470z" />
    <glyph glyph-name="Aogonek" unicode="&#x104;" horiz-adv-x="963" 
d="M542 700l451 -700h-59c-72 -33 -103 -62 -103 -98c0 -27 17 -43 66 -43c15 0 38 3 59 11l5 -22c-25 -11 -72 -21 -115 -21c-51 0 -97 15 -97 55c0 52 54 95 138 118l-100 155h-617l-104 -155h-96l451 700h121zM485 625l-265 -395h519z" />
    <glyph glyph-name="Cacute" unicode="&#x106;" horiz-adv-x="1131" 
d="M729 632h-304c-161 0 -305 -83 -305 -283s144 -282 305 -282h304c116 0 223 43 274 142h98c-46 -126 -158 -219 -367 -219h-314c-280 0 -390 168 -390 358c0 189 110 362 390 362h314c204 0 314 -90 362 -210h-99c-53 91 -156 132 -268 132zM749 894l-153 -144h-81
l91 144h143z" />
    <glyph glyph-name="Ccaron" unicode="&#x10c;" horiz-adv-x="1131" 
d="M729 632h-304c-161 0 -305 -83 -305 -283s144 -282 305 -282h304c116 0 223 43 274 142h98c-46 -126 -158 -219 -367 -219h-314c-280 0 -390 168 -390 358c0 189 110 362 390 362h314c204 0 314 -90 362 -210h-99c-53 91 -156 132 -268 132zM550 750l-151 144h120l68 -76
l68 76h112l-140 -144h-77z" />
    <glyph glyph-name="Ccircumflex" unicode="&#x108;" horiz-adv-x="1131" 
d="M729 632h-304c-161 0 -305 -83 -305 -283s144 -282 305 -282h304c116 0 223 43 274 142h98c-46 -126 -158 -219 -367 -219h-314c-280 0 -390 168 -390 358c0 189 110 362 390 362h314c204 0 314 -90 362 -210h-99c-53 91 -156 132 -268 132zM609 894l151 -144h-120
l-68 76l-68 -76h-112l140 144h77z" />
    <glyph glyph-name="Cdotaccent" unicode="&#x10a;" horiz-adv-x="1131" 
d="M729 632h-304c-161 0 -305 -83 -305 -283s144 -282 305 -282h304c116 0 223 43 274 142h98c-46 -126 -158 -219 -367 -219h-314c-280 0 -390 168 -390 358c0 189 110 362 390 362h314c204 0 314 -90 362 -210h-99c-53 91 -156 132 -268 132zM519 750v82h92v-82h-92z" />
    <glyph glyph-name="Dcaron" unicode="&#x10e;" horiz-adv-x="1181" 
d="M70 0v700h691c280 0 390 -163 390 -352c0 -190 -110 -348 -390 -348h-691zM756 622h-596v-545h596c161 0 305 72 305 272s-144 273 -305 273zM529 750l-151 144h120l68 -76l68 76h112l-140 -144h-77z" />
    <glyph glyph-name="Dcroat" unicode="&#x110;" horiz-adv-x="1181" 
d="M0 304v90h70v306h691c280 0 390 -163 390 -352c0 -190 -110 -348 -390 -348h-691v304h-70zM756 622h-596v-228h447v-90h-447v-227h596c161 0 305 72 305 272s-144 273 -305 273z" />
    <glyph glyph-name="Delta" unicode="&#x394;" horiz-adv-x="963" 
d="M421 700h121l421 -654v-46h-963v46zM485 625l-369 -550h723z" />
    <glyph glyph-name="Delta" unicode="&#x2206;" horiz-adv-x="963" 
d="M421 700h121l421 -654v-46h-963v46zM485 625l-369 -550h723z" />
    <glyph glyph-name="Ecaron" unicode="&#x11a;" horiz-adv-x="1070" 
d="M1045 620h-885v-230h823v-80h-823v-230h885v-80h-975v700h975v-80zM532 750l-151 144h120l68 -76l68 76h112l-140 -144h-77z" />
    <glyph glyph-name="Edotaccent" unicode="&#x116;" horiz-adv-x="1070" 
d="M1045 620h-885v-230h823v-80h-823v-230h885v-80h-975v700h975v-80zM519 750v82h92v-82h-92z" />
    <glyph glyph-name="Emacron" unicode="&#x112;" horiz-adv-x="1070" 
d="M1045 620h-885v-230h823v-80h-823v-230h885v-80h-975v700h975v-80zM330 749v72h470v-72h-470z" />
    <glyph glyph-name="Eng" unicode="&#x14a;" horiz-adv-x="1080" 
d="M486 -199v77h129c115 0 222 32 273 131l-728 595v-604h-90v701h116l730 -597c3 19 4 36 4 56v540h90v-541c0 -210 -110 -358 -390 -358h-134z" />
    <glyph glyph-name="Eogonek" unicode="&#x118;" horiz-adv-x="1070" 
d="M1045 620h-885v-230h823v-80h-823v-230h885v-80h-145c-72 -33 -103 -62 -103 -98c0 -27 17 -43 66 -43c15 0 38 3 59 11l5 -22c-25 -11 -72 -21 -115 -21c-51 0 -97 15 -97 55c0 52 53 95 137 118h-782v700h975v-80z" />
    <glyph glyph-name="Gbreve" unicode="&#x11e;" horiz-adv-x="1173" 
d="M729 632h-304c-161 0 -305 -83 -305 -283s144 -282 305 -282h354c106 0 174 10 243 199h-479v84h575v-350h-67l-13 124c-32 -88 -107 -134 -234 -134h-384c-280 0 -390 168 -390 358c0 189 110 362 390 362h314c204 0 314 -90 362 -210h-99c-53 91 -156 132 -268 132z
M695 857h62c-13 -78 -98 -107 -171 -107c-78 0 -155 28 -171 107h62c12 -32 44 -43 109 -43c67 0 94 14 109 43z" />
    <glyph glyph-name="Gcircumflex" unicode="&#x11c;" horiz-adv-x="1173" 
d="M729 632h-304c-161 0 -305 -83 -305 -283s144 -282 305 -282h354c106 0 174 10 243 199h-479v84h575v-350h-67l-13 124c-32 -88 -107 -134 -234 -134h-384c-280 0 -390 168 -390 358c0 189 110 362 390 362h314c204 0 314 -90 362 -210h-99c-53 91 -156 132 -268 132z
M619 894l151 -144h-120l-68 76l-68 -76h-112l140 144h77z" />
    <glyph glyph-name="Gcommaaccent" unicode="&#x122;" horiz-adv-x="1173" 
d="M729 632h-304c-161 0 -305 -83 -305 -283s144 -282 305 -282h354c106 0 174 10 243 199h-479v84h575v-350h-67l-13 124c-32 -88 -107 -134 -234 -134h-384c-280 0 -390 168 -390 358c0 189 110 362 390 362h314c204 0 314 -90 362 -210h-99c-53 91 -156 132 -268 132z
M541 -130v80h90v-83c0 -71 -18 -95 -90 -95v27c39 0 54 8 54 57v14h-54z" />
    <glyph glyph-name="Gdotaccent" unicode="&#x120;" horiz-adv-x="1173" 
d="M729 632h-304c-161 0 -305 -83 -305 -283s144 -282 305 -282h354c106 0 174 10 243 199h-479v84h575v-350h-67l-13 124c-32 -88 -107 -134 -234 -134h-384c-280 0 -390 168 -390 358c0 189 110 362 390 362h314c204 0 314 -90 362 -210h-99c-53 91 -156 132 -268 132z
M540 750v82h92v-82h-92z" />
    <glyph glyph-name="Hbar" unicode="&#x126;" horiz-adv-x="1224" 
d="M0 541v62h70v97h90v-97h904v97h90v-97h70v-62h-70v-541h-90v314h-904v-314h-90v541h-70zM160 394h904v147h-904v-147z" />
    <glyph glyph-name="Hcircumflex" unicode="&#x124;" horiz-adv-x="1224" 
d="M1064 0v314h-904v-314h-90v700h90v-306h904v306h90v-700h-90zM645 894l151 -144h-120l-68 76l-68 -76h-112l140 144h77z" />
    <glyph glyph-name="Idotaccent" unicode="&#x130;" 
d="M70 0v700h90v-700h-90zM69 750v82h92v-82h-92z" />
    <glyph glyph-name="Imacron" unicode="&#x12a;" 
d="M70 0v700h90v-700h-90zM-120 749v72h470v-72h-470z" />
    <glyph glyph-name="Iogonek" unicode="&#x12e;" 
d="M70 0v700h90v-700h-23c-72 -33 -103 -62 -103 -98c0 -27 17 -43 66 -43c15 0 38 3 59 11l5 -22c-25 -11 -72 -21 -115 -21c-51 0 -97 15 -97 55c0 52 53 95 137 118h-19z" />
    <glyph glyph-name="Itilde" unicode="&#x128;" 
d="M70 0v700h90v-700h-90zM273 883h56c-13 -101 -54 -114 -101 -114c-52 0 -192 48 -216 48c-32 0 -42 -11 -50 -47h-61c19 104 79 113 117 113c33 0 178 -48 212 -48c19 0 34 5 43 48z" />
    <glyph glyph-name="Jcircumflex" unicode="&#x134;" horiz-adv-x="1012" 
d="M567 -10h-161c-235 0 -349 103 -381 260h92c37 -140 161 -183 294 -183h151c161 0 305 62 305 282v351h90v-352c0 -210 -110 -358 -390 -358zM946 894l151 -144h-120l-68 76l-68 -76h-112l140 144h77z" />
    <glyph glyph-name="Kcommaaccent" unicode="&#x136;" horiz-adv-x="805" 
d="M638 700h154l-571 -318l619 -382h-162l-528 331v-331h-80v700h80v-275zM327 -130v80h90v-83c0 -71 -18 -95 -90 -95v27c39 0 54 8 54 57v14h-54z" />
    <glyph glyph-name="Lacute" unicode="&#x139;" horiz-adv-x="1015" 
d="M160 80h845v-80h-935v700h90v-620zM285 894l-153 -144h-81l91 144h143z" />
    <glyph glyph-name="Lcaron" unicode="&#x13d;" horiz-adv-x="1015" 
d="M160 80h845v-80h-935v700h90v-620zM760 620v80h90v-83c0 -71 -18 -95 -90 -95v27c39 0 54 8 54 57v14h-54z" />
    <glyph glyph-name="Lcommaaccent" unicode="&#x13b;" horiz-adv-x="1015" 
d="M160 80h845v-80h-935v700h90v-620zM505 -130v80h90v-83c0 -71 -18 -95 -90 -95v27c39 0 54 8 54 57v14h-54z" />
    <glyph glyph-name="Nacute" unicode="&#x143;" horiz-adv-x="1080" 
d="M1010 700v-700h-110l-740 604v-604h-90v701h116l734 -599v598h90zM741 894l-153 -144h-81l91 144h143z" />
    <glyph glyph-name="Ncaron" unicode="&#x147;" horiz-adv-x="1080" 
d="M1010 700v-700h-110l-740 604v-604h-90v701h116l734 -599v598h90zM540 750l-151 144h120l68 -76l68 76h112l-140 -144h-77z" />
    <glyph glyph-name="Ncommaaccent" unicode="&#x145;" horiz-adv-x="1080" 
d="M1010 700v-700h-110l-740 604v-604h-90v701h116l734 -599v598h90zM475 -130v80h90v-83c0 -71 -18 -95 -90 -95v27c39 0 54 8 54 57v14h-54z" />
    <glyph glyph-name="Ohungarumlaut" unicode="&#x150;" horiz-adv-x="1196" 
d="M776 -10h-356c-280 0 -390 168 -390 358c0 189 110 362 390 362h356c280 0 390 -173 390 -362c0 -190 -110 -358 -390 -358zM771 632h-346c-161 0 -305 -83 -305 -283s144 -282 305 -282h346c161 0 305 82 305 282s-144 283 -305 283zM672 894l-153 -144h-81l91 144h143z
M871 894l-153 -144h-81l91 144h143z" />
    <glyph glyph-name="Omacron" unicode="&#x14c;" horiz-adv-x="1196" 
d="M776 -10h-356c-280 0 -390 168 -390 358c0 189 110 362 390 362h356c280 0 390 -173 390 -362c0 -190 -110 -358 -390 -358zM771 632h-346c-161 0 -305 -83 -305 -283s144 -282 305 -282h346c161 0 305 82 305 282s-144 283 -305 283zM363 749v72h470v-72h-470z" />
    <glyph glyph-name="Racute" unicode="&#x154;" horiz-adv-x="1096" 
d="M941 337c88 -27 126 -89 127 -168c0 -104 12 -134 28 -169h-90c-23 51 -26 100 -26 151c0 89 -78 139 -162 139h-658v-290h-90v701h666c229 0 322 -41 322 -205c0 -65 -30 -127 -117 -159zM160 620v-250h602c71 0 208 12 208 124c0 123 -137 126 -208 126h-602zM714 894
l-153 -144h-81l91 144h143z" />
    <glyph glyph-name="Rcaron" unicode="&#x158;" horiz-adv-x="1096" 
d="M941 337c88 -27 126 -89 127 -168c0 -104 12 -134 28 -169h-90c-23 51 -26 100 -26 151c0 89 -78 139 -162 139h-658v-290h-90v701h666c229 0 322 -41 322 -205c0 -65 -30 -127 -117 -159zM160 620v-250h602c71 0 208 12 208 124c0 123 -137 126 -208 126h-602zM515 750
l-151 144h120l68 -76l68 76h112l-140 -144h-77z" />
    <glyph glyph-name="Rcommaaccent" unicode="&#x156;" horiz-adv-x="1096" 
d="M941 337c88 -27 126 -89 127 -168c0 -104 12 -134 28 -169h-90c-23 51 -26 100 -26 151c0 89 -78 139 -162 139h-658v-290h-90v701h666c229 0 322 -41 322 -205c0 -65 -30 -127 -117 -159zM160 620v-250h602c71 0 208 12 208 124c0 123 -137 126 -208 126h-602zM503 -130
v80h90v-83c0 -71 -18 -95 -90 -95v27c39 0 54 8 54 57v14h-54z" />
    <glyph glyph-name="Sacute" unicode="&#x15a;" horiz-adv-x="1081" 
d="M307 79h479c107 0 176 24 176 116c0 93 -68 115 -175 115h-468c-156 0 -278 31 -278 196c0 167 123 194 279 194h435c203 0 256 -90 283 -210h-99c-32 92 -78 131 -189 131h-439c-107 0 -176 -24 -176 -116c0 -94 68 -114 175 -114h468c156 0 278 -32 278 -197
c0 -167 -123 -194 -279 -194h-475c-202 0 -255 90 -282 210h99c32 -92 77 -131 188 -131zM734 894l-153 -144h-81l91 144h143z" />
    <glyph glyph-name="Scedilla" unicode="&#x15e;" horiz-adv-x="1081" 
d="M431 -139l9 21c25 -7 51 -11 83 -11c49 0 102 9 102 40c0 20 -20 31 -45 31c-27 0 -57 -11 -78 -32l-11 7l58 83h-247c-202 0 -255 90 -282 210h99c32 -92 77 -131 188 -131h479c107 0 176 24 176 116c0 93 -68 115 -175 115h-468c-156 0 -278 31 -278 196
c0 167 123 194 279 194h435c203 0 256 -90 283 -210h-99c-32 92 -78 131 -189 131h-439c-107 0 -176 -24 -176 -116c0 -94 68 -114 175 -114h468c156 0 278 -32 278 -197c0 -167 -123 -194 -279 -194h-192l-33 -42c19 7 38 9 57 9c48 0 101 -14 101 -67
c0 -50 -53 -64 -114 -64c-67 0 -141 17 -165 25z" />
    <glyph glyph-name="Scircumflex" unicode="&#x15c;" horiz-adv-x="1081" 
d="M307 79h479c107 0 176 24 176 116c0 93 -68 115 -175 115h-468c-156 0 -278 31 -278 196c0 167 123 194 279 194h435c203 0 256 -90 283 -210h-99c-32 92 -78 131 -189 131h-439c-107 0 -176 -24 -176 -116c0 -94 68 -114 175 -114h468c156 0 278 -32 278 -197
c0 -167 -123 -194 -279 -194h-475c-202 0 -255 90 -282 210h99c32 -92 77 -131 188 -131zM573 894l151 -144h-120l-68 76l-68 -76h-112l140 144h77z" />
    <glyph glyph-name="Scommaaccent" unicode="&#x218;" horiz-adv-x="1081" 
d="M307 79h479c107 0 176 24 176 116c0 93 -68 115 -175 115h-468c-156 0 -278 31 -278 196c0 167 123 194 279 194h435c203 0 256 -90 283 -210h-99c-32 92 -78 131 -189 131h-439c-107 0 -176 -24 -176 -116c0 -94 68 -114 175 -114h468c156 0 278 -32 278 -197
c0 -167 -123 -194 -279 -194h-475c-202 0 -255 90 -282 210h99c32 -92 77 -131 188 -131zM495 -130v80h90v-83c0 -71 -18 -95 -90 -95v27c39 0 54 8 54 57v14h-54z" />
    <glyph glyph-name="Tbar" unicode="&#x166;" horiz-adv-x="1023" 
d="M276 313v72h191v235h-457v80h1003v-80h-456v-235h189v-72h-189v-313h-90v313h-191z" />
    <glyph glyph-name="Tcaron" unicode="&#x164;" horiz-adv-x="1023" 
d="M1013 620h-456v-620h-90v620h-457v80h1003v-80zM478 750l-151 144h120l68 -76l68 76h112l-140 -144h-77z" />
    <glyph glyph-name="Tcommaaccent" unicode="&#x162;" horiz-adv-x="1023" 
d="M1013 620h-456v-620h-90v620h-457v80h1003v-80zM466 -130v80h90v-83c0 -71 -18 -95 -90 -95v27c39 0 54 8 54 57v14h-54z" />
    <glyph glyph-name="Ubreve" unicode="&#x16c;" horiz-adv-x="1191" 
d="M746 -10h-301c-280 0 -390 148 -390 358v352h90v-351c0 -220 144 -282 305 -282h291c161 0 305 62 305 282v351h90v-352c0 -210 -110 -358 -390 -358zM704 857h62c-13 -78 -98 -107 -171 -107c-78 0 -155 28 -171 107h62c12 -32 44 -43 109 -43c67 0 94 14 109 43z" />
    <glyph glyph-name="Uhungarumlaut" unicode="&#x170;" horiz-adv-x="1191" 
d="M746 -10h-301c-280 0 -390 148 -390 358v352h90v-351c0 -220 144 -282 305 -282h291c161 0 305 62 305 282v351h90v-352c0 -210 -110 -358 -390 -358zM684 894l-153 -144h-81l91 144h143zM883 894l-153 -144h-81l91 144h143z" />
    <glyph glyph-name="Umacron" unicode="&#x16a;" horiz-adv-x="1191" 
d="M746 -10h-301c-280 0 -390 148 -390 358v352h90v-351c0 -220 144 -282 305 -282h291c161 0 305 62 305 282v351h90v-352c0 -210 -110 -358 -390 -358zM360 749v72h470v-72h-470z" />
    <glyph glyph-name="Uogonek" unicode="&#x172;" horiz-adv-x="1191" 
d="M1136 700v-352c0 -206 -107 -354 -379 -357c-59 -31 -83 -56 -83 -89c0 -27 17 -43 66 -43c15 0 38 3 59 11l5 -22c-25 -11 -72 -21 -115 -21c-51 0 -97 15 -97 55c0 45 40 84 105 108h-252c-280 0 -390 148 -390 358v352h90v-351c0 -220 144 -282 305 -282h291
c161 0 305 62 305 282v351h90z" />
    <glyph glyph-name="Uring" unicode="&#x16e;" horiz-adv-x="1191" 
d="M746 -10h-301c-280 0 -390 148 -390 358v352h90v-351c0 -220 144 -282 305 -282h291c161 0 305 62 305 282v351h90v-352c0 -210 -110 -358 -390 -358zM493 838c0 56 46 102 102 102s102 -46 102 -102s-46 -102 -102 -102s-102 46 -102 102zM538 838c0 -32 25 -57 57 -57
s57 25 57 57s-25 57 -57 57s-57 -25 -57 -57z" />
    <glyph glyph-name="Utilde" unicode="&#x168;" horiz-adv-x="1191" 
d="M746 -10h-301c-280 0 -390 148 -390 358v352h90v-351c0 -220 144 -282 305 -282h291c161 0 305 62 305 282v351h90v-352c0 -210 -110 -358 -390 -358zM753 883h56c-13 -101 -54 -114 -101 -114c-52 0 -192 48 -216 48c-32 0 -42 -11 -50 -47h-61c19 104 79 113 117 113
c33 0 178 -48 212 -48c19 0 34 5 43 48z" />
    <glyph glyph-name="Wacute" unicode="&#x1e82;" horiz-adv-x="1296" 
d="M373 75l222 625h106l222 -625l277 625h96l-309 -700h-121l-218 583l-218 -583h-121l-309 700h96zM814 894l-153 -144h-81l91 144h143z" />
    <glyph glyph-name="Wcircumflex" unicode="&#x174;" horiz-adv-x="1296" 
d="M373 75l222 625h106l222 -625l277 625h96l-309 -700h-121l-218 583l-218 -583h-121l-309 700h96zM681 894l151 -144h-120l-68 76l-68 -76h-112l140 144h77z" />
    <glyph glyph-name="Wdieresis" unicode="&#x1e84;" horiz-adv-x="1296" 
d="M373 75l222 625h106l222 -625l277 625h96l-309 -700h-121l-218 583l-218 -583h-121l-309 700h96zM497 750v82h92v-82h-92zM707 750v82h92v-82h-92z" />
    <glyph glyph-name="Wgrave" unicode="&#x1e80;" horiz-adv-x="1296" 
d="M373 75l222 625h106l222 -625l277 625h96l-309 -700h-121l-218 583l-218 -583h-121l-309 700h96zM647 750l-153 144h143l91 -144h-81z" />
    <glyph glyph-name="Ycircumflex" unicode="&#x176;" horiz-adv-x="900" 
d="M405 0v231l-445 469h121l369 -387l369 387h121l-445 -469v-231h-90zM483 894l151 -144h-120l-68 76l-68 -76h-112l140 144h77z" />
    <glyph glyph-name="Ygrave" unicode="&#x1ef2;" horiz-adv-x="900" 
d="M405 0v231l-445 469h121l369 -387l369 387h121l-445 -469v-231h-90zM443 750l-153 144h143l91 -144h-81z" />
    <glyph glyph-name="Zacute" unicode="&#x179;" horiz-adv-x="1043" 
d="M1001 633l-815 -553h837v-80h-1003v73l808 547h-785v80h958v-67zM668 894l-153 -144h-81l91 144h143z" />
    <glyph glyph-name="Zdotaccent" unicode="&#x17b;" horiz-adv-x="1043" 
d="M1001 633l-815 -553h837v-80h-1003v73l808 547h-785v80h958v-67zM475 750v82h92v-82h-92z" />
    <glyph glyph-name="abreve" unicode="&#x103;" horiz-adv-x="963" 
d="M542 700l451 -700h-106l-100 155h-617l-104 -155h-96l451 700h121zM485 625l-265 -395h519zM590 857h62c-13 -78 -98 -107 -171 -107c-78 0 -155 28 -171 107h62c12 -32 44 -43 109 -43c67 0 94 14 109 43z" />
    <glyph glyph-name="amacron" unicode="&#x101;" horiz-adv-x="963" 
d="M542 700l451 -700h-106l-100 155h-617l-104 -155h-96l451 700h121zM485 625l-265 -395h519zM246 749v72h470v-72h-470z" />
    <glyph glyph-name="aogonek" unicode="&#x105;" horiz-adv-x="963" 
d="M542 700l451 -700h-59c-72 -33 -103 -62 -103 -98c0 -27 17 -43 66 -43c15 0 38 3 59 11l5 -22c-25 -11 -72 -21 -115 -21c-51 0 -97 15 -97 55c0 52 54 95 138 118l-100 155h-617l-104 -155h-96l451 700h121zM485 625l-265 -395h519z" />
    <glyph glyph-name="apple" unicode="&#xf8ff;" horiz-adv-x="875" 
d="M848 530h-54v170h54v-25h-32v-49h30v-24h-30v-51h32v-21zM782 662v-27c0 -24 -14 -34 -31 -34h-18v-71h-20v170h38c17 0 31 -11 31 -38zM704 700l-27 -113v-57h-27v57l-25 113h24l14 -75l16 75h25zM624 675h-22v-145h-23v145h-19v25h64v-25zM524 530h-23l-5 35h-24
l-3 -35h-22l22 170h32zM439 662v-99c-3 -24 -15 -33 -31 -33h-40v170h40c16 0 28 -11 31 -38zM358 530h-21l-5 35h-24l-4 -35h-23l23 170h33zM272 530h-30l-27 109l-5 13l3 -14v-108h-23v170h28l28 -117l5 -14l-2 15v116h23v-170zM179 530h-20l-7 35h-24l-3 -35h-23l23 170
h34zM97 585v-23c0 -27 -15 -33 -36 -33c-20 0 -33 6 -36 33v103c3 27 16 36 36 36c21 0 36 -9 36 -36v-27h-24v24c-2 11 -6 17 -12 17c-7 0 -11 -6 -13 -17v-99c3 -11 7 -16 13 -16c5 0 9 5 12 16v22h24zM855 -200h-395v168l156 -32l-45 58l161 127l-71 14l71 93l-104 -40
l-12 77l-110 -103l63 196l-63 -30l-59 107l-66 -107l-50 30l37 -196l-103 103l-10 -77l-103 40l66 -93l-77 -14l173 -127l-49 -58l165 32v-168h-410v698h835v-698zM758 637v25c0 11 -4 16 -12 16h-13v-58h13c8 0 12 6 12 17zM494 589l-9 75c0 6 0 10 -1 11v-11l-10 -75h20z
M415 567v94c0 12 -4 14 -12 14h-12v-126h12c8 0 12 7 12 18zM331 589l-10 75c0 6 -1 10 -2 11v-11l-7 -75h19zM151 589l-8 75c0 6 -1 10 -2 11v-11l-10 -75h20z" />
    <glyph glyph-name="cacute" unicode="&#x107;" horiz-adv-x="1131" 
d="M729 632h-304c-161 0 -305 -83 -305 -283s144 -282 305 -282h304c116 0 223 43 274 142h98c-46 -126 -158 -219 -367 -219h-314c-280 0 -390 168 -390 358c0 189 110 362 390 362h314c204 0 314 -90 362 -210h-99c-53 91 -156 132 -268 132zM749 894l-153 -144h-81
l91 144h143z" />
    <glyph glyph-name="ccaron" unicode="&#x10d;" horiz-adv-x="1131" 
d="M729 632h-304c-161 0 -305 -83 -305 -283s144 -282 305 -282h304c116 0 223 43 274 142h98c-46 -126 -158 -219 -367 -219h-314c-280 0 -390 168 -390 358c0 189 110 362 390 362h314c204 0 314 -90 362 -210h-99c-53 91 -156 132 -268 132zM550 750l-151 144h120l68 -76
l68 76h112l-140 -144h-77z" />
    <glyph glyph-name="ccircumflex" unicode="&#x109;" horiz-adv-x="1131" 
d="M729 632h-304c-161 0 -305 -83 -305 -283s144 -282 305 -282h304c116 0 223 43 274 142h98c-46 -126 -158 -219 -367 -219h-314c-280 0 -390 168 -390 358c0 189 110 362 390 362h314c204 0 314 -90 362 -210h-99c-53 91 -156 132 -268 132zM609 894l151 -144h-120
l-68 76l-68 -76h-112l140 144h77z" />
    <glyph glyph-name="cdotaccent" unicode="&#x10b;" horiz-adv-x="1131" 
d="M729 632h-304c-161 0 -305 -83 -305 -283s144 -282 305 -282h304c116 0 223 43 274 142h98c-46 -126 -158 -219 -367 -219h-314c-280 0 -390 168 -390 358c0 189 110 362 390 362h314c204 0 314 -90 362 -210h-99c-53 91 -156 132 -268 132zM519 750v82h92v-82h-92z" />
    <glyph glyph-name="commaaccent" unicode="&#xf6c3;" horiz-adv-x="190" 
d="M50 -130v80h90v-83c0 -71 -18 -95 -90 -95v27c39 0 54 8 54 57v14h-54z" />
    <glyph glyph-name="dcaron" unicode="&#x10f;" horiz-adv-x="1181" 
d="M70 0v700h691c280 0 390 -163 390 -352c0 -190 -110 -348 -390 -348h-691zM756 622h-596v-545h596c161 0 305 72 305 272s-144 273 -305 273zM529 750l-151 144h120l68 -76l68 76h112l-140 -144h-77z" />
    <glyph glyph-name="dcroat" unicode="&#x111;" horiz-adv-x="1181" 
d="M0 304v90h70v306h691c280 0 390 -163 390 -352c0 -190 -110 -348 -390 -348h-691v304h-70zM756 622h-596v-228h447v-90h-447v-227h596c161 0 305 72 305 272s-144 273 -305 273z" />
    <glyph glyph-name="dotlessj" unicode="&#x237;" horiz-adv-x="1012" 
d="M567 -10h-161c-235 0 -349 103 -381 260h92c37 -140 161 -183 294 -183h151c161 0 305 62 305 282v351h90v-352c0 -210 -110 -358 -390 -358z" />
    <glyph glyph-name="ecaron" unicode="&#x11b;" horiz-adv-x="1070" 
d="M1045 620h-885v-230h823v-80h-823v-230h885v-80h-975v700h975v-80zM532 750l-151 144h120l68 -76l68 76h112l-140 -144h-77z" />
    <glyph glyph-name="edotaccent" unicode="&#x117;" horiz-adv-x="1070" 
d="M1045 620h-885v-230h823v-80h-823v-230h885v-80h-975v700h975v-80zM519 750v82h92v-82h-92z" />
    <glyph glyph-name="emacron" unicode="&#x113;" horiz-adv-x="1070" 
d="M1045 620h-885v-230h823v-80h-823v-230h885v-80h-975v700h975v-80zM330 749v72h470v-72h-470z" />
    <glyph glyph-name="eng" unicode="&#x14b;" horiz-adv-x="1080" 
d="M486 -199v77h129c115 0 222 32 273 131l-728 595v-604h-90v701h116l730 -597c3 19 4 36 4 56v540h90v-541c0 -210 -110 -358 -390 -358h-134z" />
    <glyph glyph-name="eogonek" unicode="&#x119;" horiz-adv-x="1070" 
d="M1045 620h-885v-230h823v-80h-823v-230h885v-80h-145c-72 -33 -103 -62 -103 -98c0 -27 17 -43 66 -43c15 0 38 3 59 11l5 -22c-25 -11 -72 -21 -115 -21c-51 0 -97 15 -97 55c0 52 53 95 137 118h-782v700h975v-80z" />
    <glyph glyph-name="gbreve" unicode="&#x11f;" horiz-adv-x="1173" 
d="M729 632h-304c-161 0 -305 -83 -305 -283s144 -282 305 -282h354c106 0 174 10 243 199h-479v84h575v-350h-67l-13 124c-32 -88 -107 -134 -234 -134h-384c-280 0 -390 168 -390 358c0 189 110 362 390 362h314c204 0 314 -90 362 -210h-99c-53 91 -156 132 -268 132z
M695 857h62c-13 -78 -98 -107 -171 -107c-78 0 -155 28 -171 107h62c12 -32 44 -43 109 -43c67 0 94 14 109 43z" />
    <glyph glyph-name="gcircumflex" unicode="&#x11d;" horiz-adv-x="1173" 
d="M729 632h-304c-161 0 -305 -83 -305 -283s144 -282 305 -282h354c106 0 174 10 243 199h-479v84h575v-350h-67l-13 124c-32 -88 -107 -134 -234 -134h-384c-280 0 -390 168 -390 358c0 189 110 362 390 362h314c204 0 314 -90 362 -210h-99c-53 91 -156 132 -268 132z
M619 894l151 -144h-120l-68 76l-68 -76h-112l140 144h77z" />
    <glyph glyph-name="gcommaaccent" unicode="&#x123;" horiz-adv-x="1173" 
d="M729 632h-304c-161 0 -305 -83 -305 -283s144 -282 305 -282h354c106 0 174 10 243 199h-479v84h575v-350h-67l-13 124c-32 -88 -107 -134 -234 -134h-384c-280 0 -390 168 -390 358c0 189 110 362 390 362h314c204 0 314 -90 362 -210h-99c-53 91 -156 132 -268 132z
M541 -130v80h90v-83c0 -71 -18 -95 -90 -95v27c39 0 54 8 54 57v14h-54z" />
    <glyph glyph-name="gdotaccent" unicode="&#x121;" horiz-adv-x="1173" 
d="M729 632h-304c-161 0 -305 -83 -305 -283s144 -282 305 -282h354c106 0 174 10 243 199h-479v84h575v-350h-67l-13 124c-32 -88 -107 -134 -234 -134h-384c-280 0 -390 168 -390 358c0 189 110 362 390 362h314c204 0 314 -90 362 -210h-99c-53 91 -156 132 -268 132z
M540 750v82h92v-82h-92z" />
    <glyph glyph-name="hbar" unicode="&#x127;" horiz-adv-x="1224" 
d="M0 541v62h70v97h90v-97h904v97h90v-97h70v-62h-70v-541h-90v314h-904v-314h-90v541h-70zM160 394h904v147h-904v-147z" />
    <glyph glyph-name="hcircumflex" unicode="&#x125;" horiz-adv-x="1224" 
d="M1064 0v314h-904v-314h-90v700h90v-306h904v306h90v-700h-90zM645 894l151 -144h-120l-68 76l-68 -76h-112l140 144h77z" />
    <glyph glyph-name="imacron" unicode="&#x12b;" 
d="M70 0v700h90v-700h-90zM-120 749v72h470v-72h-470z" />
    <glyph glyph-name="iogonek" unicode="&#x12f;" 
d="M70 0v700h90v-700h-23c-72 -33 -103 -62 -103 -98c0 -27 17 -43 66 -43c15 0 38 3 59 11l5 -22c-25 -11 -72 -21 -115 -21c-51 0 -97 15 -97 55c0 52 53 95 137 118h-19z" />
    <glyph glyph-name="itilde" unicode="&#x129;" 
d="M70 0v700h90v-700h-90zM273 883h56c-13 -101 -54 -114 -101 -114c-52 0 -192 48 -216 48c-32 0 -42 -11 -50 -47h-61c19 104 79 113 117 113c33 0 178 -48 212 -48c19 0 34 5 43 48z" />
    <glyph glyph-name="jcircumflex" unicode="&#x135;" horiz-adv-x="1012" 
d="M567 -10h-161c-235 0 -349 103 -381 260h92c37 -140 161 -183 294 -183h151c161 0 305 62 305 282v351h90v-352c0 -210 -110 -358 -390 -358zM946 894l151 -144h-120l-68 76l-68 -76h-112l140 144h77z" />
    <glyph glyph-name="kcommaaccent" unicode="&#x137;" horiz-adv-x="805" 
d="M638 700h154l-571 -318l619 -382h-162l-528 331v-331h-80v700h80v-275zM327 -130v80h90v-83c0 -71 -18 -95 -90 -95v27c39 0 54 8 54 57v14h-54z" />
    <glyph glyph-name="kgreenlandic" unicode="&#x138;" horiz-adv-x="805" 
d="M638 700h154l-571 -318l619 -382h-162l-528 331v-331h-80v700h80v-275z" />
    <glyph glyph-name="lacute" unicode="&#x13a;" horiz-adv-x="1015" 
d="M160 80h845v-80h-935v700h90v-620zM285 894l-153 -144h-81l91 144h143z" />
    <glyph glyph-name="lcaron" unicode="&#x13e;" horiz-adv-x="1015" 
d="M160 80h845v-80h-935v700h90v-620zM760 620v80h90v-83c0 -71 -18 -95 -90 -95v27c39 0 54 8 54 57v14h-54z" />
    <glyph glyph-name="lcommaaccent" unicode="&#x13c;" horiz-adv-x="1015" 
d="M160 80h845v-80h-935v700h90v-620zM505 -130v80h90v-83c0 -71 -18 -95 -90 -95v27c39 0 54 8 54 57v14h-54z" />
    <glyph glyph-name="nacute" unicode="&#x144;" horiz-adv-x="1080" 
d="M1010 700v-700h-110l-740 604v-604h-90v701h116l734 -599v598h90zM741 894l-153 -144h-81l91 144h143z" />
    <glyph glyph-name="ncaron" unicode="&#x148;" horiz-adv-x="1080" 
d="M1010 700v-700h-110l-740 604v-604h-90v701h116l734 -599v598h90zM540 750l-151 144h120l68 -76l68 76h112l-140 -144h-77z" />
    <glyph glyph-name="ncommaaccent" unicode="&#x146;" horiz-adv-x="1080" 
d="M1010 700v-700h-110l-740 604v-604h-90v701h116l734 -599v598h90zM475 -130v80h90v-83c0 -71 -18 -95 -90 -95v27c39 0 54 8 54 57v14h-54z" />
    <glyph glyph-name="ohungarumlaut" unicode="&#x151;" horiz-adv-x="1196" 
d="M776 -10h-356c-280 0 -390 168 -390 358c0 189 110 362 390 362h356c280 0 390 -173 390 -362c0 -190 -110 -358 -390 -358zM771 632h-346c-161 0 -305 -83 -305 -283s144 -282 305 -282h346c161 0 305 82 305 282s-144 283 -305 283zM672 894l-153 -144h-81l91 144h143z
M871 894l-153 -144h-81l91 144h143z" />
    <glyph glyph-name="omacron" unicode="&#x14d;" horiz-adv-x="1196" 
d="M776 -10h-356c-280 0 -390 168 -390 358c0 189 110 362 390 362h356c280 0 390 -173 390 -362c0 -190 -110 -358 -390 -358zM771 632h-346c-161 0 -305 -83 -305 -283s144 -282 305 -282h346c161 0 305 82 305 282s-144 283 -305 283zM363 749v72h470v-72h-470z" />
    <glyph glyph-name="pi" unicode="&#x3c0;" horiz-adv-x="1224" 
d="M1064 0v620h-904v-620h-90v700h1084v-700h-90z" />
    <glyph glyph-name="racute" unicode="&#x155;" horiz-adv-x="1096" 
d="M941 337c88 -27 126 -89 127 -168c0 -104 12 -134 28 -169h-90c-23 51 -26 100 -26 151c0 89 -78 139 -162 139h-658v-290h-90v701h666c229 0 322 -41 322 -205c0 -65 -30 -127 -117 -159zM160 620v-250h602c71 0 208 12 208 124c0 123 -137 126 -208 126h-602zM714 894
l-153 -144h-81l91 144h143z" />
    <glyph glyph-name="rcaron" unicode="&#x159;" horiz-adv-x="1096" 
d="M941 337c88 -27 126 -89 127 -168c0 -104 12 -134 28 -169h-90c-23 51 -26 100 -26 151c0 89 -78 139 -162 139h-658v-290h-90v701h666c229 0 322 -41 322 -205c0 -65 -30 -127 -117 -159zM160 620v-250h602c71 0 208 12 208 124c0 123 -137 126 -208 126h-602zM515 750
l-151 144h120l68 -76l68 76h112l-140 -144h-77z" />
    <glyph glyph-name="rcommaaccent" unicode="&#x157;" horiz-adv-x="1096" 
d="M941 337c88 -27 126 -89 127 -168c0 -104 12 -134 28 -169h-90c-23 51 -26 100 -26 151c0 89 -78 139 -162 139h-658v-290h-90v701h666c229 0 322 -41 322 -205c0 -65 -30 -127 -117 -159zM160 620v-250h602c71 0 208 12 208 124c0 123 -137 126 -208 126h-602zM503 -130
v80h90v-83c0 -71 -18 -95 -90 -95v27c39 0 54 8 54 57v14h-54z" />
    <glyph glyph-name="sacute" unicode="&#x15b;" horiz-adv-x="1081" 
d="M307 79h479c107 0 176 24 176 116c0 93 -68 115 -175 115h-468c-156 0 -278 31 -278 196c0 167 123 194 279 194h435c203 0 256 -90 283 -210h-99c-32 92 -78 131 -189 131h-439c-107 0 -176 -24 -176 -116c0 -94 68 -114 175 -114h468c156 0 278 -32 278 -197
c0 -167 -123 -194 -279 -194h-475c-202 0 -255 90 -282 210h99c32 -92 77 -131 188 -131zM734 894l-153 -144h-81l91 144h143z" />
    <glyph glyph-name="scedilla" unicode="&#x15f;" horiz-adv-x="1081" 
d="M431 -139l9 21c25 -7 51 -11 83 -11c49 0 102 9 102 40c0 20 -20 31 -45 31c-27 0 -57 -11 -78 -32l-11 7l58 83h-247c-202 0 -255 90 -282 210h99c32 -92 77 -131 188 -131h479c107 0 176 24 176 116c0 93 -68 115 -175 115h-468c-156 0 -278 31 -278 196
c0 167 123 194 279 194h435c203 0 256 -90 283 -210h-99c-32 92 -78 131 -189 131h-439c-107 0 -176 -24 -176 -116c0 -94 68 -114 175 -114h468c156 0 278 -32 278 -197c0 -167 -123 -194 -279 -194h-192l-33 -42c19 7 38 9 57 9c48 0 101 -14 101 -67
c0 -50 -53 -64 -114 -64c-67 0 -141 17 -165 25z" />
    <glyph glyph-name="scircumflex" unicode="&#x15d;" horiz-adv-x="1081" 
d="M307 79h479c107 0 176 24 176 116c0 93 -68 115 -175 115h-468c-156 0 -278 31 -278 196c0 167 123 194 279 194h435c203 0 256 -90 283 -210h-99c-32 92 -78 131 -189 131h-439c-107 0 -176 -24 -176 -116c0 -94 68 -114 175 -114h468c156 0 278 -32 278 -197
c0 -167 -123 -194 -279 -194h-475c-202 0 -255 90 -282 210h99c32 -92 77 -131 188 -131zM573 894l151 -144h-120l-68 76l-68 -76h-112l140 144h77z" />
    <glyph glyph-name="scommaaccent" unicode="&#x219;" horiz-adv-x="1081" 
d="M307 79h479c107 0 176 24 176 116c0 93 -68 115 -175 115h-468c-156 0 -278 31 -278 196c0 167 123 194 279 194h435c203 0 256 -90 283 -210h-99c-32 92 -78 131 -189 131h-439c-107 0 -176 -24 -176 -116c0 -94 68 -114 175 -114h468c156 0 278 -32 278 -197
c0 -167 -123 -194 -279 -194h-475c-202 0 -255 90 -282 210h99c32 -92 77 -131 188 -131zM495 -130v80h90v-83c0 -71 -18 -95 -90 -95v27c39 0 54 8 54 57v14h-54z" />
    <glyph glyph-name="tbar" unicode="&#x167;" horiz-adv-x="1023" 
d="M276 313v72h191v235h-457v80h1003v-80h-456v-235h189v-72h-189v-313h-90v313h-191z" />
    <glyph glyph-name="tcaron" unicode="&#x165;" horiz-adv-x="1023" 
d="M1013 620h-456v-620h-90v620h-457v80h1003v-80zM478 750l-151 144h120l68 -76l68 76h112l-140 -144h-77z" />
    <glyph glyph-name="tcommaaccent" unicode="&#x163;" horiz-adv-x="1023" 
d="M1013 620h-456v-620h-90v620h-457v80h1003v-80zM466 -130v80h90v-83c0 -71 -18 -95 -90 -95v27c39 0 54 8 54 57v14h-54z" />
    <glyph glyph-name="ubreve" unicode="&#x16d;" horiz-adv-x="1191" 
d="M746 -10h-301c-280 0 -390 148 -390 358v352h90v-351c0 -220 144 -282 305 -282h291c161 0 305 62 305 282v351h90v-352c0 -210 -110 -358 -390 -358zM704 857h62c-13 -78 -98 -107 -171 -107c-78 0 -155 28 -171 107h62c12 -32 44 -43 109 -43c67 0 94 14 109 43z" />
    <glyph glyph-name="uhungarumlaut" unicode="&#x171;" horiz-adv-x="1191" 
d="M746 -10h-301c-280 0 -390 148 -390 358v352h90v-351c0 -220 144 -282 305 -282h291c161 0 305 62 305 282v351h90v-352c0 -210 -110 -358 -390 -358zM684 894l-153 -144h-81l91 144h143zM883 894l-153 -144h-81l91 144h143z" />
    <glyph glyph-name="umacron" unicode="&#x16b;" horiz-adv-x="1191" 
d="M746 -10h-301c-280 0 -390 148 -390 358v352h90v-351c0 -220 144 -282 305 -282h291c161 0 305 62 305 282v351h90v-352c0 -210 -110 -358 -390 -358zM360 749v72h470v-72h-470z" />
    <glyph glyph-name="uni1E02" unicode="&#x1e02;" horiz-adv-x="1135" 
d="M70 0v700h777c147 0 223 -72 223 -185c0 -62 -43 -132 -97 -156c92 -24 122 -100 122 -152c0 -137 -60 -207 -219 -207h-806zM160 309v-229h721c108 0 120 87 120 115c0 27 -12 114 -120 114h-721zM160 619v-229h696c108 0 120 87 120 115c0 27 -12 114 -120 114h-696z
M521 750v82h92v-82h-92z" />
    <glyph glyph-name="uni1E03" unicode="&#x1e03;" horiz-adv-x="1135" 
d="M70 0v700h777c147 0 223 -72 223 -185c0 -62 -43 -132 -97 -156c92 -24 122 -100 122 -152c0 -137 -60 -207 -219 -207h-806zM160 309v-229h721c108 0 120 87 120 115c0 27 -12 114 -120 114h-721zM160 619v-229h696c108 0 120 87 120 115c0 27 -12 114 -120 114h-696z
M521 750v82h92v-82h-92z" />
    <glyph glyph-name="uni1E0A" unicode="&#x1e0a;" horiz-adv-x="1181" 
d="M70 0v700h691c280 0 390 -163 390 -352c0 -190 -110 -348 -390 -348h-691zM756 622h-596v-545h596c161 0 305 72 305 272s-144 273 -305 273zM544 750v82h92v-82h-92z" />
    <glyph glyph-name="uni1E0B" unicode="&#x1e0b;" horiz-adv-x="1181" 
d="M70 0v700h691c280 0 390 -163 390 -352c0 -190 -110 -348 -390 -348h-691zM756 622h-596v-545h596c161 0 305 72 305 272s-144 273 -305 273zM544 750v82h92v-82h-92z" />
    <glyph glyph-name="uni1E1E" unicode="&#x1e1e;" horiz-adv-x="999" 
d="M989 620h-829v-260h767v-80h-767v-280h-90v700h919v-80zM453 750v82h92v-82h-92z" />
    <glyph glyph-name="uni1E1F" unicode="&#x1e1f;" horiz-adv-x="999" 
d="M989 620h-829v-260h767v-80h-767v-280h-90v700h919v-80zM453 750v82h92v-82h-92z" />
    <glyph glyph-name="uni1E40" unicode="&#x1e40;" horiz-adv-x="1277" 
d="M160 0h-90v700h116l454 -574l446 574h121v-700h-90v587l-455 -587h-41l-461 586v-586zM592 750v82h92v-82h-92z" />
    <glyph glyph-name="uni1E41" unicode="&#x1e41;" horiz-adv-x="1277" 
d="M160 0h-90v700h116l454 -574l446 574h121v-700h-90v587l-455 -587h-41l-461 586v-586zM592 750v82h92v-82h-92z" />
    <glyph glyph-name="uni1E56" unicode="&#x1e56;" horiz-adv-x="1082" 
d="M70 0v701h668c229 0 324 -89 324 -263c0 -152 -93 -258 -322 -258h-580v-180h-90zM160 620v-360h604c71 0 208 16 208 179c0 164 -137 181 -208 181h-604zM495 750v82h92v-82h-92z" />
    <glyph glyph-name="uni1E57" unicode="&#x1e57;" horiz-adv-x="1082" 
d="M70 0v701h668c229 0 324 -89 324 -263c0 -152 -93 -258 -322 -258h-580v-180h-90zM160 620v-360h604c71 0 208 16 208 179c0 164 -137 181 -208 181h-604zM495 750v82h92v-82h-92z" />
    <glyph glyph-name="uni1E60" unicode="&#x1e60;" horiz-adv-x="1081" 
d="M307 79h479c107 0 176 24 176 116c0 93 -68 115 -175 115h-468c-156 0 -278 31 -278 196c0 167 123 194 279 194h435c203 0 256 -90 283 -210h-99c-32 92 -78 131 -189 131h-439c-107 0 -176 -24 -176 -116c0 -94 68 -114 175 -114h468c156 0 278 -32 278 -197
c0 -167 -123 -194 -279 -194h-475c-202 0 -255 90 -282 210h99c32 -92 77 -131 188 -131zM494 750v82h92v-82h-92z" />
    <glyph glyph-name="uni1E61" unicode="&#x1e61;" horiz-adv-x="1081" 
d="M307 79h479c107 0 176 24 176 116c0 93 -68 115 -175 115h-468c-156 0 -278 31 -278 196c0 167 123 194 279 194h435c203 0 256 -90 283 -210h-99c-32 92 -78 131 -189 131h-439c-107 0 -176 -24 -176 -116c0 -94 68 -114 175 -114h468c156 0 278 -32 278 -197
c0 -167 -123 -194 -279 -194h-475c-202 0 -255 90 -282 210h99c32 -92 77 -131 188 -131zM494 750v82h92v-82h-92z" />
    <glyph glyph-name="uni1E6A" unicode="&#x1e6a;" horiz-adv-x="1023" 
d="M1013 620h-456v-620h-90v620h-457v80h1003v-80zM465 750v82h92v-82h-92z" />
    <glyph glyph-name="uni1E6B" unicode="&#x1e6b;" horiz-adv-x="1023" 
d="M1013 620h-456v-620h-90v620h-457v80h1003v-80zM465 750v82h92v-82h-92z" />
    <glyph glyph-name="uogonek" unicode="&#x173;" horiz-adv-x="1191" 
d="M1136 700v-352c0 -206 -107 -354 -379 -357c-59 -31 -83 -56 -83 -89c0 -27 17 -43 66 -43c15 0 38 3 59 11l5 -22c-25 -11 -72 -21 -115 -21c-51 0 -97 15 -97 55c0 45 40 84 105 108h-252c-280 0 -390 148 -390 358v352h90v-351c0 -220 144 -282 305 -282h291
c161 0 305 62 305 282v351h90z" />
    <glyph glyph-name="uring" unicode="&#x16f;" horiz-adv-x="1191" 
d="M746 -10h-301c-280 0 -390 148 -390 358v352h90v-351c0 -220 144 -282 305 -282h291c161 0 305 62 305 282v351h90v-352c0 -210 -110 -358 -390 -358zM493 838c0 56 46 102 102 102s102 -46 102 -102s-46 -102 -102 -102s-102 46 -102 102zM538 838c0 -32 25 -57 57 -57
s57 25 57 57s-25 57 -57 57s-57 -25 -57 -57z" />
    <glyph glyph-name="utilde" unicode="&#x169;" horiz-adv-x="1191" 
d="M746 -10h-301c-280 0 -390 148 -390 358v352h90v-351c0 -220 144 -282 305 -282h291c161 0 305 62 305 282v351h90v-352c0 -210 -110 -358 -390 -358zM753 883h56c-13 -101 -54 -114 -101 -114c-52 0 -192 48 -216 48c-32 0 -42 -11 -50 -47h-61c19 104 79 113 117 113
c33 0 178 -48 212 -48c19 0 34 5 43 48z" />
    <glyph glyph-name="wacute" unicode="&#x1e83;" horiz-adv-x="1296" 
d="M373 75l222 625h106l222 -625l277 625h96l-309 -700h-121l-218 583l-218 -583h-121l-309 700h96zM814 894l-153 -144h-81l91 144h143z" />
    <glyph glyph-name="wcircumflex" unicode="&#x175;" horiz-adv-x="1296" 
d="M373 75l222 625h106l222 -625l277 625h96l-309 -700h-121l-218 583l-218 -583h-121l-309 700h96zM681 894l151 -144h-120l-68 76l-68 -76h-112l140 144h77z" />
    <glyph glyph-name="wdieresis" unicode="&#x1e85;" horiz-adv-x="1296" 
d="M373 75l222 625h106l222 -625l277 625h96l-309 -700h-121l-218 583l-218 -583h-121l-309 700h96zM497 750v82h92v-82h-92zM707 750v82h92v-82h-92z" />
    <glyph glyph-name="wgrave" unicode="&#x1e81;" horiz-adv-x="1296" 
d="M373 75l222 625h106l222 -625l277 625h96l-309 -700h-121l-218 583l-218 -583h-121l-309 700h96zM647 750l-153 144h143l91 -144h-81z" />
    <glyph glyph-name="ycircumflex" unicode="&#x177;" horiz-adv-x="900" 
d="M405 0v231l-445 469h121l369 -387l369 387h121l-445 -469v-231h-90zM483 894l151 -144h-120l-68 76l-68 -76h-112l140 144h77z" />
    <glyph glyph-name="ygrave" unicode="&#x1ef3;" horiz-adv-x="900" 
d="M405 0v231l-445 469h121l369 -387l369 387h121l-445 -469v-231h-90zM443 750l-153 144h143l91 -144h-81z" />
    <glyph glyph-name="zacute" unicode="&#x17a;" horiz-adv-x="1043" 
d="M1001 633l-815 -553h837v-80h-1003v73l808 547h-785v80h958v-67zM668 894l-153 -144h-81l91 144h143z" />
    <glyph glyph-name="zdotaccent" unicode="&#x17c;" horiz-adv-x="1043" 
d="M1001 633l-815 -553h837v-80h-1003v73l808 547h-785v80h958v-67zM475 750v82h92v-82h-92z" />
    <glyph glyph-name="ellipsis" unicode="&#x2026;" horiz-adv-x="690" 
d="M70 0v80h90v-80h-90zM300 0v80h90v-80h-90zM530 0v80h90v-80h-90z" />
    <glyph glyph-name="divide" unicode="&#xf7;" horiz-adv-x="601" 
d="M255 128v80h90v-80h-90zM255 488v80h90v-80h-90zM59 393h483v-90h-483v90z" />
    <glyph glyph-name="zcaron" unicode="&#x17e;" horiz-adv-x="1043" 
d="M1001 633l-815 -553h837v-80h-1003v73l808 547h-785v80h958v-67zM499 750l-151 144h120l68 -76l68 76h112l-140 -144h-77z" />
    <glyph glyph-name="Zcaron" unicode="&#x17d;" horiz-adv-x="1043" 
d="M1001 633l-815 -553h837v-80h-1003v73l808 547h-785v80h958v-67zM499 750l-151 144h120l68 -76l68 76h112l-140 -144h-77z" />
    <glyph glyph-name="scaron" unicode="&#x161;" horiz-adv-x="1081" 
d="M307 79h479c107 0 176 24 176 116c0 93 -68 115 -175 115h-468c-156 0 -278 31 -278 196c0 167 123 194 279 194h435c203 0 256 -90 283 -210h-99c-32 92 -78 131 -189 131h-439c-107 0 -176 -24 -176 -116c0 -94 68 -114 175 -114h468c156 0 278 -32 278 -197
c0 -167 -123 -194 -279 -194h-475c-202 0 -255 90 -282 210h99c32 -92 77 -131 188 -131zM517 750l-151 144h120l68 -76l68 76h112l-140 -144h-77z" />
    <glyph glyph-name="B" unicode="B" horiz-adv-x="1135" 
d="M70 0v700h777c147 0 223 -72 223 -185c0 -62 -43 -132 -97 -156c92 -24 122 -100 122 -152c0 -137 -60 -207 -219 -207h-806zM160 309v-229h721c108 0 120 87 120 115c0 27 -12 114 -120 114h-721zM160 619v-229h696c108 0 120 87 120 115c0 27 -12 114 -120 114h-696z
" />
    <glyph glyph-name="C" unicode="C" horiz-adv-x="1131" 
d="M729 632h-304c-161 0 -305 -83 -305 -283s144 -282 305 -282h304c116 0 223 43 274 142h98c-46 -126 -158 -219 -367 -219h-314c-280 0 -390 168 -390 358c0 189 110 362 390 362h314c204 0 314 -90 362 -210h-99c-53 91 -156 132 -268 132z" />
    </font>
</defs>
</svg>
