<?xml version="1.0" encoding="UTF-8" standalone="no"?>
<svg width="760px" height="167px" viewBox="0 0 760 167" version="1.1" xmlns="http://www.w3.org/2000/svg" xmlns:xlink="http://www.w3.org/1999/xlink">
    <!-- Generator: Sketch 3.7.2 (28276) - http://www.bohemiancoding.com/sketch -->
    <title>titleWhite</title>
    <desc>Created with Sketch.</desc>
    <defs></defs>
    <g id="Page-1" stroke="none" stroke-width="1" fill="none" fill-rule="evenodd">
        <g id="Releases:-Faded-Hearing" transform="translate(-36.000000, -230.000000)">
            <g id="titleWhite" transform="translate(37.000000, 231.000000)">
                <path d="M1,110.993846 L27.8047207,110.993846 L27.8047207,93.9658447 L85.3255806,93.9658447 L85.3255806,110.993846 L112.130301,110.993846 L112.130301,67.7555086 L85.3255806,67.7555086 L85.3255806,83.5049566 L27.8047207,83.5049566 L27.8047207,67.7555086 L1,67.7555086 L1,110.993846 Z M123.879578,67.7555086 L123.879578,110.993846 L215.222703,110.993846 L215.222703,100.93977 L150.339173,100.93977 L150.339173,93.8496126 L212.576744,93.8496126 L212.576744,83.969885 L150.339173,83.969885 L150.339173,77.5771201 L214.072286,77.5771201 L214.072286,67.7555086 L123.879578,67.7555086 Z M300.979307,93.3265682 L268.537543,93.3265682 L284.4133,77.1121917 L300.979307,93.3265682 Z M318.925816,110.993846 L347.801287,110.993846 L302.014683,67.7555086 L267.272084,67.7555086 L224.016397,110.993846 L251.281285,110.993846 L258.98908,103.090064 L310.872895,103.090064 L318.925816,110.993846 Z M383.241648,77.5771201 L423.851375,77.5771201 C431.674212,77.5771201 434.665296,79.4949496 434.665296,81.7614753 L434.665296,81.8195914 C434.665296,84.2023492 431.55917,86.0620626 423.851375,86.0620626 L383.241648,86.0620626 L383.241648,77.5771201 Z M383.241648,95.65121 L418.214331,95.65121 C431.444128,95.65121 436.045797,97.9758517 436.045797,103.264412 L436.045797,108.262392 C436.045797,109.831525 436.505964,110.470801 437.311256,110.993846 L464.576144,110.993846 L464.576144,110.703265 C463.770852,110.005873 462.96556,108.901668 462.96556,105.414705 L462.96556,99.0800566 C462.96556,93.5009163 455.487848,90.4207659 446.744677,89.142213 C452.381721,88.2123563 462.620434,85.8877145 462.620434,79.6692977 L462.620434,78.9719052 C462.620434,72.7534884 453.992305,67.7555086 425.461959,67.7555086 L356.436927,67.7555086 L356.436927,110.993846 L383.241648,110.993846 L383.241648,95.65121 Z M503.216166,67.7555086 L476.411445,67.7555086 L476.411445,110.993846 L503.216166,110.993846 L503.216166,67.7555086 Z M517.079205,67.7555086 L517.079205,110.993846 L543.538801,110.993846 L543.538801,82.3426358 L601.63487,110.993846 L628.094465,110.993846 L628.094465,67.7555086 L601.63487,67.7555086 L601.63487,94.9538174 L546.990053,67.7555086 L517.079205,67.7555086 Z M696.925941,111.749354 C723.385536,111.749354 734.429541,106.402678 738.110876,104.252385 C739.606419,106.053982 741.217003,109.424713 741.562128,110.993846 L757.667969,110.993846 L757.667969,86.7594551 L697.386108,86.7594551 L697.386108,94.9538174 L730.97829,94.9538174 L730.97829,95.0700495 C730.97829,96.2904864 723.270495,101.23035 697.846274,101.23035 C674.262722,101.23035 665.519551,95.2443976 665.519551,89.6071413 L665.519551,88.9678648 C665.519551,82.9819122 671.961887,77.2865399 698.076358,77.2865399 C724.766037,77.2865399 727.872163,82.4588678 728.562414,83.4468406 L757.09276,83.4468406 L757.09276,83.3887246 C756.632593,77.5190041 748.234548,67 700.377192,67 L695.430398,67 C646.192542,67 637.449372,79.9598779 637.449372,88.3867044 L637.449372,90.0139536 C637.449372,98.6732443 648.148251,111.749354 694.510065,111.749354 L696.925941,111.749354 Z" id="HEARING" stroke="#FFFFFF"></path>
                <path d="M0,0 L0,53.6980671 L36.2505778,53.6980671 L36.2505778,32.4064948 L118.126883,32.4064948 L118.126883,20.1367751 L36.2505778,20.1367751 L36.2505778,12.1975448 L120.158165,12.1975448 L120.158165,0 L0,0 Z M217.799915,31.7569214 L173.736713,31.7569214 L195.299556,11.6201462 L217.799915,31.7569214 Z M242.175304,53.6980671 L281.394679,53.6980671 L219.206187,0 L172.017935,0 L113.266999,53.6980671 L150.298839,53.6980671 L160.767756,43.8822914 L231.237629,43.8822914 L242.175304,53.6980671 Z M292.90425,53.6980671 L370.092981,53.6980671 C438.062814,53.6980671 451.969286,39.1187531 451.969286,27.5707817 L451.969286,25.4055371 C451.969286,13.3523419 437.281551,0 369.936728,0 L292.90425,0 L292.90425,53.6980671 Z M329.311081,12.7027686 L367.124183,12.7027686 C408.999851,12.7027686 413.843678,21.002873 413.843678,26.4881594 L413.843678,26.9212083 C413.843678,32.4064948 408.374841,40.778774 367.124183,40.778774 L329.311081,40.778774 L329.311081,12.7027686 Z M462.175725,0 L462.175725,53.6980671 L586.240202,53.6980671 L586.240202,41.211823 L498.113798,41.211823 L498.113798,32.4064948 L582.646395,32.4064948 L582.646395,20.1367751 L498.113798,20.1367751 L498.113798,12.1975448 L584.677677,12.1975448 L584.677677,0 L462.175725,0 Z M599.102934,53.6980671 L676.291664,53.6980671 C744.261497,53.6980671 758.167969,39.1187531 758.167969,27.5707817 L758.167969,25.4055371 C758.167969,13.3523419 743.480235,0 676.135411,0 L599.102934,0 L599.102934,53.6980671 Z M635.509764,12.7027686 L673.322867,12.7027686 C715.198534,12.7027686 720.042361,21.002873 720.042361,26.4881594 L720.042361,26.9212083 C720.042361,32.4064948 714.573524,40.778774 673.322867,40.778774 L635.509764,40.778774 L635.509764,12.7027686 Z" id="FADED" stroke="#FFFFFF"></path>
                <path d="M1,164.928636 L60.7830187,164.928636 C81.4183504,164.928636 87.4476037,159.678619 87.4476037,153.410742 L87.4476037,152.767882 C87.4476037,145.750002 78.5311023,143.392852 72.9264443,142.535706 C77.0874783,141.946419 83.7960841,139.696411 83.7960841,134.714252 L83.7960841,134.124965 C83.7960841,129.571378 78.8707786,125.071364 60.4433424,125.071364 L1,125.071364 L1,164.928636 Z M53.1403032,134.124965 C58.1505278,134.124965 59.5941518,135.30354 59.5941518,136.857116 L59.5941518,136.96426 C59.5941518,138.464264 58.1505278,139.749983 53.1403032,139.749983 L25.1170132,139.749983 L25.1170132,134.124965 L53.1403032,134.124965 Z M54.6688463,148.696441 C60.8679377,148.696441 62.1417236,150.250017 62.1417236,151.964308 L62.1417236,152.125023 C62.1417236,153.6786 60.9528568,155.553606 54.6688463,155.553606 L25.1170132,155.553606 L25.1170132,148.696441 L54.6688463,148.696441 Z M94.6618285,125.071364 L94.6618285,164.928636 L162.597077,164.928636 L162.597077,153.517885 L118.778842,153.517885 L118.778842,125.071364 L94.6618285,125.071364 Z M224.329339,148.535726 L203.354331,148.535726 L213.714456,134.821396 L224.329339,148.535726 Z M236.982279,164.928636 L263.392107,164.928636 L230.358592,125.071364 L197.919511,125.071364 L166.669297,164.928636 L191.125986,164.928636 L195.966372,158.500044 L232.056973,158.500044 L236.982279,164.928636 Z M308.225475,165.678639 C346.269214,165.678639 352.213549,154.428602 352.213549,149.232157 L352.213549,148.375011 L327.247345,148.375011 C326.907669,149.285728 325.039449,154.910746 306.442175,154.910746 C289.458363,154.910746 285.21241,149.285728 285.21241,145 L285.21241,144.357141 C285.21241,139.910698 288.948848,135.035682 306.357256,135.035682 C324.699773,135.035682 326.652911,140.071413 327.162426,141.142845 L352.213549,141.142845 L352.213549,140.446414 C352.213549,135.30354 346.608891,124.321361 308.225475,124.321361 L304.913632,124.321361 C265.511188,124.321361 260.246206,136.482115 260.246206,144.089283 L260.246206,145.642859 C260.246206,153.196455 266.105621,165.678639 304.913632,165.678639 L308.225475,165.678639 Z M384.224139,164.928636 L384.224139,147.089292 L415.049758,164.928636 L446.469811,164.928636 L408.51099,143.178566 L445.280944,125.071364 L415.304515,125.071364 L384.224139,140.821415 L384.224139,125.071364 L360.107126,125.071364 L360.107126,164.928636 L384.224139,164.928636 Z M498.860976,164.928636 L511.598835,139.749983 L524.761289,164.928636 L552.69966,164.928636 L577.326188,125.071364 L552.614741,125.071364 L538.688015,150.946448 L525.865237,125.071364 L498.691137,125.071364 L486.038197,151.375021 L471.686876,125.071364 L444.852453,125.071364 L469.478981,164.928636 L498.860976,164.928636 Z M623.857937,148.535726 L602.882929,148.535726 L613.243055,134.821396 L623.857937,148.535726 Z M636.510877,164.928636 L662.920705,164.928636 L629.887191,125.071364 L597.44811,125.071364 L566.197895,164.928636 L590.654585,164.928636 L595.494971,158.500044 L631.585572,158.500044 L636.510877,164.928636 Z M692.808319,164.928636 L710.301646,152.446453 L727.96481,164.928636 L757.601562,164.928636 L728.983839,144.303569 L756.327777,125.071364 L727.710053,125.071364 L711.575432,136.803545 L695.525729,125.071364 L664.70011,125.071364 L692.7234,144.464284 L663.766001,164.928636 L692.808319,164.928636 Z" id="BLACKWAX" fill="#FFFFFF"></path>
            </g>
        </g>
    </g>
</svg>