<?xml version="1.0" encoding="UTF-8" standalone="no"?>
<svg width="758px" height="44px" viewBox="0 0 758 44" version="1.1" xmlns="http://www.w3.org/2000/svg" xmlns:xlink="http://www.w3.org/1999/xlink">
    <!-- Generator: Sketch 3.7.2 (28276) - http://www.bohemiancoding.com/sketch -->
    <title>BLACKWAX</title>
    <desc>Created with Sketch.</desc>
    <defs></defs>
    <g id="Page-1" stroke="none" stroke-width="1" fill="none" fill-rule="evenodd">
        <g id="Releases:-Faded-Hearing" transform="translate(-37.000000, -354.000000)" stroke="#FFFFFF">
            <g id="titleWhite" transform="translate(37.000000, 231.000000)">
                <path d="M1,164.928636 L60.7830187,164.928636 C81.4183504,164.928636 87.4476037,159.678619 87.4476037,153.410742 L87.4476037,152.767882 C87.4476037,145.750002 78.5311023,143.392852 72.9264443,142.535706 C77.0874783,141.946419 83.7960841,139.696411 83.7960841,134.714252 L83.7960841,134.124965 C83.7960841,129.571378 78.8707786,125.071364 60.4433424,125.071364 L1,125.071364 L1,164.928636 Z M53.1403032,134.124965 C58.1505278,134.124965 59.5941518,135.30354 59.5941518,136.857116 L59.5941518,136.96426 C59.5941518,138.464264 58.1505278,139.749983 53.1403032,139.749983 L25.1170132,139.749983 L25.1170132,134.124965 L53.1403032,134.124965 Z M54.6688463,148.696441 C60.8679377,148.696441 62.1417236,150.250017 62.1417236,151.964308 L62.1417236,152.125023 C62.1417236,153.6786 60.9528568,155.553606 54.6688463,155.553606 L25.1170132,155.553606 L25.1170132,148.696441 L54.6688463,148.696441 Z M94.6618285,125.071364 L94.6618285,164.928636 L162.597077,164.928636 L162.597077,153.517885 L118.778842,153.517885 L118.778842,125.071364 L94.6618285,125.071364 Z M224.329339,148.535726 L203.354331,148.535726 L213.714456,134.821396 L224.329339,148.535726 Z M236.982279,164.928636 L263.392107,164.928636 L230.358592,125.071364 L197.919511,125.071364 L166.669297,164.928636 L191.125986,164.928636 L195.966372,158.500044 L232.056973,158.500044 L236.982279,164.928636 Z M308.225475,165.678639 C346.269214,165.678639 352.213549,154.428602 352.213549,149.232157 L352.213549,148.375011 L327.247345,148.375011 C326.907669,149.285728 325.039449,154.910746 306.442175,154.910746 C289.458363,154.910746 285.21241,149.285728 285.21241,145 L285.21241,144.357141 C285.21241,139.910698 288.948848,135.035682 306.357256,135.035682 C324.699773,135.035682 326.652911,140.071413 327.162426,141.142845 L352.213549,141.142845 L352.213549,140.446414 C352.213549,135.30354 346.608891,124.321361 308.225475,124.321361 L304.913632,124.321361 C265.511188,124.321361 260.246206,136.482115 260.246206,144.089283 L260.246206,145.642859 C260.246206,153.196455 266.105621,165.678639 304.913632,165.678639 L308.225475,165.678639 Z M384.224139,164.928636 L384.224139,147.089292 L415.049758,164.928636 L446.469811,164.928636 L408.51099,143.178566 L445.280944,125.071364 L415.304515,125.071364 L384.224139,140.821415 L384.224139,125.071364 L360.107126,125.071364 L360.107126,164.928636 L384.224139,164.928636 Z M498.860976,164.928636 L511.598835,139.749983 L524.761289,164.928636 L552.69966,164.928636 L577.326188,125.071364 L552.614741,125.071364 L538.688015,150.946448 L525.865237,125.071364 L498.691137,125.071364 L486.038197,151.375021 L471.686876,125.071364 L444.852453,125.071364 L469.478981,164.928636 L498.860976,164.928636 Z M623.857937,148.535726 L602.882929,148.535726 L613.243055,134.821396 L623.857937,148.535726 Z M636.510877,164.928636 L662.920705,164.928636 L629.887191,125.071364 L597.44811,125.071364 L566.197895,164.928636 L590.654585,164.928636 L595.494971,158.500044 L631.585572,158.500044 L636.510877,164.928636 Z M692.808319,164.928636 L710.301646,152.446453 L727.96481,164.928636 L757.601562,164.928636 L728.983839,144.303569 L756.327777,125.071364 L727.710053,125.071364 L711.575432,136.803545 L695.525729,125.071364 L664.70011,125.071364 L692.7234,144.464284 L663.766001,164.928636 L692.808319,164.928636 Z" id="BLACKWAX"></path>
            </g>
        </g>
    </g>
</svg>