<?xml version="1.0" encoding="utf-8"?>
<!-- Generator: Adobe Illustrator 18.0.0, SVG Export Plug-In . SVG Version: 6.00 Build 0)  -->
<!DOCTYPE svg PUBLIC "-//W3C//DTD SVG 1.1//EN" "http://www.w3.org/Graphics/SVG/1.1/DTD/svg11.dtd">
<svg version="1.1" id="Layer_1" xmlns="http://www.w3.org/2000/svg" xmlns:xlink="http://www.w3.org/1999/xlink" x="0px" y="0px"
	 viewBox="0 0 762.3 167" enable-background="new 0 0 762.3 167" xml:space="preserve">
<title>titleWhite</title>
<desc>Created with Sketch.</desc>
<g id="Page-1_2_">
	<g id="Releases:-Faded-Hearing_2_" transform="translate(-36.000000, -230.000000)">
		<g id="titleWhite_2_" transform="translate(37.000000, 231.000000)">
			<path id="HEARING_2_" fill="none" stroke="#FFFFFF" d="M-1,113.3h27.5V95.8h59v17.5h27.5V68.9H85.5v16.2h-59V68.9H-1V113.3z"/>
		</g>
	</g>
</g>
<path id="BLACKWAX_2_" fill="#FFFFFF" d="M0,166.2h59.9c20.7,0,26.7-5.3,26.7-11.5v-0.6c0-7-8.9-9.4-14.5-10.3
	C76.2,143.2,83,141,83,136v-0.6c0-4.6-4.9-9.1-23.4-9.1H0V166.2z M52.2,135.4c5,0,6.5,1.2,6.5,2.7v0.1c0,1.5-1.4,2.8-6.5,2.8H24.2
	v-5.6H52.2z M53.8,150c6.2,0,7.5,1.6,7.5,3.3v0.2c0,1.6-1.2,3.4-7.5,3.4H24.2V150H53.8z M93.8,126.3v39.9h68.1v-11.4H118v-28.5H93.8
	z M223.8,149.8h-21l10.4-13.7L223.8,149.8z M236.5,166.2h26.5l-33.1-39.9h-32.5L166,166.2h24.5l4.8-6.4h36.2L236.5,166.2z
	 M307.8,167c38.1,0,44.1-11.3,44.1-16.5v-0.9h-25c-0.3,0.9-2.2,6.5-20.8,6.5c-17,0-21.3-5.6-21.3-9.9v-0.6c0-4.5,3.7-9.3,21.2-9.3
	c18.4,0,20.3,5,20.8,6.1h25.1v-0.7c0-5.2-5.6-16.2-44.1-16.2h-3.3c-39.5,0-44.8,12.2-44.8,19.8v1.6c0,7.6,5.9,20.1,44.8,20.1H307.8z
	 M384,166.2v-17.9l30.9,17.9h31.5l-38-21.8l36.8-18.1h-30L384,142.1v-15.8h-24.2v39.9H384z M498.8,166.2l12.8-25.2l13.2,25.2h28
	l24.7-39.9h-24.8l-14,25.9l-12.8-25.9h-27.2L486,152.7l-14.4-26.4h-26.9l24.7,39.9H498.8z M624.1,149.8h-21l10.4-13.7L624.1,149.8z
	 M636.8,166.2h26.5l-33.1-39.9h-32.5l-31.3,39.9h24.5l4.8-6.4h36.2L636.8,166.2z M693.2,166.2l17.5-12.5l17.7,12.5h29.7l-28.7-20.7
	l27.4-19.3h-28.7L712,138.1l-16.1-11.8H665l28.1,19.4l-29,20.5H693.2z"/>
<polygon fill="none" stroke="#FFFFFF" points="460.9,2.4 460.9,59 591.6,59 591.6,45.9 498.7,45.9 498.7,36.6 587.8,36.6 
	587.8,23.7 498.7,23.7 498.7,15.3 589.9,15.3 589.9,2.4 "/>
<g>
	<path fill="none" stroke="#FFFFFF" d="M404,2.4c15.6,0,49.4,0,49.4,28.3S419.7,59,404,59H295.3V2.4H404"/>
	<path fill="none" stroke="#FFFFFF" d="M413.2,30.8c0,15-17.9,15-26.2,15l-53.4-0.5V15.8l53.4,0C395.3,15.8,413.2,15.8,413.2,30.8"
		/>
</g>
<g>
	<path fill="none" stroke="#FFFFFF" d="M710.9,2.4c15.6,0,49.4,0,49.4,28.3S726.5,59,710.9,59H602.1V2.4H710.9"/>
	<path fill="none" stroke="#FFFFFF" d="M720,30.8c0,15-17.9,15-26.2,15l-53.4-0.5V15.8l53.4,0C702.1,15.8,720,15.8,720,30.8"/>
</g>
<path id="FADED_2_" fill="none" stroke="#FFFFFF" d="M0,2.4V59h38.2V36.6h86.3V23.7H38.2v-8.4h88.4V2.4H0z"/>
<polygon fill="none" stroke="#FFFFFF" points="225.4,35.9 179,35.9 201.7,14.7 "/>
<polygon fill="none" stroke="#FFFFFF" points="249,59 290.3,59 224.8,2.4 175.1,2.4 113.2,59 152.2,59 163.2,48.7 237.5,48.7 "/>
<polygon fill="none" stroke="#FFFFFF" points="123,69.9 123,114.3 216.8,114.3 216.8,104 150.2,104 150.2,96.7 214.1,96.7 
	214.1,86.6 150.2,86.6 150.2,80 215.6,80 215.6,69.9 "/>
<polygon fill="none" stroke="#FFFFFF" points="301.1,96.2 267.8,96.2 284.1,79.5 "/>
<polygon fill="none" stroke="#FFFFFF" points="318.1,114.3 347.7,114.3 300.7,69.9 265.1,69.9 220.7,114.3 248.7,114.3 256.6,106.2 
	309.8,106.2 "/>
<g>
	<path fill="none" stroke="#FFFFFF" d="M381,80h41.7c8,0,11.1,2,11.1,4.3v0.1c0,2.4-3.2,4.4-11.1,4.4H381V80z"/>
	<path fill="none" stroke="#FFFFFF" d="M381,98.5h35.9c13.6,0,18.3,2.4,18.3,7.8v5.1c0,1.6,0.5,2.3,1.3,2.8h28V114
		c-0.8-0.7-1.7-1.8-1.7-5.4v-6.5c0-5.7-7.7-8.9-16.6-10.2c5.8-1,16.3-3.3,16.3-9.7v-0.7c0-6.4-8.9-11.5-38.1-11.5h-70.8v44.4H381
		V98.5z"/>
</g>
<rect x="474.6" y="69.9" fill="none" stroke="#FFFFFF" width="27.5" height="44.4"/>
<polygon fill="none" stroke="#FFFFFF" points="513.2,69.9 513.2,114.3 540.4,114.3 540.4,84.9 600,114.3 627.2,114.3 627.2,69.9 
	600,69.9 600,97.8 543.9,69.9 "/>
<path fill="none" stroke="#FFFFFF" d="M694.7,115.1c27.2,0,38.5-5.5,42.3-7.7c1.5,1.8,3.2,5.3,3.5,6.9h16.5V89.4h-61.9v8.4h34.5V98
	c0,1.3-7.9,6.3-34,6.3c-24.2,0-33.2-6.1-33.2-11.9v-0.7c0-6.1,6.6-12,33.4-12c27.4,0,30.6,5.3,31.3,6.3h29.3V86
	c-0.5-6-9.1-16.8-58.2-16.8h-5.1c-50.5,0-59.5,13.3-59.5,21.9v1.7c0,8.9,11,22.3,58.6,22.3H694.7z"/>
</svg>
