<?xml version="1.0" encoding="utf-8"?>
<!-- Generator: Adobe Illustrator 18.0.0, SVG Export Plug-In . SVG Version: 6.00 Build 0)  -->
<!DOCTYPE svg PUBLIC "-//W3C//DTD SVG 1.1//EN" "http://www.w3.org/Graphics/SVG/1.1/DTD/svg11.dtd">
<svg version="1.1" id="Layer_1" xmlns="http://www.w3.org/2000/svg" xmlns:xlink="http://www.w3.org/1999/xlink" x="0px" y="0px"
	 viewBox="0 0 469.4 405.4" enable-background="new 0 0 469.4 405.4" xml:space="preserve">
<g transform="translate(-150 -1460)">
	<g>
		<rect x="153.1" y="1579.6" fill="#FFFFFF" width="71.4" height="190.5"/>
		<polygon fill="#FFFFFF" points="391.2,1865.4 248.3,1770.1 248.3,1579.6 391.2,1484.4 		"/>
		<path fill="#FFFFFF" d="M571.8,1662.5c0,65.6-26.7,125.2-69.8,168.3l33.7,33.6c51.7-51.7,83.8-123.2,83.8-201.9
			c0-78.8-32-150.2-83.8-201.9l-33.7,33.7C545.1,1537.4,571.8,1596.9,571.8,1662.5z"/>
		<path fill="#FFFFFF" d="M476.6,1662.5c0,39.4-16,75.1-41.9,101l33.7,33.7c34.5-34.5,55.8-82.1,55.8-134.7
			c0-52.6-21.3-100.2-55.8-134.7l-33.7,33.7C460.6,1587.4,476.6,1623.1,476.6,1662.5z"/>
	</g>
</g>
</svg>
