<?xml version="1.0" encoding="UTF-8"?>
<svg width="34px" height="147px" viewBox="0 0 34 147" version="1.1" xmlns="http://www.w3.org/2000/svg" xmlns:xlink="http://www.w3.org/1999/xlink">
    <!-- Generator: Sketch 39.1 (31720) - http://www.bohemiancoding.com/sketch -->
    <title>Group 3</title>
    <desc>Created with Sketch.</desc>
    <defs></defs>
    <g id="Page-1" stroke="none" stroke-width="1" fill="none" fill-rule="evenodd">
        <g id="Desktop-Copy-39" transform="translate(-36.000000, -29.000000)">
            <g id="Group-3" transform="translate(36.000000, 29.000000)">
                <path d="M2.384,126.632 C2.39466672,126.301332 2.37866688,125.984002 2.336,125.68 C2.29333312,125.375998 2.19733408,125.133334 2.048,124.952 C1.97333296,124.856 1.87733392,124.778667 1.76,124.72 C1.64266608,124.661333 1.52266728,124.610667 1.4,124.568 C1.27733272,124.525333 1.15733392,124.496 1.04,124.48 C0.92266608,124.464 0.82666704,124.456 0.752,124.456 C0.44266512,124.456 0.1813344,124.496 -0.032,124.576 C-0.2453344,124.656 -0.42133264,124.746666 -0.56,124.848 C-0.69866736,124.949334 -0.80266632,125.048 -0.872,125.144 C-0.94133368,125.24 -0.98133328,125.309333 -0.992,125.352 C-1.00266672,125.384 -1.02666648,125.434666 -1.064,125.504 C-1.10133352,125.573334 -1.13866648,125.690666 -1.176,125.856 C-1.21333352,126.021334 -1.24799984,126.255998 -1.28,126.56 C-1.31200016,126.864002 -1.328,127.261331 -1.328,127.752 L-1.328,130.84 C-1.328,131.544004 -1.2746672,132.106665 -1.168,132.528 C-1.0613328,132.949335 -0.9146676,133.269332 -0.728,133.488 C-0.5413324,133.706668 -0.32266792,133.848 -0.072,133.912 C0.17866792,133.976 0.44799856,134.008 0.736,134.008 C0.8426672,134.008 0.99733232,133.986667 1.2,133.944 C1.40266768,133.901333 1.60533232,133.800001 1.808,133.64 C2.01066768,133.479999 2.18666592,133.240002 2.336,132.92 C2.48533408,132.599998 2.56,132.157336 2.56,131.592 L4.08,131.592 C4.09066672,132.200003 4.03466728,132.711998 3.912,133.128 C3.78933272,133.544002 3.62933432,133.887999 3.432,134.16 C3.23466568,134.432001 3.01066792,134.639999 2.76,134.784 C2.50933208,134.928001 2.26133456,135.034666 2.016,135.104 C1.77066544,135.173334 1.5413344,135.213333 1.328,135.224 C1.1146656,135.234667 0.94400064,135.24 0.816,135.24 C0.45333152,135.24 0.06133544,135.210667 -0.36,135.152 C-0.78133544,135.093333 -1.17599816,134.920001 -1.544,134.632 C-1.91200184,134.343999 -2.21866544,133.89067 -2.464,133.272 C-2.70933456,132.65333 -2.832,131.784006 -2.832,130.664 L-2.832,127.4 C-2.832,126.589329 -2.74400088,125.914669 -2.568,125.376 C-2.39199912,124.837331 -2.1440016,124.408002 -1.824,124.088 C-1.5039984,123.767998 -1.11466896,123.541334 -0.656,123.408 C-0.19733104,123.274666 0.31466384,123.208 0.88,123.208 C2.02133904,123.208 2.82933096,123.498664 3.304,124.08 C3.77866904,124.661336 3.97866704,125.511994 3.904,126.632 L2.384,126.632 Z M8.132,128.408 L10.34,128.408 C10.606668,128.408 10.8386657,128.354667 11.036,128.248 C11.2333343,128.141333 11.3959994,128.000001 11.524,127.824 C11.6520006,127.647999 11.7479997,127.445334 11.812,127.216 C11.8760003,126.986666 11.908,126.744001 11.908,126.488 C11.908,126.285332 11.8813336,126.077334 11.828,125.864 C11.7746664,125.650666 11.6866673,125.461334 11.564,125.296 C11.4413327,125.130666 11.2813343,124.994667 11.084,124.888 C10.8866657,124.781333 10.6440014,124.728 10.356,124.728 L8.132,124.728 L8.132,128.408 Z M8.132,129.688 L8.132,135 L6.66,135 L6.66,123.448 L10.644,123.448 C11.1560026,123.448 11.5879982,123.530666 11.94,123.696 C12.2920018,123.861334 12.5773322,124.079999 12.796,124.352 C13.0146678,124.624001 13.1719995,124.930665 13.268,125.272 C13.3640005,125.613335 13.412,125.965332 13.412,126.328 C13.412,127.01067 13.2306685,127.591998 12.868,128.072 C12.5053315,128.552002 11.9826701,128.850666 11.3,128.968 L11.3,129 C11.6306683,129.053334 11.9106655,129.128 12.14,129.224 C12.3693345,129.32 12.5586659,129.477332 12.708,129.696 C12.8573341,129.914668 12.969333,130.205332 13.044,130.568 C13.118667,130.930668 13.1666666,131.399997 13.188,131.976 C13.188,132.104001 13.1986666,132.298665 13.22,132.56 C13.2413334,132.821335 13.2706665,133.103998 13.308,133.408 C13.3453335,133.712002 13.3879998,134.007999 13.436,134.296 C13.4840002,134.584001 13.5346664,134.818666 13.588,135 L12.052,135 C11.9453328,134.797332 11.8680002,134.557335 11.82,134.28 C11.7719998,134.002665 11.7373334,133.696002 11.716,133.36 C11.6946666,133.023998 11.6786667,132.669335 11.668,132.296 C11.6573333,131.922665 11.6360002,131.544002 11.604,131.16 C11.5719998,130.807998 11.4866674,130.533334 11.348,130.336 C11.2093326,130.138666 11.0520009,129.992 10.876,129.896 C10.6999991,129.8 10.5186676,129.741333 10.332,129.72 C10.1453324,129.698667 9.98800064,129.688 9.86,129.688 L8.132,129.688 Z M18.344,124.952 C17.9706648,124.952 17.680001,125.063999 17.472,125.288 C17.263999,125.512001 17.1120005,125.831998 17.016,126.248 C16.9199995,126.664002 16.8640001,127.170664 16.848,127.768 C16.8319999,128.365336 16.824,129.03733 16.824,129.784 C16.824,130.253336 16.8266666,130.735998 16.832,131.232 C16.8373334,131.728002 16.8826662,132.181331 16.968,132.592 C17.0533338,133.002669 17.2026656,133.341332 17.416,133.608 C17.6293344,133.874668 17.9386646,134.008 18.344,134.008 C18.7493354,134.008 19.055999,133.874668 19.264,133.608 C19.472001,133.341332 19.6213329,133.002669 19.712,132.592 C19.8026671,132.181331 19.8506666,131.728002 19.856,131.232 C19.8613334,130.735998 19.864,130.253336 19.864,129.784 C19.864,129.03733 19.8560001,128.365336 19.84,127.768 C19.8239999,127.170664 19.7680005,126.664002 19.672,126.248 C19.5759995,125.831998 19.424001,125.512001 19.216,125.288 C19.007999,125.063999 18.7173352,124.952 18.344,124.952 L18.344,124.952 Z M18.344,123.72 C19.1013371,123.72 19.6826646,123.879998 20.088,124.2 C20.4933354,124.520002 20.7893324,124.949331 20.976,125.488 C21.1626676,126.026669 21.2693332,126.642663 21.296,127.336 C21.3226668,128.029337 21.336,128.74933 21.336,129.496 C21.336,130.221337 21.3200002,130.927997 21.288,131.616 C21.2559998,132.304003 21.1493342,132.917331 20.968,133.456 C20.7866658,133.994669 20.4906687,134.426665 20.08,134.752 C19.6693313,135.077335 19.0906704,135.24 18.344,135.24 C17.8426642,135.24 17.421335,135.165334 17.08,135.016 C16.738665,134.866666 16.4560011,134.658668 16.232,134.392 C16.0079989,134.125332 15.8373339,133.810668 15.72,133.448 C15.6026661,133.085332 15.5173336,132.693335 15.464,132.272 C15.4106664,131.850665 15.3786667,131.402669 15.368,130.928 C15.3573333,130.453331 15.352,129.976002 15.352,129.496 C15.352,128.74933 15.3653332,128.029337 15.392,127.336 C15.4186668,126.642663 15.5226658,126.026669 15.704,125.488 C15.8853342,124.949331 16.1813313,124.520002 16.592,124.2 C17.0026687,123.879998 17.5866629,123.72 18.344,123.72 L18.344,123.72 Z M25.948,124.952 C25.5746648,124.952 25.284001,125.063999 25.076,125.288 C24.867999,125.512001 24.7160005,125.831998 24.62,126.248 C24.5239995,126.664002 24.4680001,127.170664 24.452,127.768 C24.4359999,128.365336 24.428,129.03733 24.428,129.784 C24.428,130.253336 24.4306666,130.735998 24.436,131.232 C24.4413334,131.728002 24.4866662,132.181331 24.572,132.592 C24.6573338,133.002669 24.8066656,133.341332 25.02,133.608 C25.2333344,133.874668 25.5426646,134.008 25.948,134.008 C26.3533354,134.008 26.659999,133.874668 26.868,133.608 C27.076001,133.341332 27.2253329,133.002669 27.316,132.592 C27.4066671,132.181331 27.4546666,131.728002 27.46,131.232 C27.4653334,130.735998 27.468,130.253336 27.468,129.784 C27.468,129.03733 27.4600001,128.365336 27.444,127.768 C27.4279999,127.170664 27.3720005,126.664002 27.276,126.248 C27.1799995,125.831998 27.028001,125.512001 26.82,125.288 C26.611999,125.063999 26.3213352,124.952 25.948,124.952 L25.948,124.952 Z M25.948,123.72 C26.7053371,123.72 27.2866646,123.879998 27.692,124.2 C28.0973354,124.520002 28.3933324,124.949331 28.58,125.488 C28.7666676,126.026669 28.8733332,126.642663 28.9,127.336 C28.9266668,128.029337 28.94,128.74933 28.94,129.496 C28.94,130.221337 28.9240002,130.927997 28.892,131.616 C28.8599998,132.304003 28.7533342,132.917331 28.572,133.456 C28.3906658,133.994669 28.0946687,134.426665 27.684,134.752 C27.2733313,135.077335 26.6946704,135.24 25.948,135.24 C25.4466642,135.24 25.025335,135.165334 24.684,135.016 C24.342665,134.866666 24.0600011,134.658668 23.836,134.392 C23.6119989,134.125332 23.4413339,133.810668 23.324,133.448 C23.2066661,133.085332 23.1213336,132.693335 23.068,132.272 C23.0146664,131.850665 22.9826667,131.402669 22.972,130.928 C22.9613333,130.453331 22.956,129.976002 22.956,129.496 C22.956,128.74933 22.9693332,128.029337 22.996,127.336 C23.0226668,126.642663 23.1266658,126.026669 23.308,125.488 C23.4893342,124.949331 23.7853313,124.520002 24.196,124.2 C24.6066687,123.879998 25.1906629,123.72 25.948,123.72 L25.948,123.72 Z M34.624,135 L33.152,135 L33.152,125.512 L31.488,126.632 L31.488,125.224 C31.5840005,125.181333 31.7119992,125.106667 31.872,125 C32.0320008,124.893333 32.2053324,124.773334 32.392,124.64 C32.5786676,124.506666 32.7573325,124.373334 32.928,124.24 C33.0986675,124.106666 33.2426661,123.992 33.36,123.896 L34.624,123.896 L34.624,135 Z" id="CR001-Copy" fill="#FFFFFF" transform="translate(17.136000, 129.224000) rotate(-270.000000) translate(-17.136000, -129.224000) "></path>
                <g id="Group-5">
                    <g id="cr_logo_mark_white" fill="#FFFFFF">
                        <g id="Layer_1">
                            <path d="M3.88571429,3.15929204 C2.83956044,3.82831858 1.83076923,4.6460177 1.15824176,5.68672566 C0.859340659,6.13274336 0.635164835,6.6159292 0.485714286,7.13628319 C0.298901099,7.73097345 0.186813187,8.32566372 0.112087912,8.92035398 C0.0373626374,9.40353982 0,9.92389381 0,10.4442478 L0,14.6442478 C0,15.1646018 0.0373626374,15.6477876 0.112087912,16.1681416 C0.186813187,16.7628319 0.298901099,17.3946903 0.485714286,17.9893805 C0.635164835,18.5097345 0.896703297,18.9929204 1.15824176,19.4389381 C1.83076923,20.479646 2.83956044,21.2973451 3.88571429,21.9663717 C6.68791209,23.7504425 10.0879121,24.5681416 13.3758242,24.939823 C14.4967033,25.0513274 15.6549451,25.1256637 16.8131868,25.1256637 L16.8131868,16.7256637 C13.189011,16.7256637 9.45274725,16.279646 6.16483516,14.7557522 C4.63296703,14.0495575 3.47472527,13.3061947 2.61538462,12.5256637 C3.47472527,11.7823009 4.63296703,11.0017699 6.16483516,10.2955752 C9.45274725,8.77168142 13.189011,8.32566372 16.8131868,8.32566372 L16.8131868,0 C15.6549451,0 14.5340659,0.0743362832 13.3758242,0.185840708 C10.0879121,0.520353982 6.68791209,1.37522124 3.88571429,3.15929204" id="Shape"></path>
                            <path d="M33.5142857,17.2460177 C33.4395604,16.6513274 33.3274725,16.019469 33.1406593,15.4619469 C32.9912088,14.9415929 32.7296703,14.4584071 32.4681319,14.0123894 C31.7956044,12.9716814 30.7868132,12.1539823 29.7406593,11.4849558 C26.9384615,9.70088496 23.5384615,8.88318584 20.2505495,8.51150442 C19.1296703,8.4 17.9714286,8.32566372 16.8131868,8.32566372 L16.8131868,16.7256637 C20.4373626,16.7256637 24.1736264,17.1716814 27.4615385,18.6955752 C28.9934066,19.4017699 30.1516484,20.1451327 31.010989,20.9256637 C30.1516484,21.6690265 28.9934066,22.4495575 27.4615385,23.1557522 C24.1736264,24.679646 20.4373626,25.1256637 16.8131868,25.1256637 L16.8131868,25.1256637 L16.8131868,33.4513274 L16.8131868,33.4513274 L16.8505495,33.4513274 L33.2901099,41.6654867 L33.2901099,33.3026549 L28.6197802,30.9610619 C28.9934066,30.7380531 29.4043956,30.5522124 29.778022,30.2920354 C30.8241758,29.6230088 31.832967,28.8053097 32.5054945,27.7646018 C32.8043956,27.3185841 33.0285714,26.8353982 33.178022,26.3150442 C33.3648352,25.720354 33.4769231,25.1256637 33.5516484,24.4938053 C33.6263736,23.9734513 33.6637363,23.4530973 33.6637363,22.9699115 L33.6637363,18.8070796 C33.6263736,18.2867257 33.589011,17.7663717 33.5142857,17.2460177" id="Shape"></path>
                        </g>
                    </g>
                    <path d="M17,52.5 L17,96.511364" id="Line" stroke="#FFFFFF" stroke-width="2" stroke-linecap="square"></path>
                </g>
            </g>
        </g>
    </g>
</svg>