<svg xmlns="http://www.w3.org/2000/svg" xmlns:xlink="http://www.w3.org/1999/xlink" width="28.812" height="482.813" viewBox="0 0 28.812 482.813">
  <metadata><?xpacket begin="﻿" id="W5M0MpCehiHzreSzNTczkc9d"?>
<x:xmpmeta xmlns:x="adobe:ns:meta/" x:xmptk="Adobe XMP Core 5.6-c138 79.159824, 2016/09/14-01:09:01        ">
   <rdf:RDF xmlns:rdf="http://www.w3.org/1999/02/22-rdf-syntax-ns#">
      <rdf:Description rdf:about=""/>
   </rdf:RDF>
</x:xmpmeta>
                                                                                                    
                                                                                                    
                                                                                                    
                                                                                                    
                                                                                                    
                                                                                                    
                                                                                                    
                                                                                                    
                                                                                                    
                                                                                                    
                                                                                                    
                                                                                                    
                                                                                                    
                                                                                                    
                                                                                                    
                                                                                                    
                                                                                                    
                                                                                                    
                                                                                                    
                                                                                                    
                           
<?xpacket end="w"?></metadata>
<defs>
    <style>
      .cls-1 {
        fill: #d0d0d0;
        fill-rule: evenodd;
        filter: url(#filter);
      }
    </style>
    <filter id="filter" x="34.594" y="484.281" width="28.812" height="482.813" filterUnits="userSpaceOnUse">
      <feFlood result="flood" flood-color="#ff0501"/>
      <feComposite result="composite" operator="in" in2="SourceGraphic"/>
      <feBlend result="blend" in2="SourceGraphic"/>
    </filter>
  </defs>
  <path id="AVAILABKLE_AT_CR002" data-name="AVAILABKLE AT CR002" class="cls-1" d="M35,952.231v3.146L63,967.1v-2.5l-6.2-2.7V945.861l6.2-2.6v-2.756Zm3,1.482,15.8-6.6v13.5Zm-3-39.026v2.756l25,9.932L35,937.75v2.5l28-11.207v-3.146Zm0-15.132V902.7l28,11.727v-2.5l-6.2-2.7V893.185l6.2-2.6v-2.756Zm3,1.482,15.8-6.6v13.5ZM63,884.71v-2.34H35v2.34H63Zm-3.2-10.4H35v2.34H63V852.339H59.8V874.31ZM35,835.907v3.147L63,850.78v-2.5l-6.2-2.7V829.537l6.2-2.6v-2.756Zm3,1.483,15.8-6.605v13.5Zm25-16.328V800.105c0-4.134-2.8-5.694-8.279-5.694-2.08,0-5.119.78-6.079,3.172-0.96-1.4-3.759-2.522-6.239-2.522-4.519,0-7.4,1.976-7.4,5.8v20.2H63Zm-12.358-2.34V799.975c0-2.808,3.479-3.12,4.559-3.12,1.12,0,4.6.312,4.6,3.12v18.747H50.642Zm-12.4,0v-18.1c0-2.808,3.479-3.12,4.559-3.12,1.12,0,4.6.312,4.6,3.12v18.1H38.244ZM35,774.7l11,12.688H35v2.08H63v-2.08H49.762L63,773.664v-4.213l-15.277,16.1L35,770.7v4Zm24.8-10.582H35v2.34H63V742.151H59.8v21.971ZM38.2,712.641H35v25.351H63V712.641H59.8v23.011H50.6v-21.4H47.4v21.4H38.2V712.641ZM35,682.04v3.146l28,11.727v-2.5l-6.2-2.705V675.67l6.2-2.6v-2.756Zm3,1.482,15.8-6.6v13.494Zm0.2-40.846H35v26.079h3.2V656.872H63v-2.34H38.2V642.676ZM37.724,607.6c0-2.912,1.64-5.59,5.279-6.968V598.06c-4.8,1.248-8.4,4.108-8.4,9.412v8.164c0,7.281,6.919,10.141,14.478,10.141,7.6,0,14.318-2.86,14.318-10.141v-8.164c0-5.434-3.719-8.346-8.759-9.542v2.548c3.959,1.326,5.679,4.108,5.679,7.124v7.9c0,4.187-3.279,7.931-11.278,7.931s-11.318-3.744-11.318-7.931v-7.9Zm11.8-37c-1.28-2.262-3.759-3.042-6.359-3.042-6.559,0-8.2,2.418-8.2,8.372v17.317H63v-2.34H51.4V573.8c0-2.184,2-4.212,5.559-4.212A20.822,20.822,0,0,0,63,568.914v-2.34c-1.4.416-2.6,0.728-6.759,0.728C53.081,567.328,50.6,568.316,49.522,570.6ZM38.2,590.911V575.258c0-1.846.12-5.408,5.039-5.408,4.479,0,4.959,3.562,4.959,5.408v15.653h-10Zm5.4-51.273c-6.679,0-8.8,1.976-8.8,5.642v12.585c0,3.666,2.12,5.642,8.8,5.642H54.281c6.879,0,8.918-1.9,8.918-5.642V545.28c0-3.744-2.04-5.642-8.918-5.642H43.6Zm-0.96,21.529c-3.479,0-4.6-1.092-4.6-3.458V545.436c0-2.366,1.12-3.458,4.6-3.458h12.8c3.639,0,4.559,1.014,4.559,3.458v12.273c0,2.444-.92,3.458-4.559,3.458h-12.8ZM43.6,511.74c-6.679,0-8.8,1.976-8.8,5.642v12.585c0,3.666,2.12,5.642,8.8,5.642H54.281c6.879,0,8.918-1.9,8.918-5.642V517.382c0-3.744-2.04-5.642-8.918-5.642H43.6Zm-0.96,21.529c-3.479,0-4.6-1.092-4.6-3.458V517.538c0-2.366,1.12-3.458,4.6-3.458h12.8c3.639,0,4.559,1.014,4.559,3.458v12.273c0,2.444-.92,3.458-4.559,3.458h-12.8ZM63,507.919V484.284H59.8v21.3c-10.8,0-5.039-21.113-16.317-21.113-3.719,0-8.479,1.508-8.479,8.893v6.4c0,5.668,3.6,7.1,8.479,7.644v-2.366c-3.839-.7-5.359-1.222-5.359-6.708v-2.47c0-6.344.68-9.127,5.359-9.127,7.719,0,2.32,21.191,17.517,21.191h2Z" transform="translate(-34.594 -484.281)"/>
</svg>
