<svg xmlns="http://www.w3.org/2000/svg" xmlns:xlink="http://www.w3.org/1999/xlink" width="1860.159" height="33.13" viewBox="0 0 1860.159 33.13">
  <metadata><?xpacket begin="﻿" id="W5M0MpCehiHzreSzNTczkc9d"?>
<x:xmpmeta xmlns:x="adobe:ns:meta/" x:xmptk="Adobe XMP Core 5.6-c138 79.159824, 2016/09/14-01:09:01        ">
   <rdf:RDF xmlns:rdf="http://www.w3.org/1999/02/22-rdf-syntax-ns#">
      <rdf:Description rdf:about=""/>
   </rdf:RDF>
</x:xmpmeta>
                                                                                                    
                                                                                                    
                                                                                                    
                                                                                                    
                                                                                                    
                                                                                                    
                                                                                                    
                                                                                                    
                                                                                                    
                                                                                                    
                                                                                                    
                                                                                                    
                                                                                                    
                                                                                                    
                                                                                                    
                                                                                                    
                                                                                                    
                                                                                                    
                                                                                                    
                                                                                                    
                           
<?xpacket end="w"?></metadata>
<defs>
    <style>
      .cls-1, .cls-2 {
        fill: #d0d0d0;
        fill-rule: evenodd;
      }

      .cls-1 {
        filter: url(#filter);
      }

      .cls-2 {
        filter: url(#filter-2);
      }
    </style>
    <filter id="filter" x="22.531" y="1565.62" width="846.907" height="25.57" filterUnits="userSpaceOnUse">
      <feFlood result="flood" flood-color="#fff"/>
      <feComposite result="composite" operator="in" in2="SourceGraphic"/>
      <feBlend result="blend" in2="SourceGraphic"/>
    </filter>
    <filter id="filter-2" x="941.375" y="1565.09" width="941.315" height="33.13" filterUnits="userSpaceOnUse">
      <feFlood result="flood"/>
      <feComposite result="composite" operator="in" in2="SourceGraphic"/>
      <feBlend result="blend" in2="SourceGraphic"/>
    </filter>
  </defs>
  <path id="FIVE_MILES_14-10-17_10-4AM" data-name="FIVE MILES    14-10-17    10-4AM" class="cls-1" d="M55.6,1567.75v-1.94H22.52V1591h2.16v-10.54H53.368v-1.91H24.679v-10.8H55.6ZM60.283,1591h2.16v-25.19h-2.16V1591Zm40.352-25.19H98.08L83.394,1589.2l-15.01-23.39h-2.34L81.882,1591h2.844Zm38.7,1.94v-1.94h-35.1V1591h35.1v-1.9H106.4v-9.72h30.7v-1.91H106.4v-9.72h32.936ZM164.718,1591v-22.53L182.644,1591h0.936l17.746-22.56V1591h2.159v-25.19H200.5l-17.422,22.21-17.746-22.21h-2.771V1591h2.159Zm45.612,0h2.16v-25.19h-2.16V1591Zm11.16-1.9v-23.29h-2.16V1591h33.656v-1.9h-31.5Zm71.276-21.35v-1.94h-35.1V1591h35.1v-1.9H259.83v-9.72h30.7v-1.91h-30.7v-9.72h32.936Zm14.655,21.35c-6.228,0-7.7-1.8-8.855-5.65H296.19c0.972,4.31,2.952,7.55,10.079,7.55h18.394c4.283,0,8.782-1.11,8.782-6.73,0-5.58-4.535-6.84-8.746-6.84h-19.33c-3.888,0-6.191-1.51-6.191-4.82s2.3-4.89,6.191-4.89h16.2c6.191,0,7.739,1.8,8.891,5.65h2.375c-0.971-4.32-3.023-7.56-10.114-7.56h-16.99c-4.284,0-8.783,1.11-8.783,6.73,0,5.65,4.5,6.84,8.783,6.84h19.293c3.888,0,6.192,1.51,6.192,4.86,0,3.31-2.3,4.86-6.192,4.86h-17.6Zm110.951,1.9h2.16v-25.19h-1.4a12.516,12.516,0,0,1-8.639,4.79v1.79c1.4,0,5.615-.71,7.883-3.2V1591Zm41.073-7.37v-1.95h-4.823v-15.87h-2.16l-23,15.98v1.84h23V1591h2.16v-7.37h4.823Zm-26.673-1.95,19.69-13.57v13.57h-19.69Zm31.824-2.19h13.067v-2.13H464.6v2.13ZM491.811,1591h2.16v-25.19h-1.4a12.516,12.516,0,0,1-8.639,4.79v1.79c1.4,0,5.615-.71,7.883-3.2V1591Zm44.025-17.45c0-6.01-2.736-7.92-7.811-7.92H510.6c-5.076,0-7.811,1.91-7.811,7.92v9.68c0,6.15,2.663,7.95,7.811,7.95h17.422c5.075,0,7.811-1.8,7.811-7.95v-9.68Zm-30.885-.87c0-4.03,2.232-5.11,5.508-5.11h17.71c3.275,0,5.507,1.08,5.507,5.11v11.49c0,4.13-2.2,5.11-5.507,5.11h-17.71c-3.312,0-5.508-.98-5.508-5.11v-11.49Zm36.144,6.81h13.067v-2.13H541.1v2.13ZM568.31,1591h2.16v-25.19h-1.4a12.516,12.516,0,0,1-8.639,4.79v1.79c1.4,0,5.615-.71,7.883-3.2V1591Zm10.657-23.28H601.68c-10.871,6.73-16.306,17.67-16.486,23.28h2.16c0.4-6.58,6.407-16.73,16.774-22.78v-2.41H578.967v1.91ZM689.2,1591h2.16v-25.19h-1.4a12.516,12.516,0,0,1-8.639,4.79v1.79c1.4,0,5.615-.71,7.883-3.2V1591Zm44.024-17.45c0-6.01-2.735-7.92-7.811-7.92H707.989c-5.076,0-7.811,1.91-7.811,7.92v9.68c0,6.15,2.663,7.95,7.811,7.95H725.41c5.076,0,7.811-1.8,7.811-7.95v-9.68Zm-30.884-.87c0-4.03,2.232-5.11,5.508-5.11h17.709c3.276,0,5.508,1.08,5.508,5.11v11.49c0,4.13-2.2,5.11-5.508,5.11H707.845c-3.312,0-5.508-.98-5.508-5.11v-11.49Zm36.144,6.81h13.067v-2.13H738.481v2.13Zm48.452,4.14v-1.95H782.11v-15.87h-2.16l-23,15.98v1.84h23V1591h2.16v-7.37h4.823Zm-26.672-1.95,19.689-13.57v13.57H760.261Zm48.2-15.87h-2.844l-16.2,25.19h2.34l3.959-5.97h22.569l3.888,5.97h2.556Zm-1.332,1.83,10.006,15.55H796.908ZM830.676,1591v-22.53L848.6,1591h0.935l17.746-22.56V1591h2.16v-25.19h-2.988l-17.421,22.21-17.746-22.21h-2.772V1591h2.16Z" transform="translate(-22.531 -1565.09)"/>
  <path id="_BUY_TICKETS_BUY_TICKETS_" data-name="** BUY TICKETS *** BUY TICKETS ***" class="cls-2" d="M942.188,1567.39l-0.828,2.23,4.211,1.08-3.131,3.64,1.98,1.33,2.447-3.82,2.3,3.89,2.124-1.22-3.06-3.82,4.284-.97-0.72-2.3-4.1,1.51,0.36-3.85h-2.232l0.36,3.85Zm13.679,0-0.828,2.23,4.212,1.08-3.132,3.64,1.98,1.33,2.448-3.82,2.3,3.89,2.124-1.22-3.059-3.82,4.283-.97-0.72-2.3-4.1,1.51,0.36-3.85H959.5l0.36,3.85ZM988.879,1591h29.011c5.72,0,7.88-2.52,7.88-7.45a5.637,5.637,0,0,0-4.39-5.47,6.56,6.56,0,0,0,3.49-5.61c0-4.07-2.73-6.66-8.02-6.66H988.879V1591Zm3.239-11.12h25.952a4.125,4.125,0,1,1,0,8.24H992.118v-8.24Zm0-11.16h25.052a4.129,4.129,0,1,1,0,8.25H992.118v-8.25Zm63.752,22.64c10.08,0,14.04-5.32,14.04-12.88v-12.67h-3.24v12.63c0,7.92-5.18,10.15-10.98,10.15h-10.47c-5.8,0-10.98-2.23-10.98-10.15v-12.63H1031v12.67c0,7.56,3.96,12.88,14.04,12.88h10.83Zm32.4-.36h3.24v-8.31l16.02-16.88h-4.36l-13.28,13.93-13.28-13.93h-4.36l16.02,16.88V1591Zm74.09-22.31v-2.88h-36.11v2.88h16.45V1591h3.24v-22.31h16.42Zm4.68,22.31h3.24v-25.19h-3.24V1591Zm33.8-22.74c4.03,0,7.74,1.47,9.65,4.75h3.56c-1.72-4.32-5.68-7.56-13.03-7.56h-11.3c-10.08,0-14.04,6.23-14.04,13.03,0,6.84,3.96,12.88,14.04,12.88h11.3c7.53,0,11.56-3.34,13.21-7.88h-3.52c-1.84,3.57-5.69,5.11-9.87,5.11H1189.9c-5.8,0-10.98-2.95-10.98-10.15s5.18-10.18,10.98-10.18h10.94Zm39.24-2.45-17.56,9.9v-9.9h-2.88V1591h2.88v-11.91l19,11.91h5.83l-22.28-13.75,20.56-11.44h-5.55Zm45.43,2.88v-2.88h-35.09V1591h35.09v-2.88h-31.85v-8.27h29.62v-2.88h-29.62v-8.28h31.85Zm39.17,0v-2.88h-36.1v2.88h16.45V1591h3.24v-22.31h16.41Zm13.22,19.47c-4,0-5.62-1.4-6.77-4.71h-3.57c0.98,4.31,2.88,7.55,10.16,7.55h17.09c5.62,0,10.05-.97,10.05-6.98,0-5.94-4.4-7.09-10.01-7.09H1338c-3.85,0-6.3-.72-6.3-4.1,0-3.31,2.49-4.18,6.34-4.18h15.8c4,0,5.65,1.41,6.8,4.72h3.57c-0.97-4.32-2.88-7.56-10.19-7.56h-15.66c-5.61,0-10.04.97-10.04,6.98,0,5.94,4.39,7.06,10.01,7.06h16.84c3.85,0,6.3.79,6.3,4.14,0,3.31-2.48,4.17-6.33,4.17H1337.9Zm48.85-20.77-0.83,2.23,4.21,1.08-3.13,3.64,1.98,1.33,2.45-3.82,2.3,3.89,2.13-1.22-3.06-3.82,4.28-.97-0.72-2.3-4.1,1.51,0.36-3.85h-2.24l0.36,3.85Zm13.68,0-0.83,2.23,4.21,1.08-3.13,3.64,1.98,1.33,2.45-3.82,2.3,3.89,2.12-1.22-3.05-3.82,4.28-.97-0.72-2.3-4.1,1.51,0.36-3.85h-2.24l0.36,3.85Zm13.68,0-0.83,2.23,4.21,1.08-3.13,3.64,1.98,1.33,2.45-3.82,2.3,3.89,2.12-1.22-3.06-3.82,4.29-.97-0.72-2.3-4.11,1.51,0.36-3.85h-2.23l0.36,3.85Zm33.01,23.61h29.01c5.72,0,7.88-2.52,7.88-7.45a5.637,5.637,0,0,0-4.39-5.47,6.56,6.56,0,0,0,3.49-5.61c0-4.07-2.73-6.66-8.02-6.66h-27.97V1591Zm3.24-11.12h25.95a4.125,4.125,0,1,1,0,8.24h-25.95v-8.24Zm0-11.16h25.05a4.129,4.129,0,1,1,0,8.25h-25.05v-8.25Zm63.75,22.64c10.08,0,14.04-5.32,14.04-12.88v-12.67h-3.24v12.63c0,7.92-5.18,10.15-10.98,10.15h-10.47c-5.8,0-10.98-2.23-10.98-10.15v-12.63h-3.24v12.67c0,7.56,3.96,12.88,14.04,12.88h10.83Zm32.4-.36h3.24v-8.31l16.02-16.88h-4.36l-13.28,13.93-13.28-13.93h-4.36l16.02,16.88V1591Zm74.09-22.31v-2.88h-36.11v2.88h16.45V1591h3.24v-22.31h16.42Zm4.68,22.31h3.24v-25.19h-3.24V1591Zm33.8-22.74c4.03,0,7.74,1.47,9.65,4.75h3.56c-1.72-4.32-5.68-7.56-13.03-7.56h-11.3c-10.08,0-14.04,6.23-14.04,13.03,0,6.84,3.96,12.88,14.04,12.88h11.3c7.53,0,11.56-3.34,13.21-7.88h-3.52c-1.84,3.57-5.69,5.11-9.87,5.11h-10.94c-5.8,0-10.98-2.95-10.98-10.15s5.18-10.18,10.98-10.18h10.94Zm39.24-2.45-17.56,9.9v-9.9h-2.88V1591h2.88v-11.91l19,11.91h5.83l-22.28-13.75,20.56-11.44h-5.55Zm45.43,2.88v-2.88h-35.09V1591h35.09v-2.88H1711.9v-8.27h29.62v-2.88H1711.9v-8.28h31.85Zm39.17,0v-2.88h-36.1v2.88h16.45V1591h3.24v-22.31h16.41Zm13.22,19.47c-4,0-5.62-1.4-6.77-4.71h-3.56c0.97,4.31,2.87,7.55,10.15,7.55h17.09c5.62,0,10.05-.97,10.05-6.98,0-5.94-4.4-7.09-10.01-7.09h-16.85c-3.85,0-6.3-.72-6.3-4.1,0-3.31,2.49-4.18,6.34-4.18h15.8c4,0,5.65,1.41,6.8,4.72h3.57c-0.97-4.32-2.88-7.56-10.19-7.56H1796.6c-5.61,0-10.04.97-10.04,6.98,0,5.94,4.39,7.06,10.01,7.06h16.84c3.86,0,6.3.79,6.3,4.14,0,3.31-2.48,4.17-6.33,4.17h-17.24Zm48.85-20.77-0.83,2.23,4.21,1.08-3.13,3.64,1.98,1.33,2.45-3.82,2.3,3.89,2.13-1.22-3.06-3.82,4.28-.97-0.72-2.3-4.1,1.51,0.36-3.85h-2.24l0.36,3.85Zm13.68,0-0.83,2.23,4.21,1.08-3.13,3.64,1.98,1.33,2.45-3.82,2.3,3.89,2.13-1.22-3.06-3.82,4.28-.97-0.72-2.3-4.1,1.51,0.36-3.85h-2.24l0.36,3.85Zm13.68,0-0.83,2.23,4.21,1.08-3.13,3.64,1.98,1.33,2.45-3.82,2.3,3.89,2.12-1.22-3.06-3.82,4.29-.97-0.72-2.3-4.11,1.51,0.36-3.85h-2.23l0.36,3.85Zm-885.991,30.83v-1.8h381.2v1.8h-381.2Zm458.241,0v-1.8h381.2v1.8H1444.6Z" transform="translate(-22.531 -1565.09)"/>
</svg>
