<svg xmlns="http://www.w3.org/2000/svg" xmlns:xlink="http://www.w3.org/1999/xlink" width="931.216" height="178.91" viewBox="0 0 931.216 178.91">
  <metadata><?xpacket begin="﻿" id="W5M0MpCehiHzreSzNTczkc9d"?>
<x:xmpmeta xmlns:x="adobe:ns:meta/" x:xmptk="Adobe XMP Core 5.6-c138 79.159824, 2016/09/14-01:09:01        ">
   <rdf:RDF xmlns:rdf="http://www.w3.org/1999/02/22-rdf-syntax-ns#">
      <rdf:Description rdf:about=""/>
   </rdf:RDF>
</x:xmpmeta>
                                                                                                    
                                                                                                    
                                                                                                    
                                                                                                    
                                                                                                    
                                                                                                    
                                                                                                    
                                                                                                    
                                                                                                    
                                                                                                    
                                                                                                    
                                                                                                    
                                                                                                    
                                                                                                    
                                                                                                    
                                                                                                    
                                                                                                    
                                                                                                    
                                                                                                    
                                                                                                    
                           
<?xpacket end="w"?></metadata>
<defs>
    <style>
      .cls-1, .cls-2, .cls-3, .cls-4 {
        fill: #d0d0d0;
        fill-rule: evenodd;
      }

      .cls-1 {
        filter: url(#filter);
      }

      .cls-2 {
        filter: url(#filter-2);
      }

      .cls-3 {
        filter: url(#filter-3);
      }

      .cls-4 {
        filter: url(#filter-4);
      }
    </style>
    <filter id="filter" x="258.594" y="1697.09" width="931.216" height="166.82" filterUnits="userSpaceOnUse">
      <feFlood result="flood" flood-color="#fff"/>
      <feComposite result="composite" operator="in" in2="SourceGraphic"/>
      <feBlend result="blend" in2="SourceGraphic"/>
    </filter>
    <filter id="filter-2" x="585" y="1686" width="43" height="53" filterUnits="userSpaceOnUse">
      <feFlood result="flood" flood-color="#fff"/>
      <feComposite result="composite" operator="in" in2="SourceGraphic"/>
      <feBlend result="blend" in2="SourceGraphic"/>
    </filter>
    <filter id="filter-3" x="689" y="1758" width="43" height="53" filterUnits="userSpaceOnUse">
      <feFlood result="flood" flood-color="#fff"/>
      <feComposite result="composite" operator="in" in2="SourceGraphic"/>
      <feBlend result="blend" in2="SourceGraphic"/>
    </filter>
    <filter id="filter-4" x="859" y="1685" width="43" height="53" filterUnits="userSpaceOnUse">
      <feFlood result="flood" flood-color="#fff"/>
      <feComposite result="composite" operator="in" in2="SourceGraphic"/>
      <feBlend result="blend" in2="SourceGraphic"/>
    </filter>
  </defs>
  <path id="FLORA_HEX_IMPEY_MOLESKIN_SAMI_BAHA_SILK_ROAD_ASSASS" data-name="FLORA    HEX    IMPEY    MOLESKIN    SAMI BAHA SILK ROAD ASSASS" class="cls-1" d="M332.835,1700.7v-3.2H288.719v28h4.32v-11.2h36.819v-3.2H293.039v-10.4h39.8Zm12,21.6v-24.8H340.51v28h44.884v-3.2H344.831Zm82.13,3.6c13.442,0,18.722-6.72,18.722-14.32,0-7.56-5.28-14.48-18.722-14.48H409.872c-13.441,0-18.722,6.92-18.722,14.48,0,7.6,5.281,14.32,18.722,14.32h17.089Zm-0.24-25.68c7.729,0,14.642,3.32,14.642,11.32s-6.913,11.28-14.642,11.28H410.112c-7.729,0-14.641-3.28-14.641-11.28s6.912-11.32,14.641-11.32h16.609Zm69.409,11.8c4.176-1.28,5.616-3.76,5.616-6.36,0-6.56-4.464-8.2-15.457-8.2H454.318v28.04h4.321v-11.6h31.586c4.033,0,7.777,2,7.777,5.56a11.922,11.922,0,0,0,1.248,6.04h4.321c-0.768-1.4-1.344-2.6-1.344-6.76C502.179,1715.58,500.354,1713.1,496.13,1712.02Zm-37.491-11.32h28.9c3.409,0,9.985.12,9.985,5.04,0,4.48-6.576,4.96-9.985,4.96h-28.9v-10Zm74.785-3.2h-5.808l-21.65,28h4.608l4.992-6.2h29.619l4.8,6.2h5.089Zm-2.736,3,12.193,15.8H517.967Zm179.617,25h4.321v-28h-4.321v12.24H666.91V1697.5h-4.321v28h4.321v-12.56h43.395v12.56Zm61.68-24.8v-3.2h-46.8v28h46.8v-3.2H729.5v-9.2h39.507v-3.2H729.5v-9.2h42.483Zm9.4-3.2H775.34l19.346,14.04L775.34,1725.5h6.145l16.225-11.76,16.274,11.76h6.144l-19.345-13.96,19.345-14.04H814.08l-16.37,11.84Zm146.015,28h4.32v-28H927.4v28Zm19.2,0v-23.44l22.13,23.44H970.7l21.842-23.48v23.48h4.321v-28h-5.809l-21.41,22.96-21.794-22.96h-5.568v28h4.32Zm60.816,0h4.32v-7.2h27.84c11,0,15.46-4.24,15.46-10.32,0-6.96-4.56-10.52-15.55-10.52h-32.07v28.04Zm4.32-24.8h28.99c3.41,0,9.99.68,9.99,7.24,0,6.52-6.58,7.16-9.99,7.16h-28.99v-14.4Zm98.26,0v-3.2h-46.81v28H1110v-3.2h-42.48v-9.2h39.5v-3.2h-39.5v-9.2H1110Zm24.48,24.8h4.32v-9.24l21.36-18.76h-5.81l-17.71,15.48-17.72-15.48h-5.81l21.37,18.76v9.24Zm-871.561,69v-23.44l22.13,23.44h1.968l21.842-23.48v23.48h4.32v-28h-5.808l-21.41,22.96-21.794-22.96H258.6v28h4.32Zm94.706,0.4c13.441,0,18.722-6.72,18.722-14.32,0-7.56-5.281-14.48-18.722-14.48H340.536c-13.441,0-18.722,6.92-18.722,14.48,0,7.6,5.281,14.32,18.722,14.32h17.089Zm-0.24-25.68c7.729,0,14.642,3.32,14.642,11.32s-6.913,11.28-14.642,11.28H340.776c-7.729,0-14.641-3.28-14.641-11.28s6.912-11.32,14.641-11.32h16.609ZM389.3,1791.3v-24.8h-4.321v28h44.884v-3.2H389.3Zm95.043-21.6v-3.2h-46.8v28h46.8v-3.2H441.863v-9.2H481.37v-3.2H441.863v-9.2h42.483Zm19.773,21.64c-5.329,0-7.489-1.56-9.025-5.24h-4.752c1.3,4.8,3.84,8.4,13.537,8.4h22.8c7.488,0,13.393-1.08,13.393-7.76,0-6.6-5.857-7.88-13.345-7.88H504.263c-5.137,0-8.4-.8-8.4-4.56,0-3.68,3.312-4.64,8.449-4.64h21.074c5.328,0,7.536,1.56,9.072,5.24h4.753c-1.3-4.8-3.84-8.4-13.585-8.4H504.743c-7.489,0-13.393,1.08-13.393,7.76,0,6.6,5.856,7.84,13.345,7.84h22.466c5.136,0,8.4.88,8.4,4.6,0,3.68-3.313,4.64-8.449,4.64H504.119Zm71.617-24.84-23.426,11v-11h-3.84v28h3.84v-13.24l25.346,13.24h7.777l-29.715-15.28,27.411-12.72h-7.393Zm15.213,28h4.321v-28h-4.321v28Zm60-28h-4.32v23.92L611.4,1766.46h-5.569v28.04h4.32v-24.16l35.523,24.16h5.281v-28Zm123.692,24.84c-5.329,0-7.489-1.56-9.025-5.24h-4.752c1.3,4.8,3.84,8.4,13.537,8.4h22.8c7.488,0,13.393-1.08,13.393-7.76,0-6.6-5.857-7.88-13.345-7.88H774.789c-5.137,0-8.4-.8-8.4-4.56,0-3.68,3.312-4.64,8.449-4.64h21.074c5.328,0,7.536,1.56,9.072,5.24h4.753c-1.3-4.8-3.84-8.4-13.585-8.4H775.269c-7.489,0-13.393,1.08-13.393,7.76,0,6.6,5.856,7.84,13.345,7.84h22.466c5.136,0,8.4.88,8.4,4.6,0,3.68-3.313,4.64-8.449,4.64H774.645Zm67.008-24.84h-5.808l-21.65,28H818.8l4.993-6.2h29.618l4.8,6.2H863.3Zm-2.736,3,12.193,15.8H826.2Zm34.463,25v-23.44l22.13,23.44h1.968l21.842-23.48v23.48h4.32v-28h-5.808l-21.41,22.96-21.794-22.96h-5.569v28h4.321Zm60.815,0h4.32v-28H934.2v28Zm40.32,0h38.7c7.63,0,10.51-2.8,10.51-8.28,0-2.08-1.44-5.12-5.86-6.08a7.328,7.328,0,0,0,4.66-6.24c0-4.52-3.65-7.4-10.71-7.4H974.515v28Zm4.32-12.36h34.615c5.18,0,5.76,3.48,5.76,4.56,0,1.12-.58,4.6-5.76,4.6H978.835v-9.16Zm0-12.4h33.415c5.18,0,5.76,3.48,5.76,4.56,0,1.12-.58,4.6-5.76,4.6H978.835v-9.16Zm76.655-3.24h-5.81l-21.65,28h4.61l4.99-6.2h29.62l4.8,6.2h5.09Zm-2.73,3,12.19,15.8h-24.91Zm77.85,25h4.32v-28h-4.32v12.24h-43.39V1766.5h-4.32v28h4.32v-12.56h43.39v12.56Zm37.54-28h-5.81l-21.65,28h4.61l4.99-6.2h29.62l4.8,6.2h5.09Zm-2.74,3,12.2,15.8h-24.92Zm-846.163,90.84c-5.328,0-7.488-1.56-9.024-5.24H305.47c1.3,4.8,3.841,8.4,13.537,8.4h22.8c7.489,0,13.394-1.08,13.394-7.76,0-6.6-5.857-7.88-13.346-7.88H319.391c-5.136,0-8.4-.8-8.4-4.56,0-3.68,3.312-4.64,8.448-4.64h21.074c5.329,0,7.537,1.56,9.073,5.24h4.752c-1.3-4.8-3.84-8.4-13.585-8.4H319.871c-7.488,0-13.393,1.08-13.393,7.76,0,6.6,5.857,7.84,13.345,7.84h22.466c5.137,0,8.4.88,8.4,4.6,0,3.68-3.312,4.64-8.449,4.64H319.247Zm44.351,3.16h4.32v-28H363.6v28Zm19.2-3.2v-24.8h-4.32v28h44.884v-3.2H382.8Zm75.506-24.8-23.426,11v-11h-3.84v28h3.84v-13.24l25.346,13.24H468l-29.714-15.28,27.41-12.72H458.3Zm82.465,14.52c4.176-1.28,5.617-3.76,5.617-6.36,0-6.56-4.465-8.2-15.458-8.2H498.957v28.04h4.321v-11.6h31.587c4.032,0,7.776,2,7.776,5.56a11.922,11.922,0,0,0,1.248,6.04h4.321c-0.768-1.4-1.344-2.6-1.344-6.76C546.818,1853.58,544.993,1851.1,540.769,1850.02Zm-37.491-11.32h28.9c3.409,0,9.985.12,9.985,5.04,0,4.48-6.576,4.96-9.985,4.96h-28.9v-10Zm86.018,25.2c13.441,0,18.722-6.72,18.722-14.32,0-7.56-5.281-14.48-18.722-14.48H572.207c-13.442,0-18.722,6.92-18.722,14.48,0,7.6,5.28,14.32,18.722,14.32H589.3Zm-0.24-25.68c7.729,0,14.641,3.32,14.641,11.32s-6.912,11.28-14.641,11.28H572.447c-7.729,0-14.642-3.28-14.642-11.28s6.913-11.32,14.642-11.32h16.609Zm50.255-2.72H633.5l-21.649,28h4.608l4.992-6.2h29.619l4.8,6.2h5.089Zm-2.736,3,12.193,15.8H623.854Zm30.142,25h33.171c13.441,0,18.721-6.32,18.721-13.92,0-7.56-5.28-14.08-18.721-14.08H666.717v28Zm32.931-24.88c7.728,0,14.641,2.92,14.641,10.92s-6.913,10.88-14.641,10.88H671.037v-21.8h28.611Zm75.695-3.12h-5.809l-21.65,28h4.609l4.992-6.2H787.1l4.8,6.2h5.089Zm-2.737,3,12.194,15.8H759.885Zm41.52,21.84c-5.329,0-7.489-1.56-9.025-5.24h-4.753c1.3,4.8,3.841,8.4,13.538,8.4h22.8c7.488,0,13.393-1.08,13.393-7.76,0-6.6-5.857-7.88-13.345-7.88H814.27c-5.137,0-8.4-.8-8.4-4.56,0-3.68,3.312-4.64,8.449-4.64h21.073c5.329,0,7.537,1.56,9.073,5.24h4.753c-1.3-4.8-3.841-8.4-13.586-8.4H814.75c-7.489,0-13.394,1.08-13.394,7.76,0,6.6,5.857,7.84,13.346,7.84h22.466c5.136,0,8.4.88,8.4,4.6,0,3.68-3.312,4.64-8.448,4.64H814.126Zm55.727,0c-5.328,0-7.488-1.56-9.025-5.24h-4.752c1.3,4.8,3.84,8.4,13.537,8.4h22.8c7.489,0,13.393-1.08,13.393-7.76,0-6.6-5.856-7.88-13.345-7.88H870c-5.136,0-8.4-.8-8.4-4.56,0-3.68,3.312-4.64,8.448-4.64h21.074c5.329,0,7.537,1.56,9.073,5.24h4.752c-1.3-4.8-3.84-8.4-13.585-8.4H870.477c-7.488,0-13.393,1.08-13.393,7.76,0,6.6,5.857,7.84,13.345,7.84H892.9c5.137,0,8.4.88,8.4,4.6,0,3.68-3.312,4.64-8.449,4.64H869.853Zm67.009-24.84h-5.809l-21.649,28h4.608l4.992-6.2h29.619l4.8,6.2h5.089Zm-2.736,3,12.193,15.8H921.405Zm41.519,21.84c-5.329,0-7.489-1.56-9.025-5.24h-4.752c1.3,4.8,3.84,8.4,13.537,8.4h22.8c7.493,0,13.393-1.08,13.393-7.76,0-6.6-5.86-7.88-13.345-7.88H975.789c-5.137,0-8.4-.8-8.4-4.56,0-3.68,3.312-4.64,8.449-4.64h21.074c5.329,0,7.539,1.56,9.069,5.24h4.76c-1.3-4.8-3.84-8.4-13.589-8.4H976.269c-7.489,0-13.393,1.08-13.393,7.76,0,6.6,5.856,7.84,13.345,7.84h22.466c5.133,0,8.4.88,8.4,4.6,0,3.68-3.31,4.64-8.451,4.64H975.645Zm55.725,0c-5.33,0-7.49-1.56-9.02-5.24h-4.75c1.29,4.8,3.84,8.4,13.53,8.4h22.8c7.49,0,13.4-1.08,13.4-7.76,0-6.6-5.86-7.88-13.35-7.88h-22.46c-5.14,0-8.4-.8-8.4-4.56,0-3.68,3.31-4.64,8.44-4.64h21.08c5.33,0,7.54,1.56,9.07,5.24h4.75c-1.29-4.8-3.84-8.4-13.58-8.4H1032c-7.49,0-13.4,1.08-13.4,7.76,0,6.6,5.86,7.84,13.35,7.84h22.46c5.14,0,8.41.88,8.41,4.6,0,3.68-3.32,4.64-8.45,4.64h-23Zm44.35,3.16h4.32v-28h-4.32v28Zm60.01-28h-4.32v23.92l-35.24-23.96h-5.57v28.04h4.32v-24.16l35.53,24.16h5.28v-28Z" transform="translate(-258.594 -1685)"/>
  <path class="cls-2" d="M627.85,1722.8l-0.347.78c-5.7-2.4-11.393-4.81-17.963-7.58l-2.58,23c-1.05-8.13-1.937-14.99-2.958-22.9-6.518,2.88-12.556,5.54-18.595,8.2-0.135-.18-0.271-0.36-0.407-0.55,5.2-4.02,10.4-8.03,16.142-12.47-5.335-4.04-10.148-7.68-14.96-11.32l0.336-.84c5.5,2.28,10.989,4.56,17.361,7.2,0.764-7.16,1.46-13.69,2.156-20.22,0.234-.03.469-0.07,0.7-0.1,0.828,6.47,1.657,12.93,2.609,20.36,6.556-2.93,12.425-5.55,18.294-8.17,0.119,0.22.239,0.45,0.359,0.68-5.047,3.9-10.1,7.79-15.917,12.28C617.68,1715.29,622.765,1719.04,627.85,1722.8Z" transform="translate(-258.594 -1685)"/>
  <path id="Shape_1_copy" data-name="Shape 1 copy" class="cls-3" d="M731.85,1794.8l-0.347.78c-5.7-2.4-11.393-4.81-17.963-7.58l-2.58,23c-1.05-8.13-1.937-14.99-2.958-22.9-6.518,2.88-12.556,5.54-18.595,8.2-0.135-.18-0.271-0.36-0.407-0.55,5.2-4.02,10.4-8.03,16.142-12.47-5.335-4.04-10.148-7.68-14.96-11.32l0.336-.84c5.5,2.28,10.989,4.56,17.361,7.2,0.764-7.16,1.46-13.69,2.156-20.22,0.234-.03.469-0.07,0.7-0.1,0.828,6.47,1.657,12.93,2.609,20.36,6.556-2.93,12.425-5.55,18.294-8.17,0.119,0.22.239,0.45,0.359,0.68-5.047,3.9-10.1,7.79-15.917,12.28C721.68,1787.29,726.765,1791.04,731.85,1794.8Z" transform="translate(-258.594 -1685)"/>
  <path id="Shape_1_copy_2" data-name="Shape 1 copy 2" class="cls-4" d="M901.85,1721.8l-0.347.78c-5.7-2.4-11.393-4.81-17.963-7.58l-2.58,23c-1.05-8.13-1.937-14.99-2.958-22.9-6.518,2.88-12.556,5.54-18.595,8.2-0.135-.18-0.271-0.36-0.407-0.55,5.2-4.02,10.4-8.03,16.142-12.47-5.335-4.04-10.148-7.68-14.96-11.32l0.336-.84c5.5,2.28,10.989,4.56,17.361,7.2,0.764-7.16,1.46-13.69,2.156-20.22,0.234-.03.469-0.07,0.7-0.1,0.828,6.47,1.657,12.93,2.609,20.36,6.556-2.93,12.425-5.55,18.294-8.17,0.119,0.22.239,0.45,0.359,0.68-5.047,3.9-10.1,7.79-15.917,12.28C891.68,1714.29,896.765,1718.04,901.85,1721.8Z" transform="translate(-258.594 -1685)"/>
</svg>
