<?xml version="1.0" encoding="utf-8"?>
<!-- Generator: Adobe Illustrator 18.0.0, SVG Export Plug-In . SVG Version: 6.00 Build 0)  -->
<!DOCTYPE svg PUBLIC "-//W3C//DTD SVG 1.1//EN" "http://www.w3.org/Graphics/SVG/1.1/DTD/svg11.dtd">
<svg version="1.1" id="Layer_1" xmlns="http://www.w3.org/2000/svg" xmlns:xlink="http://www.w3.org/1999/xlink" x="0px" y="0px"
	 viewBox="0 0 90 114" enable-background="new 0 0 90 114" xml:space="preserve">
<path fill="#FFFFFF" d="M10.4,8.5c-2.8,1.8-5.5,4-7.3,6.8c-0.8,1.2-1.4,2.5-1.8,3.9c-0.5,1.6-0.8,3.2-1,4.8C0.1,25.3,0,26.7,0,28.1
	v11.3c0,1.4,0.1,2.7,0.3,4.1c0.2,1.6,0.5,3.3,1,4.9c0.4,1.4,1.1,2.7,1.8,3.9c1.8,2.8,4.5,5,7.3,6.8c7.5,4.8,16.6,7,25.4,8
	c3,0.3,6.1,0.5,9.2,0.5V45c-9.7,0-19.7-1.2-28.5-5.3c-4.1-1.9-7.2-3.9-9.5-6c2.3-2,5.4-4.1,9.5-6c8.8-4.1,18.8-5.3,28.5-5.3V0
	c-3.1,0-6.1,0.2-9.2,0.5C27,1.4,17.9,3.7,10.4,8.5"/>
<path fill="#FFFFFF" d="M89.7,46.4c-0.2-1.6-0.5-3.3-1-4.8c-0.4-1.4-1.1-2.7-1.8-3.9c-1.8-2.8-4.5-5-7.3-6.8c-7.5-4.8-16.6-7-25.4-8
	c-3-0.3-6.1-0.5-9.2-0.5V45c9.7,0,19.7,1.2,28.5,5.3c4.1,1.9,7.2,3.9,9.5,6c-2.3,2-5.4,4.1-9.5,6c-8.8,4.1-18.8,5.3-28.5,5.3l0,0V90
	v0c0,0,0,0,0.1,0l44,22.1V89.6l-12.5-6.3c1-0.6,2.1-1.1,3.1-1.8c2.8-1.8,5.5-4,7.3-6.8c0.8-1.2,1.4-2.5,1.8-3.9
	c0.5-1.6,0.8-3.2,1-4.9c0.2-1.4,0.3-2.8,0.3-4.1V50.6C90,49.2,89.9,47.8,89.7,46.4"/>
</svg>
