<svg xmlns="http://www.w3.org/2000/svg" width="244.18" height="18.47" viewBox="0 0 244.18 18.47">
  <metadata><?xpacket begin="﻿" id="W5M0MpCehiHzreSzNTczkc9d"?>
<x:xmpmeta xmlns:x="adobe:ns:meta/" x:xmptk="Adobe XMP Core 5.6-c138 79.159824, 2016/09/14-01:09:01        ">
   <rdf:RDF xmlns:rdf="http://www.w3.org/1999/02/22-rdf-syntax-ns#">
      <rdf:Description rdf:about=""/>
   </rdf:RDF>
</x:xmpmeta>
                                                                                                    
                                                                                                    
                                                                                                    
                                                                                                    
                                                                                                    
                                                                                                    
                                                                                                    
                                                                                                    
                                                                                                    
                                                                                                    
                                                                                                    
                                                                                                    
                                                                                                    
                                                                                                    
                                                                                                    
                                                                                                    
                                                                                                    
                                                                                                    
                                                                                                    
                                                                                                    
                           
<?xpacket end="w"?></metadata>
<defs>
    <style>
      .cls-1 {
        fill: #d0d0d0;
        fill-rule: evenodd;
      }
    </style>
  </defs>
  <path id="BUY_TEE" data-name="BUY TEE" class="cls-1" d="M3192.67,1284.1h27.24c5.37,0,7.4-1.82,7.4-5.38,0-1.35-1.01-3.33-4.12-3.95a4.839,4.839,0,0,0,3.28-4.06c0-2.94-2.57-4.81-7.54-4.81h-26.26v18.2Zm3.04-8.03h24.37c3.65,0,4.05,2.26,4.05,2.96,0,0.73-.4,2.99-4.05,2.99h-24.37v-5.95Zm0-8.06h23.52c3.65,0,4.06,2.26,4.06,2.96,0,0.73-.41,2.99-4.06,2.99h-23.52v-5.95Zm60.87,16.35c9.47,0,13.18-3.85,13.18-9.31v-9.15h-3.04v9.13c0,5.72-4.86,7.33-10.31,7.33h-9.83c-5.44,0-10.31-1.61-10.31-7.33v-9.13h-3.04v9.15c0,5.46,3.72,9.31,13.18,9.31h10.17Zm31.44-.26h3.04v-6.01l15.04-12.19h-4.09l-12.47,10.06-12.47-10.06h-4.09l15.04,12.19v6.01Zm71.58-16.12v-2.08h-33.9v2.08h15.45v16.12h3.04v-16.12h15.41Zm38.37,0v-2.08h-32.96v18.2h32.96v-2.08h-29.91v-5.98h27.81v-2.08h-27.81v-5.98h29.91Zm38.87,0v-2.08h-32.96v18.2h32.96v-2.08h-29.92v-5.98h27.82v-2.08h-27.82v-5.98h29.92Z" transform="translate(-3192.66 -1265.91)"/>
</svg>
