<svg xmlns="http://www.w3.org/2000/svg" xmlns:xlink="http://www.w3.org/1999/xlink" width="782.376" height="84.22" viewBox="0 0 782.376 84.22">
  <metadata><?xpacket begin="﻿" id="W5M0MpCehiHzreSzNTczkc9d"?>
<x:xmpmeta xmlns:x="adobe:ns:meta/" x:xmptk="Adobe XMP Core 5.6-c138 79.159824, 2016/09/14-01:09:01        ">
   <rdf:RDF xmlns:rdf="http://www.w3.org/1999/02/22-rdf-syntax-ns#">
      <rdf:Description rdf:about=""/>
   </rdf:RDF>
</x:xmpmeta>
                                                                                                    
                                                                                                    
                                                                                                    
                                                                                                    
                                                                                                    
                                                                                                    
                                                                                                    
                                                                                                    
                                                                                                    
                                                                                                    
                                                                                                    
                                                                                                    
                                                                                                    
                                                                                                    
                                                                                                    
                                                                                                    
                                                                                                    
                                                                                                    
                                                                                                    
                                                                                                    
                           
<?xpacket end="w"?></metadata>
<defs>
    <style>
      .cls-1 {
        fill: #d0d0d0;
        filter: url(#filter);
      }

      .cls-1, .cls-2 {
        fill-rule: evenodd;
      }
    </style>
    <filter id="filter" x="331.594" y="1907.31" width="782.376" height="28.38" filterUnits="userSpaceOnUse">
      <feFlood result="flood" flood-color="#fff"/>
      <feComposite result="composite" operator="in" in2="SourceGraphic"/>
      <feBlend result="blend" in2="SourceGraphic"/>
    </filter>
  </defs>
  <path id="FIVE_MILES_14-10-17" data-name="FIVE MILES   14-10-17" class="cls-1" d="M375.723,1910.7v-3.2H331.607v28h4.321v-11.2h36.819v-3.2H335.928v-10.4h39.8Zm7.676,24.8h4.321v-28H383.4v28Zm56.788-28H435.1l-18.337,25-19.154-25H393l20.69,28H419.5Zm52.08,3.2v-3.2h-46.8v28h46.8v-3.2H449.783v-9.2h39.508v-3.2H449.783v-9.2h42.484Zm38.156,24.8v-23.44l22.13,23.44h1.968l21.842-23.48v23.48h4.32v-28h-5.808l-21.41,22.96-21.794-22.96H526.1v28h4.321Zm60.815,0h4.32v-28h-4.32v28Zm19.2-3.2v-24.8h-4.32v28H651v-3.2H610.438Zm95.044-21.6v-3.2h-46.8v28h46.8v-3.2H663v-9.2h39.508v-3.2H663v-9.2h42.484Zm19.772,21.64c-5.328,0-7.488-1.56-9.024-5.24h-4.753c1.3,4.8,3.841,8.4,13.537,8.4h22.8c7.489,0,13.394-1.08,13.394-7.76,0-6.6-5.857-7.88-13.346-7.88H725.4c-5.136,0-8.4-.8-8.4-4.56,0-3.68,3.312-4.64,8.448-4.64H746.52c5.329,0,7.537,1.56,9.073,5.24h4.752c-1.3-4.8-3.84-8.4-13.585-8.4H725.878c-7.488,0-13.393,1.08-13.393,7.76,0,6.6,5.857,7.84,13.345,7.84H748.3c5.137,0,8.4.88,8.4,4.6,0,3.68-3.312,4.64-8.449,4.64H725.254ZM856.2,1935.5h4.32v-28h-2.88c-3.889,4.2-10.657,5.32-11.953,5.32v2.88c1.488,0,7.3-.2,10.513-2.68v22.48Zm56.21-7.92v-3.2H906.7V1907.5h-4.32l-29.955,17v3.08h29.955v7.92h4.32v-7.92h5.713Zm-33.891-3.2,23.858-13.12v13.12H878.517Zm42.191-1.04h17.425v-3.6H920.708v3.6Zm37.728,12.16h4.32v-28h-2.88c-3.888,4.2-10.657,5.32-11.953,5.32v2.88c1.488,0,7.3-.2,10.513-2.68v22.48Zm60.144-19.4c0-6.68-3.65-8.8-10.41-8.8H984.932c-6.769,0-10.417,2.12-10.417,8.8v10.68c0,6.88,3.5,8.92,10.417,8.92h23.238c6.91,0,10.41-2.04,10.41-8.92V1916.1Zm-39.745-.96c0-3.48,2.016-4.6,6.385-4.6h22.66c4.37,0,6.38,1.12,6.38,4.6v12.8c0,3.64-1.87,4.56-6.38,4.56H985.22c-4.513,0-6.385-.92-6.385-4.56v-12.8Zm48.195,8.2h17.42v-3.6h-17.42v3.6Zm37.72,12.16h4.33v-28h-2.88c-3.89,4.2-10.66,5.32-11.96,5.32v2.88c1.49,0,7.3-.2,10.51-2.68v22.48Zm15.65-24.8h28.85c-14.45,7.44-21.46,19.96-21.98,24.8h4.32c1.15-7.36,9.69-18.16,22.37-24v-4H1080.4v3.2Z" transform="translate(-331.594 -1907.31)"/>
  <path id="_BUY_TICKETS_" data-name="*** BUY TICKETS ***" class="cls-2" d="M378.768,1957.26l-1.1,2.48,5.616,1.2-4.176,4.04,2.64,1.48,3.264-4.24,3.073,4.32,2.832-1.36-4.08-4.24,5.712-1.08-0.96-2.56-5.473,1.68,0.481-4.28h-2.977l0.48,4.28Zm19.679,0-1.1,2.48,5.617,1.2-4.177,4.04,2.64,1.48,3.265-4.24,3.072,4.32,2.832-1.36-4.08-4.24,5.712-1.08-0.96-2.56-5.472,1.68,0.48-4.28H403.3l0.48,4.28Zm19.68,0-1.105,2.48,5.617,1.2-4.176,4.04,2.64,1.48,3.264-4.24,3.072,4.32,2.833-1.36-4.081-4.24,5.713-1.08-0.96-2.56-5.473,1.68,0.48-4.28h-2.976l0.48,4.28Zm46.895,26.24h38.691c7.633,0,10.513-2.8,10.513-8.28,0-2.08-1.44-5.12-5.856-6.08a7.32,7.32,0,0,0,4.656-6.24c0-4.52-3.648-7.4-10.7-7.4h-37.3v28Zm4.32-12.36h34.611c5.185,0,5.761,3.48,5.761,4.56,0,1.12-.576,4.6-5.761,4.6H469.342v-9.16Zm0-12.4h33.411c5.185,0,5.761,3.48,5.761,4.56,0,1.12-.576,4.6-5.761,4.6H469.342v-9.16Zm86.45,25.16c13.442,0,18.722-5.92,18.722-14.32V1955.5h-4.32v14.04c0,8.8-6.913,11.28-14.642,11.28H541.583c-7.728,0-14.641-2.48-14.641-11.28V1955.5h-4.32v14.08c0,8.4,5.28,14.32,18.721,14.32h14.449Zm44.639-.4h4.32v-9.24l21.362-18.76H620.3l-17.713,15.48-17.714-15.48h-5.808l21.362,18.76v9.24ZM702.1,1958.7v-3.2H653.949v3.2h21.938v24.8h4.32v-24.8H702.1Zm7.676,24.8h4.32v-28h-4.32v28Zm46.514-25.28c5.377,0,10.321,1.64,12.865,5.28h4.753c-2.3-4.8-7.585-8.4-17.378-8.4H741.454c-13.441,0-18.722,6.92-18.722,14.48,0,7.6,5.281,14.32,18.722,14.32h15.073c10.033,0,15.41-3.72,17.618-8.76h-4.7c-2.448,3.96-7.584,5.68-13.153,5.68H741.694c-7.729,0-14.641-3.28-14.641-11.28s6.912-11.32,14.641-11.32h14.593Zm53.76-2.72-23.426,11v-11H782.78v28h3.841v-13.24l25.346,13.24h7.777l-29.715-15.28,27.41-12.72h-7.392Zm62.017,3.2v-3.2h-46.8v28h46.8v-3.2H829.58v-9.2h39.508v-3.2H829.58v-9.2h42.484Zm53.664,0v-3.2H877.579v3.2h21.938v24.8h4.321v-24.8h21.89Zm19.052,21.64c-5.328,0-7.488-1.56-9.024-5.24H931c1.3,4.8,3.841,8.4,13.537,8.4h22.8c7.489,0,13.393-1.08,13.393-7.76,0-6.6-5.856-7.88-13.345-7.88H944.924c-5.136,0-8.4-.8-8.4-4.56,0-3.68,3.312-4.64,8.448-4.64h21.074c5.329,0,7.537,1.56,9.073,5.24h4.752c-1.3-4.8-3.84-8.4-13.585-8.4H945.4c-7.488,0-13.393,1.08-13.393,7.76,0,6.6,5.857,7.84,13.345,7.84h22.466c5.137,0,8.4.88,8.4,4.6,0,3.68-3.312,4.64-8.449,4.64H944.78Zm68.01-23.08-1.1,2.48,5.62,1.2-4.18,4.04,2.64,1.48,3.27-4.24,3.07,4.32,2.83-1.36-4.08-4.24,5.71-1.08-0.96-2.56-5.47,1.68,0.48-4.28h-2.98l0.48,4.28Zm19.68,0-1.1,2.48,5.62,1.2-4.18,4.04,2.64,1.48,3.26-4.24,3.08,4.32,2.83-1.36-4.08-4.24,5.71-1.08-0.96-2.56-5.47,1.68,0.48-4.28h-2.98l0.48,4.28Zm19.68,0-1.1,2.48,5.62,1.2-4.18,4.04,2.64,1.48,3.26-4.24,3.08,4.32,2.83-1.36-4.08-4.24,5.71-1.08-0.96-2.56-5.47,1.68,0.48-4.28H1057l0.48,4.28Zm-590.488,34.26v-2H985.771v2H461.662Z" transform="translate(-331.594 -1907.31)"/>
</svg>
