<svg xmlns="http://www.w3.org/2000/svg" xmlns:xlink="http://www.w3.org/1999/xlink" width="1845.283" height="117" viewBox="0 0 1845.283 117">
  <metadata><?xpacket begin="﻿" id="W5M0MpCehiHzreSzNTczkc9d"?>
<x:xmpmeta xmlns:x="adobe:ns:meta/" x:xmptk="Adobe XMP Core 5.6-c138 79.159824, 2016/09/14-01:09:01        ">
   <rdf:RDF xmlns:rdf="http://www.w3.org/1999/02/22-rdf-syntax-ns#">
      <rdf:Description rdf:about=""/>
   </rdf:RDF>
</x:xmpmeta>
                                                                                                    
                                                                                                    
                                                                                                    
                                                                                                    
                                                                                                    
                                                                                                    
                                                                                                    
                                                                                                    
                                                                                                    
                                                                                                    
                                                                                                    
                                                                                                    
                                                                                                    
                                                                                                    
                                                                                                    
                                                                                                    
                                                                                                    
                                                                                                    
                                                                                                    
                                                                                                    
                           
<?xpacket end="w"?></metadata>
<defs>
    <style>
      .cls-1, .cls-2, .cls-3, .cls-4, .cls-5 {
        fill: #d0d0d0;
        fill-rule: evenodd;
      }

      .cls-1 {
        filter: url(#filter);
      }

      .cls-2 {
        filter: url(#filter-2);
      }

      .cls-3 {
        filter: url(#filter-3);
      }

      .cls-4 {
        filter: url(#filter-4);
      }

      .cls-5 {
        filter: url(#filter-5);
      }
    </style>
    <filter id="filter" x="36.188" y="1427.31" width="1845.283" height="96" filterUnits="userSpaceOnUse">
      <feFlood result="flood" flood-color="#fff"/>
      <feComposite result="composite" operator="in" in2="SourceGraphic"/>
      <feBlend result="blend" in2="SourceGraphic"/>
    </filter>
    <filter id="filter-2" x="482" y="1420" width="43" height="53" filterUnits="userSpaceOnUse">
      <feFlood result="flood" flood-color="#fff"/>
      <feComposite result="composite" operator="in" in2="SourceGraphic"/>
      <feBlend result="blend" in2="SourceGraphic"/>
    </filter>
    <filter id="filter-3" x="648" y="1483" width="43" height="53" filterUnits="userSpaceOnUse">
      <feFlood result="flood" flood-color="#fff"/>
      <feComposite result="composite" operator="in" in2="SourceGraphic"/>
      <feBlend result="blend" in2="SourceGraphic"/>
    </filter>
    <filter id="filter-4" x="835" y="1422" width="43" height="53" filterUnits="userSpaceOnUse">
      <feFlood result="flood" flood-color="#fff"/>
      <feComposite result="composite" operator="in" in2="SourceGraphic"/>
      <feBlend result="blend" in2="SourceGraphic"/>
    </filter>
    <filter id="filter-5" x="1239" y="1419" width="43" height="53" filterUnits="userSpaceOnUse">
      <feFlood result="flood" flood-color="#fff"/>
      <feComposite result="composite" operator="in" in2="SourceGraphic"/>
      <feBlend result="blend" in2="SourceGraphic"/>
    </filter>
  </defs>
  <path id="FLORA_HEX_IMPEY_MOLESKIN_SAMI_BAHA_SILK_ROAD_ASS" data-name="FLORA    HEX    IMPEY   MOLESKIN     SAMI BAHA    SILK ROAD ASS" class="cls-1" d="M150.738,1430.5v-2.7H87.789v35H91.9v-14.65h54.592v-2.65H91.9v-15h58.839Zm9.592,29.65V1427.8h-4.11v35h64.045v-2.65H160.33Zm113.777,3.15c19.179,0,26.713-8.4,26.713-17.9,0-9.45-7.534-18.1-26.713-18.1H249.722c-19.179,0-26.714,8.65-26.714,18.1,0,9.5,7.535,17.9,26.714,17.9h24.385Zm0.137-33.35c11.027,0,22.466,4.2,22.466,15.4s-11.439,15.35-22.466,15.35H249.585c-11.028,0-22.467-4.15-22.467-15.35s11.439-15.4,22.467-15.4h24.659Zm92.748,16.1c6.165-1.2,8.357-4.9,8.357-8.05,0-8.2-6.1-10.25-20-10.25H307.674v35.05h4.11v-15.15h49.18c5.754,0,11.1,2.45,11.1,7.6a13.349,13.349,0,0,0,1.781,7.55h4.109c-1.1-1.7-1.917-3-1.917-8.2C375.965,1450.4,373.088,1447.1,366.992,1446.05Zm-55.208-15.55h45.344c4.864,0,14.248.2,14.248,7.35,0,6.45-8.836,7.1-14.59,7.1h-45V1430.5Zm101.378-2.7h-5.411l-30.824,35h4.452l7.535-8.3h42.947l7.4,8.3h4.863Zm-2.535,2.55,19.043,21.6h-38.5Zm230.705,32.45h4.11v-35h-4.11v16.1H575.3v-16.1h-4.11v35h4.11v-16.25h66.031v16.25Zm80.487-32.3v-2.7H655.035v35h66.784v-2.65H659.145v-13.5h58.428V1444H659.145v-13.5h62.674Zm6.374-2.7H722.3l27.6,17.55-27.6,17.45h5.959l24.59-15.6,24.591,15.6H783.4l-27.6-17.45,27.6-17.55H777.51l-24.659,15.65Zm182.071,35h4.11v-35h-4.11v35Zm17.809,0v-31.3l34.112,31.3h1.781l33.768-31.35v31.35h4.106v-35h-5.681l-33.152,30.85-33.769-30.85h-5.274v35h4.109Zm83.367,0h4.11v-9h41.85c15.62,0,21.99-5.35,21.99-12.9,0-8.6-6.58-13.1-22.13-13.1h-45.82v35Zm4.11-32.3h43.77c4.86,0,15.96.8,15.96,10.35,0,9.3-11.03,10.3-16.03,10.3h-43.7V1430.5Zm136.79,0v-2.7h-66.79v35h66.79v-2.65h-62.68v-13.5h58.43V1444h-58.43v-13.5h62.68Zm30.76,32.3h4.11v-11.55l30.48-23.45h-5.55l-26.99,20.7-26.99-20.7h-5.48l30.42,23.45v11.55Zm134.6,0v-31.3l34.11,31.3h1.78l33.77-31.35v31.35h4.11v-35h-5.69l-33.15,30.85-33.77-30.85h-5.27v35h4.11Zm131.72,0.5c19.18,0,26.72-8.4,26.72-17.9,0-9.45-7.54-18.1-26.72-18.1h-24.38c-19.18,0-26.72,8.65-26.72,18.1,0,9.5,7.54,17.9,26.72,17.9h24.38Zm0.14-33.35c11.03,0,22.47,4.2,22.47,15.4s-11.44,15.35-22.47,15.35H1424.9c-11.03,0-22.47-4.15-22.47-15.35s11.44-15.4,22.47-15.4h24.66Zm37.54,30.2V1427.8h-4.11v35h64.04v-2.65H1487.1Zm132.2-29.65v-2.7h-66.78v35h66.78v-2.65h-62.67v-13.5h58.42V1444h-58.42v-13.5h62.67Zm24.46,29.65c-11.85,0-14.66-2.5-16.85-7.85h-4.52c1.84,6,5.61,10.5,19.17,10.5h35.01c8.15,0,16.71-1.55,16.71-9.35,0-7.75-8.63-9.5-16.64-9.5h-36.79c-7.4,0-11.78-2.1-11.78-6.7s4.38-6.8,11.78-6.8h30.83c11.78,0,14.72,2.5,16.91,7.85h4.53c-1.85-6-5.76-10.5-19.25-10.5h-32.33c-8.15,0-16.72,1.55-16.72,9.35,0,7.85,8.57,9.5,16.72,9.5h36.71c7.4,0,11.78,2.1,11.78,6.75,0,4.6-4.38,6.75-11.78,6.75h-33.49Zm95.48-32.35-35.68,14.1v-14.1h-3.77v35h3.77v-17.05l38.77,17.05h7.46l-43.63-19.1,40.48-15.9h-7.4Zm14.18,35h4.11v-35h-4.11v35Zm76.79-35h-4.11v31.65l-53.63-31.7h-5.35v35.05h4.11v-31.85l53.84,31.85h5.14v-35ZM57.548,1520.15c-11.85,0-14.658-2.5-16.85-7.85H36.177c1.849,6,5.617,10.5,19.179,10.5h35c8.151,0,16.713-1.55,16.713-9.35,0-7.75-8.631-9.5-16.645-9.5H53.643c-7.4,0-11.781-2.1-11.781-6.7s4.384-6.8,11.781-6.8H84.467c11.781,0,14.727,2.5,16.918,7.85h4.521c-1.849-6-5.754-10.5-19.247-10.5H54.328c-8.151,0-16.713,1.55-16.713,9.35,0,7.85,8.562,9.5,16.713,9.5H91.042c7.4,0,11.782,2.1,11.782,6.75,0,4.6-4.384,6.75-11.782,6.75H57.548Zm86.446-32.35h-5.411l-30.824,35h4.453l7.534-8.3h42.948l7.4,8.3h4.864Zm-2.534,2.55,19.042,21.6h-38.5Zm41.374,32.45v-31.3l34.111,31.3h1.781l33.769-31.35v31.35h4.11v-35h-5.685l-33.153,30.85L184,1487.8h-5.274v35h4.11Zm83.364,0h4.11v-35H266.2v35Zm44.525,0H365.93c10.138,0,15-3.1,15-9.95,0-3.2-2.6-6.95-9.11-7.85,4.452-1.2,7.4-4.85,7.4-8.05,0-5.35-5.137-9.15-15.274-9.15H310.722v35Zm4.11-16.1h51.441c8.425,0,10.411,3.9,10.411,6.45,0,3.75-3.014,7-10.411,7H314.832V1506.7Zm0-16.2H364.56c7.4,0,10.412,3.8,10.412,6.75,0,2.55-2.6,6.75-9.932,6.75H314.832v-13.5Zm104.049-2.7H413.47l-30.823,35H387.1l7.535-8.3h42.947l7.4,8.3h4.863Zm-2.534,2.55,19.042,21.6h-38.5Zm107.4,32.45h4.11v-35h-4.11v16.1H457.721v-16.1h-4.109v35h4.109v-16.25h66.031v16.25Zm44.116-35h-5.411l-30.824,35h4.453l7.534-8.3h42.948l7.4,8.3h4.864Zm-2.534,2.55,19.042,21.6h-38.5Zm178.509,29.8c-11.849,0-14.658-2.5-16.85-7.85h-4.521c1.85,6,5.617,10.5,19.18,10.5h35c8.151,0,16.714-1.55,16.714-9.35,0-7.75-8.631-9.5-16.645-9.5H739.939c-7.4,0-11.781-2.1-11.781-6.7s4.384-6.8,11.781-6.8h30.824c11.781,0,14.726,2.5,16.918,7.85H792.2c-1.849-6-5.754-10.5-19.247-10.5H740.624c-8.151,0-16.713,1.55-16.713,9.35,0,7.85,8.562,9.5,16.713,9.5h36.714c7.4,0,11.782,2.1,11.782,6.75,0,4.6-4.384,6.75-11.782,6.75h-33.5Zm56.033,2.65h4.11v-35h-4.11v35Zm17.81-2.65V1487.8h-4.11v35h64.045v-2.65H817.686Zm104.872-32.35-35.687,14.1v-14.1H883.1v35h3.767v-17.05l38.769,17.05h7.466l-43.632-19.1,40.481-15.9h-7.4Zm104.322,18.25c6.17-1.2,8.36-4.9,8.36-8.05,0-8.2-6.1-10.25-20-10.25H967.563v35.05h4.11v-15.15h49.177c5.76,0,11.1,2.45,11.1,7.6a13.4,13.4,0,0,0,1.78,7.55h4.11c-1.1-1.7-1.92-3-1.92-8.2C1035.85,1510.4,1032.98,1507.1,1026.88,1506.05Zm-55.207-15.55h45.347c4.86,0,14.25.2,14.25,7.35,0,6.45-8.84,7.1-14.59,7.1H971.673V1490.5ZM1091,1523.3c19.18,0,26.71-8.4,26.71-17.9,0-9.45-7.53-18.1-26.71-18.1h-24.39c-19.18,0-26.71,8.65-26.71,18.1,0,9.5,7.53,17.9,26.71,17.9H1091Zm0.13-33.35c11.03,0,22.47,4.2,22.47,15.4s-11.44,15.35-22.47,15.35h-24.65c-11.03,0-22.47-4.15-22.47-15.35s11.44-15.4,22.47-15.4h24.65Zm63.85-2.15h-5.41l-30.83,35h4.45l7.54-8.3h42.95l7.39,8.3h4.87Zm-2.54,2.55,19.04,21.6h-38.49Zm37.27,32.45h47.33c19.18,0,26.71-7.9,26.71-17.4,0-9.45-7.53-17.6-26.71-17.6h-47.33v35Zm47.4-32.35c11.02,0,22.46,3.65,22.46,14.9,0,11.2-11.44,14.85-22.46,14.85h-43.29v-29.75h43.29Zm94.73-2.65h-5.41l-30.82,35h4.45l7.54-8.3h42.94l7.4,8.3h4.86Zm-2.53,2.55,19.04,21.6h-38.49Zm55.21,29.8c-11.85,0-14.66-2.5-16.85-7.85h-4.52c1.85,6,5.62,10.5,19.18,10.5h35c8.15,0,16.71-1.55,16.71-9.35,0-7.75-8.63-9.5-16.64-9.5h-36.79c-7.39,0-11.78-2.1-11.78-6.7s4.39-6.8,11.78-6.8h30.83c11.78,0,14.73,2.5,16.92,7.85h4.52c-1.85-6-5.76-10.5-19.25-10.5H1381.3c-8.15,0-16.71,1.55-16.71,9.35,0,7.85,8.56,9.5,16.71,9.5h36.71c7.4,0,11.79,2.1,11.79,6.75,0,4.6-4.39,6.75-11.79,6.75h-33.49Zm73.98,0c-11.85,0-14.66-2.5-16.85-7.85h-4.52c1.85,6,5.61,10.5,19.18,10.5h35c8.15,0,16.71-1.55,16.71-9.35,0-7.75-8.63-9.5-16.64-9.5h-36.79c-7.39,0-11.78-2.1-11.78-6.7s4.39-6.8,11.78-6.8h30.83c11.78,0,14.72,2.5,16.92,7.85h4.52c-1.85-6-5.76-10.5-19.25-10.5h-32.33c-8.15,0-16.71,1.55-16.71,9.35,0,7.85,8.56,9.5,16.71,9.5h36.71c7.4,0,11.78,2.1,11.78,6.75,0,4.6-4.38,6.75-11.78,6.75H1458.5Zm86.44-32.35h-5.41l-30.82,35h4.45l7.54-8.3h42.94l7.4,8.3h4.86Zm-2.53,2.55,19.04,21.6h-38.49Zm55.21,29.8c-11.85,0-14.66-2.5-16.85-7.85h-4.52c1.85,6,5.62,10.5,19.18,10.5h35c8.15,0,16.71-1.55,16.71-9.35,0-7.75-8.63-9.5-16.64-9.5h-36.78c-7.4,0-11.79-2.1-11.79-6.7s4.39-6.8,11.79-6.8h30.82c11.78,0,14.73,2.5,16.92,7.85h4.52c-1.85-6-5.75-10.5-19.25-10.5H1594.4c-8.15,0-16.71,1.55-16.71,9.35,0,7.85,8.56,9.5,16.71,9.5h36.72c7.39,0,11.78,2.1,11.78,6.75,0,4.6-4.39,6.75-11.78,6.75h-33.5Zm73.98,0c-11.85,0-14.66-2.5-16.85-7.85h-4.52c1.85,6,5.62,10.5,19.18,10.5h35c8.15,0,16.71-1.55,16.71-9.35,0-7.75-8.63-9.5-16.64-9.5H1667.7c-7.4,0-11.79-2.1-11.79-6.7s4.39-6.8,11.79-6.8h30.82c11.78,0,14.73,2.5,16.92,7.85h4.52c-1.85-6-5.76-10.5-19.25-10.5h-32.33c-8.15,0-16.71,1.55-16.71,9.35,0,7.85,8.56,9.5,16.71,9.5h36.71c7.4,0,11.79,2.1,11.79,6.75,0,4.6-4.39,6.75-11.79,6.75H1671.6Zm56.03,2.65h4.11v-35h-4.11v35Zm76.79-35h-4.11v31.65l-53.63-31.7h-5.35v35.05h4.11v-31.85l53.84,31.85h5.14v-35Zm27.54,32.35c-11.85,0-14.66-2.5-16.85-7.85h-4.52c1.84,6,5.61,10.5,19.17,10.5h35.01c8.15,0,16.71-1.55,16.71-9.35,0-7.75-8.63-9.5-16.65-9.5h-36.78c-7.4,0-11.78-2.1-11.78-6.7s4.38-6.8,11.78-6.8h30.83c11.78,0,14.72,2.5,16.91,7.85h4.52c-1.84-6-5.75-10.5-19.24-10.5h-32.33c-8.15,0-16.72,1.55-16.72,9.35,0,7.85,8.57,9.5,16.72,9.5h36.71c7.4,0,11.78,2.1,11.78,6.75,0,4.6-4.38,6.75-11.78,6.75h-33.49Z" transform="translate(-36.188 -1419)"/>
  <path class="cls-2" d="M524.85,1456.8l-0.347.78c-5.7-2.4-11.393-4.81-17.963-7.58l-2.58,23c-1.05-8.13-1.937-14.99-2.958-22.9-6.518,2.88-12.556,5.54-18.6,8.2-0.135-.18-0.271-0.36-0.407-0.55,5.2-4.02,10.4-8.03,16.142-12.47-5.335-4.04-10.148-7.68-14.96-11.32l0.336-.84c5.5,2.28,10.989,4.56,17.361,7.2,0.764-7.16,1.46-13.69,2.156-20.22,0.234-.03.469-0.07,0.7-0.1,0.828,6.47,1.657,12.93,2.609,20.36,6.556-2.93,12.425-5.55,18.294-8.17,0.119,0.22.239,0.45,0.359,0.68-5.047,3.9-10.1,7.79-15.917,12.28C514.68,1449.29,519.765,1453.04,524.85,1456.8Z" transform="translate(-36.188 -1419)"/>
  <path id="Shape_1_copy" data-name="Shape 1 copy" class="cls-3" d="M690.85,1519.8l-0.347.78c-5.7-2.4-11.393-4.81-17.963-7.58l-2.58,23c-1.05-8.13-1.937-14.99-2.958-22.9-6.518,2.88-12.556,5.54-18.595,8.2-0.135-.18-0.271-0.36-0.407-0.55,5.2-4.02,10.4-8.03,16.142-12.47-5.335-4.04-10.148-7.68-14.96-11.32l0.336-.84c5.5,2.28,10.989,4.56,17.361,7.2,0.764-7.16,1.46-13.69,2.156-20.22,0.234-.03.469-0.07,0.7-0.1,0.828,6.47,1.657,12.93,2.609,20.36,6.556-2.93,12.425-5.55,18.294-8.17,0.119,0.22.239,0.45,0.359,0.68-5.047,3.9-10.1,7.79-15.917,12.28C680.68,1512.29,685.765,1516.04,690.85,1519.8Z" transform="translate(-36.188 -1419)"/>
  <path id="Shape_1_copy_2" data-name="Shape 1 copy 2" class="cls-4" d="M877.85,1458.8l-0.347.78c-5.7-2.4-11.393-4.81-17.963-7.58l-2.58,23c-1.05-8.13-1.937-14.99-2.958-22.9-6.518,2.88-12.556,5.54-18.595,8.2-0.135-.18-0.271-0.36-0.407-0.55,5.2-4.02,10.4-8.03,16.142-12.47-5.335-4.04-10.148-7.68-14.96-11.32l0.336-.84c5.5,2.28,10.989,4.56,17.361,7.2,0.764-7.16,1.46-13.69,2.156-20.22,0.234-.03.469-0.07,0.7-0.1,0.828,6.47,1.657,12.93,2.609,20.36,6.556-2.93,12.425-5.55,18.294-8.17,0.119,0.22.239,0.45,0.359,0.68-5.047,3.9-10.1,7.79-15.917,12.28C867.68,1451.29,872.765,1455.04,877.85,1458.8Z" transform="translate(-36.188 -1419)"/>
  <path id="Shape_1_copy_3" data-name="Shape 1 copy 3" class="cls-5" d="M1281.85,1455.8c-0.12.26-.23,0.52-0.35,0.78-5.69-2.4-11.39-4.81-17.96-7.58-0.85,7.56-1.64,14.62-2.58,23-1.05-8.13-1.94-14.99-2.96-22.9-6.52,2.88-12.55,5.54-18.59,8.2-0.14-.18-0.27-0.36-0.41-0.55,5.2-4.02,10.4-8.03,16.14-12.47-5.33-4.04-10.15-7.68-14.96-11.32,0.11-.28.23-0.56,0.34-0.84,5.49,2.28,10.99,4.56,17.36,7.2,0.76-7.16,1.46-13.69,2.15-20.22,0.24-.03.47-0.07,0.71-0.1,0.83,6.47,1.65,12.93,2.61,20.36,6.55-2.93,12.42-5.55,18.29-8.17,0.12,0.22.24,0.45,0.36,0.68-5.05,3.9-10.09,7.79-15.92,12.28C1271.68,1448.29,1276.76,1452.04,1281.85,1455.8Z" transform="translate(-36.188 -1419)"/>
</svg>
